%TF.GenerationSoftware,KiCad,Pcbnew,(6.0.9)*%
%TF.CreationDate,2022-12-02T11:09:33-06:00*%
%TF.ProjectId,First_stm32,46697273-745f-4737-946d-33322e6b6963,rev?*%
%TF.SameCoordinates,Original*%
%TF.FileFunction,Copper,L1,Top*%
%TF.FilePolarity,Positive*%
%FSLAX46Y46*%
G04 Gerber Fmt 4.6, Leading zero omitted, Abs format (unit mm)*
G04 Created by KiCad (PCBNEW (6.0.9)) date 2022-12-02 11:09:33*
%MOMM*%
%LPD*%
G01*
G04 APERTURE LIST*
G04 Aperture macros list*
%AMRoundRect*
0 Rectangle with rounded corners*
0 $1 Rounding radius*
0 $2 $3 $4 $5 $6 $7 $8 $9 X,Y pos of 4 corners*
0 Add a 4 corners polygon primitive as box body*
4,1,4,$2,$3,$4,$5,$6,$7,$8,$9,$2,$3,0*
0 Add four circle primitives for the rounded corners*
1,1,$1+$1,$2,$3*
1,1,$1+$1,$4,$5*
1,1,$1+$1,$6,$7*
1,1,$1+$1,$8,$9*
0 Add four rect primitives between the rounded corners*
20,1,$1+$1,$2,$3,$4,$5,0*
20,1,$1+$1,$4,$5,$6,$7,0*
20,1,$1+$1,$6,$7,$8,$9,0*
20,1,$1+$1,$8,$9,$2,$3,0*%
G04 Aperture macros list end*
%TA.AperFunction,SMDPad,CuDef*%
%ADD10R,1.800000X1.100000*%
%TD*%
%TA.AperFunction,ComponentPad*%
%ADD11R,1.700000X1.700000*%
%TD*%
%TA.AperFunction,ComponentPad*%
%ADD12O,1.700000X1.700000*%
%TD*%
%TA.AperFunction,SMDPad,CuDef*%
%ADD13R,0.900000X1.200000*%
%TD*%
%TA.AperFunction,SMDPad,CuDef*%
%ADD14RoundRect,0.140000X-0.140000X-0.170000X0.140000X-0.170000X0.140000X0.170000X-0.140000X0.170000X0*%
%TD*%
%TA.AperFunction,SMDPad,CuDef*%
%ADD15R,0.900000X1.250000*%
%TD*%
%TA.AperFunction,SMDPad,CuDef*%
%ADD16R,0.800000X0.930000*%
%TD*%
%TA.AperFunction,SMDPad,CuDef*%
%ADD17RoundRect,0.200000X-0.275000X0.200000X-0.275000X-0.200000X0.275000X-0.200000X0.275000X0.200000X0*%
%TD*%
%TA.AperFunction,SMDPad,CuDef*%
%ADD18RoundRect,0.225000X0.225000X0.250000X-0.225000X0.250000X-0.225000X-0.250000X0.225000X-0.250000X0*%
%TD*%
%TA.AperFunction,SMDPad,CuDef*%
%ADD19RoundRect,0.250000X0.625000X-0.375000X0.625000X0.375000X-0.625000X0.375000X-0.625000X-0.375000X0*%
%TD*%
%TA.AperFunction,SMDPad,CuDef*%
%ADD20RoundRect,0.140000X0.170000X-0.140000X0.170000X0.140000X-0.170000X0.140000X-0.170000X-0.140000X0*%
%TD*%
%TA.AperFunction,SMDPad,CuDef*%
%ADD21RoundRect,0.218750X0.256250X-0.218750X0.256250X0.218750X-0.256250X0.218750X-0.256250X-0.218750X0*%
%TD*%
%TA.AperFunction,ComponentPad*%
%ADD22C,0.900000*%
%TD*%
%TA.AperFunction,ComponentPad*%
%ADD23C,8.600000*%
%TD*%
%TA.AperFunction,SMDPad,CuDef*%
%ADD24RoundRect,0.225000X0.250000X-0.225000X0.250000X0.225000X-0.250000X0.225000X-0.250000X-0.225000X0*%
%TD*%
%TA.AperFunction,SMDPad,CuDef*%
%ADD25RoundRect,0.218750X-0.218750X-0.256250X0.218750X-0.256250X0.218750X0.256250X-0.218750X0.256250X0*%
%TD*%
%TA.AperFunction,SMDPad,CuDef*%
%ADD26RoundRect,0.218750X-0.256250X0.218750X-0.256250X-0.218750X0.256250X-0.218750X0.256250X0.218750X0*%
%TD*%
%TA.AperFunction,SMDPad,CuDef*%
%ADD27R,3.048000X2.540000*%
%TD*%
%TA.AperFunction,SMDPad,CuDef*%
%ADD28RoundRect,0.150000X-0.150000X0.587500X-0.150000X-0.587500X0.150000X-0.587500X0.150000X0.587500X0*%
%TD*%
%TA.AperFunction,SMDPad,CuDef*%
%ADD29RoundRect,0.140000X0.140000X0.170000X-0.140000X0.170000X-0.140000X-0.170000X0.140000X-0.170000X0*%
%TD*%
%TA.AperFunction,SMDPad,CuDef*%
%ADD30RoundRect,0.135000X0.185000X-0.135000X0.185000X0.135000X-0.185000X0.135000X-0.185000X-0.135000X0*%
%TD*%
%TA.AperFunction,SMDPad,CuDef*%
%ADD31R,1.200000X0.900000*%
%TD*%
%TA.AperFunction,SMDPad,CuDef*%
%ADD32RoundRect,0.200000X0.275000X-0.200000X0.275000X0.200000X-0.275000X0.200000X-0.275000X-0.200000X0*%
%TD*%
%TA.AperFunction,SMDPad,CuDef*%
%ADD33RoundRect,0.135000X0.135000X0.185000X-0.135000X0.185000X-0.135000X-0.185000X0.135000X-0.185000X0*%
%TD*%
%TA.AperFunction,SMDPad,CuDef*%
%ADD34RoundRect,0.250000X-0.325000X-0.650000X0.325000X-0.650000X0.325000X0.650000X-0.325000X0.650000X0*%
%TD*%
%TA.AperFunction,SMDPad,CuDef*%
%ADD35RoundRect,0.218750X-0.381250X0.218750X-0.381250X-0.218750X0.381250X-0.218750X0.381250X0.218750X0*%
%TD*%
%TA.AperFunction,ComponentPad*%
%ADD36R,2.600000X2.600000*%
%TD*%
%TA.AperFunction,ComponentPad*%
%ADD37C,2.600000*%
%TD*%
%TA.AperFunction,SMDPad,CuDef*%
%ADD38RoundRect,0.200000X0.200000X0.275000X-0.200000X0.275000X-0.200000X-0.275000X0.200000X-0.275000X0*%
%TD*%
%TA.AperFunction,SMDPad,CuDef*%
%ADD39RoundRect,0.225000X-0.225000X-0.250000X0.225000X-0.250000X0.225000X0.250000X-0.225000X0.250000X0*%
%TD*%
%TA.AperFunction,SMDPad,CuDef*%
%ADD40RoundRect,0.075000X-0.700000X-0.075000X0.700000X-0.075000X0.700000X0.075000X-0.700000X0.075000X0*%
%TD*%
%TA.AperFunction,SMDPad,CuDef*%
%ADD41RoundRect,0.075000X-0.075000X-0.700000X0.075000X-0.700000X0.075000X0.700000X-0.075000X0.700000X0*%
%TD*%
%TA.AperFunction,SMDPad,CuDef*%
%ADD42R,1.380000X0.450000*%
%TD*%
%TA.AperFunction,SMDPad,CuDef*%
%ADD43R,1.900000X1.000000*%
%TD*%
%TA.AperFunction,SMDPad,CuDef*%
%ADD44R,1.550000X1.425000*%
%TD*%
%TA.AperFunction,SMDPad,CuDef*%
%ADD45R,1.300000X1.650000*%
%TD*%
%TA.AperFunction,SMDPad,CuDef*%
%ADD46R,1.900000X1.800000*%
%TD*%
%TA.AperFunction,SMDPad,CuDef*%
%ADD47RoundRect,0.150000X0.150000X-0.512500X0.150000X0.512500X-0.150000X0.512500X-0.150000X-0.512500X0*%
%TD*%
%TA.AperFunction,SMDPad,CuDef*%
%ADD48RoundRect,0.150000X0.512500X0.150000X-0.512500X0.150000X-0.512500X-0.150000X0.512500X-0.150000X0*%
%TD*%
%TA.AperFunction,SMDPad,CuDef*%
%ADD49RoundRect,0.147500X-0.147500X-0.172500X0.147500X-0.172500X0.147500X0.172500X-0.147500X0.172500X0*%
%TD*%
%TA.AperFunction,SMDPad,CuDef*%
%ADD50R,1.200000X1.400000*%
%TD*%
%TA.AperFunction,ViaPad*%
%ADD51C,0.800000*%
%TD*%
%TA.AperFunction,Conductor*%
%ADD52C,1.000000*%
%TD*%
%TA.AperFunction,Conductor*%
%ADD53C,0.500000*%
%TD*%
%TA.AperFunction,Conductor*%
%ADD54C,0.250000*%
%TD*%
%TA.AperFunction,Conductor*%
%ADD55C,0.300000*%
%TD*%
%TA.AperFunction,Conductor*%
%ADD56C,0.750000*%
%TD*%
%TA.AperFunction,Conductor*%
%ADD57C,0.261112*%
%TD*%
G04 APERTURE END LIST*
D10*
%TO.P,SW3,1,1*%
%TO.N,GND*%
X105512800Y-101015800D03*
X99312800Y-101015800D03*
%TO.P,SW3,2,2*%
%TO.N,BUTTON_1*%
X99312800Y-104715800D03*
X105512800Y-104715800D03*
%TD*%
D11*
%TO.P,J2,1,Pin_1*%
%TO.N,+3.3V*%
X154432000Y-61976000D03*
D12*
%TO.P,J2,2,Pin_2*%
%TO.N,SWDIO*%
X154432000Y-64516000D03*
%TO.P,J2,3,Pin_3*%
%TO.N,GND*%
X156972000Y-61976000D03*
%TO.P,J2,4,Pin_4*%
%TO.N,SWCLK*%
X156972000Y-64516000D03*
%TO.P,J2,5,Pin_5*%
%TO.N,GND*%
X159512000Y-61976000D03*
%TO.P,J2,6,Pin_6*%
%TO.N,SWO*%
X159512000Y-64516000D03*
%TO.P,J2,7,Pin_7*%
%TO.N,unconnected-(J2-Pad7)*%
X162052000Y-61976000D03*
%TO.P,J2,8,Pin_8*%
%TO.N,unconnected-(J2-Pad8)*%
X162052000Y-64516000D03*
%TO.P,J2,9,Pin_9*%
%TO.N,GND*%
X164592000Y-61976000D03*
%TO.P,J2,10,Pin_10*%
%TO.N,NRST*%
X164592000Y-64516000D03*
%TD*%
D13*
%TO.P,D2,1,K*%
%TO.N,BUCK_SW*%
X146178000Y-104902000D03*
%TO.P,D2,2,A*%
%TO.N,GND*%
X149478000Y-104902000D03*
%TD*%
D14*
%TO.P,C15,1*%
%TO.N,HSE_IN*%
X115344000Y-76200000D03*
%TO.P,C15,2*%
%TO.N,GND*%
X116304000Y-76200000D03*
%TD*%
D15*
%TO.P,SW1,1,A*%
%TO.N,+3.3V*%
X117999200Y-58894800D03*
%TO.P,SW1,2,B*%
%TO.N,Net-(R7-Pad2)*%
X114999200Y-58894800D03*
%TO.P,SW1,3,C*%
%TO.N,GND*%
X113499200Y-58894800D03*
D16*
%TO.P,SW1,4*%
%TO.N,N/C*%
X112149200Y-57954800D03*
%TO.P,SW1,5*%
X112149200Y-55684800D03*
%TO.P,SW1,6*%
X119349200Y-55684800D03*
%TO.P,SW1,7*%
X119349200Y-57954800D03*
%TD*%
D17*
%TO.P,R1,1*%
%TO.N,BUCK_IN*%
X156718000Y-110173000D03*
%TO.P,R1,2*%
%TO.N,BUCK_EN*%
X156718000Y-111823000D03*
%TD*%
D18*
%TO.P,C5,1*%
%TO.N,+3.3V*%
X123203000Y-71628000D03*
%TO.P,C5,2*%
%TO.N,GND*%
X121653000Y-71628000D03*
%TD*%
D19*
%TO.P,F1,1*%
%TO.N,Net-(D1-Pad1)*%
X154686000Y-102492000D03*
%TO.P,F1,2*%
%TO.N,Net-(F1-Pad2)*%
X154686000Y-99692000D03*
%TD*%
D20*
%TO.P,C9,1*%
%TO.N,+3.3V*%
X136144000Y-74366000D03*
%TO.P,C9,2*%
%TO.N,GND*%
X136144000Y-73406000D03*
%TD*%
D21*
%TO.P,D4,1,K*%
%TO.N,Net-(D4-Pad1)*%
X122428000Y-86893500D03*
%TO.P,D4,2,A*%
%TO.N,LED_STATUS*%
X122428000Y-85318500D03*
%TD*%
D22*
%TO.P,H1,1,1*%
%TO.N,GND*%
X177805581Y-62478419D03*
X176861000Y-60198000D03*
X182366419Y-62478419D03*
X182366419Y-57917581D03*
X180086000Y-63423000D03*
X183311000Y-60198000D03*
X180086000Y-56973000D03*
X177805581Y-57917581D03*
D23*
X180086000Y-60198000D03*
%TD*%
D10*
%TO.P,SW4,1,1*%
%TO.N,GND*%
X105512800Y-89458800D03*
X99312800Y-89458800D03*
%TO.P,SW4,2,2*%
%TO.N,BUTTON_2*%
X99312800Y-93158800D03*
X105512800Y-93158800D03*
%TD*%
D24*
%TO.P,C14,1*%
%TO.N,Net-(C14-Pad1)*%
X137922000Y-76213000D03*
%TO.P,C14,2*%
%TO.N,GND*%
X137922000Y-74663000D03*
%TD*%
D25*
%TO.P,D5,1,K*%
%TO.N,/GREEN_LED_CATHODE*%
X102311000Y-77216000D03*
%TO.P,D5,2,A*%
%TO.N,LED_GREEN*%
X103886000Y-77216000D03*
%TD*%
D26*
%TO.P,D3,1,K*%
%TO.N,Net-(D3-Pad1)*%
X175514000Y-90932000D03*
%TO.P,D3,2,A*%
%TO.N,+3.3V*%
X175514000Y-92507000D03*
%TD*%
D27*
%TO.P,L1,1*%
%TO.N,BUCK_SW*%
X141960600Y-107467400D03*
%TO.P,L1,2*%
%TO.N,+3.3V*%
X141960600Y-114071400D03*
%TD*%
D20*
%TO.P,C12,1*%
%TO.N,+3.3VA*%
X120396000Y-81534000D03*
%TO.P,C12,2*%
%TO.N,GND*%
X120396000Y-80574000D03*
%TD*%
D28*
%TO.P,Q1,1,G*%
%TO.N,GND*%
X163256000Y-109044500D03*
%TO.P,Q1,2,S*%
%TO.N,Net-(D1-Pad1)*%
X161356000Y-109044500D03*
%TO.P,Q1,3,D*%
%TO.N,+12V*%
X162306000Y-110919500D03*
%TD*%
D14*
%TO.P,C8,1*%
%TO.N,+3.3V*%
X134902000Y-86106000D03*
%TO.P,C8,2*%
%TO.N,GND*%
X135862000Y-86106000D03*
%TD*%
D11*
%TO.P,J6,1,Pin_1*%
%TO.N,+3.3V*%
X151872000Y-91928000D03*
D12*
%TO.P,J6,2,Pin_2*%
%TO.N,+5V*%
X154412000Y-91928000D03*
%TO.P,J6,3,Pin_3*%
%TO.N,PIN_1*%
X151872000Y-89388000D03*
%TO.P,J6,4,Pin_4*%
%TO.N,PIN_2*%
X154412000Y-89388000D03*
%TO.P,J6,5,Pin_5*%
%TO.N,PIN_3*%
X151872000Y-86848000D03*
%TO.P,J6,6,Pin_6*%
%TO.N,PIN_4*%
X154412000Y-86848000D03*
%TO.P,J6,7,Pin_7*%
%TO.N,PIN_5*%
X151872000Y-84308000D03*
%TO.P,J6,8,Pin_8*%
%TO.N,PIN_6*%
X154412000Y-84308000D03*
%TO.P,J6,9,Pin_9*%
%TO.N,PWM_1*%
X151872000Y-81768000D03*
%TO.P,J6,10,Pin_10*%
%TO.N,PWM_2*%
X154412000Y-81768000D03*
%TO.P,J6,11,Pin_11*%
%TO.N,ANALOG_1*%
X151872000Y-79228000D03*
%TO.P,J6,12,Pin_12*%
%TO.N,ANALOG_2*%
X154412000Y-79228000D03*
%TO.P,J6,13,Pin_13*%
%TO.N,GND*%
X151872000Y-76688000D03*
%TO.P,J6,14,Pin_14*%
X154412000Y-76688000D03*
%TD*%
D29*
%TO.P,C16,1*%
%TO.N,Net-(C16-Pad1)*%
X116304000Y-82042000D03*
%TO.P,C16,2*%
%TO.N,GND*%
X115344000Y-82042000D03*
%TD*%
D30*
%TO.P,R14,1*%
%TO.N,SWITCH*%
X114147600Y-73103200D03*
%TO.P,R14,2*%
%TO.N,Net-(R14-Pad2)*%
X114147600Y-72083200D03*
%TD*%
D22*
%TO.P,H4,1,1*%
%TO.N,GND*%
X93771219Y-122778019D03*
X94715800Y-120497600D03*
X88265800Y-120497600D03*
X89210381Y-118217181D03*
D23*
X91490800Y-120497600D03*
D22*
X93771219Y-118217181D03*
X91490800Y-123722600D03*
X91490800Y-117272600D03*
X89210381Y-122778019D03*
%TD*%
D20*
%TO.P,C11,1*%
%TO.N,+3.3VA*%
X121666000Y-81534000D03*
%TO.P,C11,2*%
%TO.N,GND*%
X121666000Y-80574000D03*
%TD*%
D31*
%TO.P,D1,1,K*%
%TO.N,Net-(D1-Pad1)*%
X159512000Y-102742000D03*
%TO.P,D1,2,A*%
%TO.N,+5V*%
X159512000Y-99442000D03*
%TD*%
D32*
%TO.P,R3,1*%
%TO.N,+3.3V*%
X155702000Y-115887000D03*
%TO.P,R3,2*%
%TO.N,BUCK_FB*%
X155702000Y-114237000D03*
%TD*%
D33*
%TO.P,R7,1*%
%TO.N,BOOT0*%
X123700000Y-67056000D03*
%TO.P,R7,2*%
%TO.N,Net-(R7-Pad2)*%
X122680000Y-67056000D03*
%TD*%
D22*
%TO.P,H3,1,1*%
%TO.N,GND*%
X180086000Y-123722600D03*
X180086000Y-117272600D03*
X183311000Y-120497600D03*
X177805581Y-122778019D03*
D23*
X180086000Y-120497600D03*
D22*
X177805581Y-118217181D03*
X176861000Y-120497600D03*
X182366419Y-122778019D03*
X182366419Y-118217181D03*
%TD*%
D34*
%TO.P,C1,1*%
%TO.N,BUCK_IN*%
X152195000Y-106172000D03*
%TO.P,C1,2*%
%TO.N,GND*%
X155145000Y-106172000D03*
%TD*%
D33*
%TO.P,R10,1*%
%TO.N,+3.3V*%
X133098000Y-69088000D03*
%TO.P,R10,2*%
%TO.N,I2C1_SCL*%
X132078000Y-69088000D03*
%TD*%
D17*
%TO.P,R9,1*%
%TO.N,GND*%
X120396000Y-85281000D03*
%TO.P,R9,2*%
%TO.N,Net-(D4-Pad1)*%
X120396000Y-86931000D03*
%TD*%
D35*
%TO.P,FB1,1*%
%TO.N,Net-(F1-Pad2)*%
X149098000Y-99775500D03*
%TO.P,FB1,2*%
%TO.N,BUCK_IN*%
X149098000Y-101900500D03*
%TD*%
D36*
%TO.P,J1,1,Pin_1*%
%TO.N,+12V*%
X171204000Y-108418000D03*
D37*
%TO.P,J1,2,Pin_2*%
%TO.N,GND*%
X171204000Y-103418000D03*
%TD*%
D38*
%TO.P,R13,1*%
%TO.N,/WHITE_LED_CATHODE*%
X98335500Y-71882000D03*
%TO.P,R13,2*%
%TO.N,GND*%
X96685500Y-71882000D03*
%TD*%
D11*
%TO.P,J4,1,Pin_1*%
%TO.N,+3.3V*%
X127000000Y-97028000D03*
D12*
%TO.P,J4,2,Pin_2*%
%TO.N,USART3_TX*%
X129540000Y-97028000D03*
%TO.P,J4,3,Pin_3*%
%TO.N,USART3_RX*%
X132080000Y-97028000D03*
%TO.P,J4,4,Pin_4*%
%TO.N,GND*%
X134620000Y-97028000D03*
%TD*%
D39*
%TO.P,C13,1*%
%TO.N,Net-(C13-Pad1)*%
X132829000Y-88138000D03*
%TO.P,C13,2*%
%TO.N,GND*%
X134379000Y-88138000D03*
%TD*%
D40*
%TO.P,U2,1,VBAT*%
%TO.N,+3.3V*%
X123865000Y-75752000D03*
%TO.P,U2,2,PC13*%
%TO.N,unconnected-(U2-Pad2)*%
X123865000Y-76252000D03*
%TO.P,U2,3,PC14*%
%TO.N,unconnected-(U2-Pad3)*%
X123865000Y-76752000D03*
%TO.P,U2,4,PC15*%
%TO.N,unconnected-(U2-Pad4)*%
X123865000Y-77252000D03*
%TO.P,U2,5,PH0*%
%TO.N,HSE_IN*%
X123865000Y-77752000D03*
%TO.P,U2,6,PH1*%
%TO.N,HSE_OUT*%
X123865000Y-78252000D03*
%TO.P,U2,7,NRST*%
%TO.N,NRST*%
X123865000Y-78752000D03*
%TO.P,U2,8,PC0*%
%TO.N,unconnected-(U2-Pad8)*%
X123865000Y-79252000D03*
%TO.P,U2,9,PC1*%
%TO.N,unconnected-(U2-Pad9)*%
X123865000Y-79752000D03*
%TO.P,U2,10,PC2*%
%TO.N,unconnected-(U2-Pad10)*%
X123865000Y-80252000D03*
%TO.P,U2,11,PC3*%
%TO.N,SWITCH*%
X123865000Y-80752000D03*
%TO.P,U2,12,VSSA*%
%TO.N,GND*%
X123865000Y-81252000D03*
%TO.P,U2,13,VDDA*%
%TO.N,+3.3VA*%
X123865000Y-81752000D03*
%TO.P,U2,14,PA0*%
%TO.N,ANALOG_1*%
X123865000Y-82252000D03*
%TO.P,U2,15,PA1*%
%TO.N,ANALOG_2*%
X123865000Y-82752000D03*
%TO.P,U2,16,PA2*%
%TO.N,LED_STATUS*%
X123865000Y-83252000D03*
D41*
%TO.P,U2,17,PA3*%
%TO.N,LED_GREEN*%
X125790000Y-85177000D03*
%TO.P,U2,18,VSS*%
%TO.N,GND*%
X126290000Y-85177000D03*
%TO.P,U2,19,VDD*%
%TO.N,+3.3V*%
X126790000Y-85177000D03*
%TO.P,U2,20,PA4*%
%TO.N,LED_WHITE*%
X127290000Y-85177000D03*
%TO.P,U2,21,PA5*%
%TO.N,BUTTON_1*%
X127790000Y-85177000D03*
%TO.P,U2,22,PA6*%
%TO.N,BUTTON_2*%
X128290000Y-85177000D03*
%TO.P,U2,23,PA7*%
%TO.N,unconnected-(U2-Pad23)*%
X128790000Y-85177000D03*
%TO.P,U2,24,PC4*%
%TO.N,unconnected-(U2-Pad24)*%
X129290000Y-85177000D03*
%TO.P,U2,25,PC5*%
%TO.N,unconnected-(U2-Pad25)*%
X129790000Y-85177000D03*
%TO.P,U2,26,PB0*%
%TO.N,unconnected-(U2-Pad26)*%
X130290000Y-85177000D03*
%TO.P,U2,27,PB1*%
%TO.N,unconnected-(U2-Pad27)*%
X130790000Y-85177000D03*
%TO.P,U2,28,PB2*%
%TO.N,unconnected-(U2-Pad28)*%
X131290000Y-85177000D03*
%TO.P,U2,29,PB10*%
%TO.N,USART3_TX*%
X131790000Y-85177000D03*
%TO.P,U2,30,PB11*%
%TO.N,USART3_RX*%
X132290000Y-85177000D03*
%TO.P,U2,31,VCAP_1*%
%TO.N,Net-(C13-Pad1)*%
X132790000Y-85177000D03*
%TO.P,U2,32,VDD*%
%TO.N,+3.3V*%
X133290000Y-85177000D03*
D40*
%TO.P,U2,33,PB12*%
%TO.N,unconnected-(U2-Pad33)*%
X135215000Y-83252000D03*
%TO.P,U2,34,PB13*%
%TO.N,unconnected-(U2-Pad34)*%
X135215000Y-82752000D03*
%TO.P,U2,35,PB14*%
%TO.N,unconnected-(U2-Pad35)*%
X135215000Y-82252000D03*
%TO.P,U2,36,PB15*%
%TO.N,PWM_2*%
X135215000Y-81752000D03*
%TO.P,U2,37,PC6*%
%TO.N,PWM_1*%
X135215000Y-81252000D03*
%TO.P,U2,38,PC7*%
%TO.N,PIN_4*%
X135215000Y-80752000D03*
%TO.P,U2,39,PC8*%
%TO.N,PIN_5*%
X135215000Y-80252000D03*
%TO.P,U2,40,PC9*%
%TO.N,PIN_6*%
X135215000Y-79752000D03*
%TO.P,U2,41,PA8*%
%TO.N,PIN_1*%
X135215000Y-79252000D03*
%TO.P,U2,42,PA9*%
%TO.N,PIN_2*%
X135215000Y-78752000D03*
%TO.P,U2,43,PA10*%
%TO.N,PIN_3*%
X135215000Y-78252000D03*
%TO.P,U2,44,PA11*%
%TO.N,USB_D-*%
X135215000Y-77752000D03*
%TO.P,U2,45,PA12*%
%TO.N,USB_D+*%
X135215000Y-77252000D03*
%TO.P,U2,46,PA13*%
%TO.N,SWDIO*%
X135215000Y-76752000D03*
%TO.P,U2,47,VCAP_2*%
%TO.N,Net-(C14-Pad1)*%
X135215000Y-76252000D03*
%TO.P,U2,48,VDD*%
%TO.N,+3.3V*%
X135215000Y-75752000D03*
D41*
%TO.P,U2,49,PA14*%
%TO.N,SWCLK*%
X133290000Y-73827000D03*
%TO.P,U2,50,PA15*%
%TO.N,unconnected-(U2-Pad50)*%
X132790000Y-73827000D03*
%TO.P,U2,51,PC10*%
%TO.N,unconnected-(U2-Pad51)*%
X132290000Y-73827000D03*
%TO.P,U2,52,PC11*%
%TO.N,unconnected-(U2-Pad52)*%
X131790000Y-73827000D03*
%TO.P,U2,53,PC12*%
%TO.N,unconnected-(U2-Pad53)*%
X131290000Y-73827000D03*
%TO.P,U2,54,PD2*%
%TO.N,unconnected-(U2-Pad54)*%
X130790000Y-73827000D03*
%TO.P,U2,55,PB3*%
%TO.N,SWO*%
X130290000Y-73827000D03*
%TO.P,U2,56,PB4*%
%TO.N,unconnected-(U2-Pad56)*%
X129790000Y-73827000D03*
%TO.P,U2,57,PB5*%
%TO.N,unconnected-(U2-Pad57)*%
X129290000Y-73827000D03*
%TO.P,U2,58,PB6*%
%TO.N,I2C1_SCL*%
X128790000Y-73827000D03*
%TO.P,U2,59,PB7*%
%TO.N,I2C1_SDA*%
X128290000Y-73827000D03*
%TO.P,U2,60,BOOT0*%
%TO.N,BOOT0*%
X127790000Y-73827000D03*
%TO.P,U2,61,PB8*%
%TO.N,unconnected-(U2-Pad61)*%
X127290000Y-73827000D03*
%TO.P,U2,62,PB9*%
%TO.N,unconnected-(U2-Pad62)*%
X126790000Y-73827000D03*
%TO.P,U2,63,VSS*%
%TO.N,GND*%
X126290000Y-73827000D03*
%TO.P,U2,64,VDD*%
%TO.N,+3.3V*%
X125790000Y-73827000D03*
%TD*%
D42*
%TO.P,J5,1,VBUS*%
%TO.N,+5V*%
X181490000Y-79786000D03*
%TO.P,J5,2,D-*%
%TO.N,USB_CONN_D-*%
X181490000Y-79136000D03*
%TO.P,J5,3,D+*%
%TO.N,USB_CONN_D+*%
X181490000Y-78486000D03*
%TO.P,J5,4,ID*%
%TO.N,unconnected-(J5-Pad4)*%
X181490000Y-77836000D03*
%TO.P,J5,5,GND*%
%TO.N,GND*%
X181490000Y-77186000D03*
D43*
%TO.P,J5,6,Shield*%
%TO.N,unconnected-(J5-Pad6)*%
X184150000Y-76936000D03*
D44*
X181575000Y-80973500D03*
D45*
X184150000Y-81861000D03*
X184150000Y-75111000D03*
D46*
X184150000Y-79636000D03*
D44*
X181575000Y-75998500D03*
%TD*%
D34*
%TO.P,C3,1*%
%TO.N,+3.3V*%
X147115000Y-119888000D03*
%TO.P,C3,2*%
%TO.N,GND*%
X150065000Y-119888000D03*
%TD*%
D38*
%TO.P,R12,1*%
%TO.N,/GREEN_LED_CATHODE*%
X98335500Y-77216000D03*
%TO.P,R12,2*%
%TO.N,GND*%
X96685500Y-77216000D03*
%TD*%
D47*
%TO.P,U1,1,BST*%
%TO.N,BUCK_BST*%
X151704000Y-112135500D03*
%TO.P,U1,2,GND*%
%TO.N,GND*%
X152654000Y-112135500D03*
%TO.P,U1,3,FB*%
%TO.N,BUCK_FB*%
X153604000Y-112135500D03*
%TO.P,U1,4,EN*%
%TO.N,BUCK_EN*%
X153604000Y-109860500D03*
%TO.P,U1,5,IN*%
%TO.N,BUCK_IN*%
X152654000Y-109860500D03*
%TO.P,U1,6,SW*%
%TO.N,BUCK_SW*%
X151704000Y-109860500D03*
%TD*%
D14*
%TO.P,C10,1*%
%TO.N,+3.3V*%
X125758000Y-71628000D03*
%TO.P,C10,2*%
%TO.N,GND*%
X126718000Y-71628000D03*
%TD*%
D15*
%TO.P,SW2,1,A*%
%TO.N,+3.3V*%
X106085200Y-58894800D03*
%TO.P,SW2,2,B*%
%TO.N,Net-(R14-Pad2)*%
X103085200Y-58894800D03*
%TO.P,SW2,3,C*%
%TO.N,GND*%
X101585200Y-58894800D03*
D16*
%TO.P,SW2,4*%
%TO.N,N/C*%
X100235200Y-57954800D03*
%TO.P,SW2,5*%
X100235200Y-55684800D03*
%TO.P,SW2,6*%
X107435200Y-55684800D03*
%TO.P,SW2,7*%
X107435200Y-57954800D03*
%TD*%
D25*
%TO.P,D6,1,K*%
%TO.N,/WHITE_LED_CATHODE*%
X102336500Y-71882000D03*
%TO.P,D6,2,A*%
%TO.N,LED_WHITE*%
X103911500Y-71882000D03*
%TD*%
D29*
%TO.P,C7,1*%
%TO.N,+3.3V*%
X126944000Y-87376000D03*
%TO.P,C7,2*%
%TO.N,GND*%
X125984000Y-87376000D03*
%TD*%
D11*
%TO.P,J3,1,Pin_1*%
%TO.N,I2C1_SDA*%
X134610000Y-61747000D03*
D12*
%TO.P,J3,2,Pin_2*%
%TO.N,I2C1_SCL*%
X132070000Y-61747000D03*
%TO.P,J3,3,Pin_3*%
%TO.N,+3.3V*%
X129530000Y-61747000D03*
%TO.P,J3,4,Pin_4*%
%TO.N,GND*%
X126990000Y-61747000D03*
%TD*%
D48*
%TO.P,U3,1,I/O1*%
%TO.N,USB_CONN_D-*%
X171571500Y-79182000D03*
%TO.P,U3,2,GND*%
%TO.N,GND*%
X171571500Y-78232000D03*
%TO.P,U3,3,I/O2*%
%TO.N,USB_CONN_D+*%
X171571500Y-77282000D03*
%TO.P,U3,4,I/O2*%
%TO.N,USB_D+*%
X169296500Y-77282000D03*
%TO.P,U3,5,VBUS*%
%TO.N,+5V*%
X169296500Y-78232000D03*
%TO.P,U3,6,I/O1*%
%TO.N,USB_D-*%
X169296500Y-79182000D03*
%TD*%
D49*
%TO.P,L2,1*%
%TO.N,+3.3V*%
X118133000Y-82550000D03*
%TO.P,L2,2*%
%TO.N,+3.3VA*%
X119103000Y-82550000D03*
%TD*%
D24*
%TO.P,C4,1*%
%TO.N,BUCK_BST*%
X148844000Y-110757000D03*
%TO.P,C4,2*%
%TO.N,BUCK_SW*%
X148844000Y-109207000D03*
%TD*%
D20*
%TO.P,C6,1*%
%TO.N,+3.3V*%
X121666000Y-75692000D03*
%TO.P,C6,2*%
%TO.N,GND*%
X121666000Y-74732000D03*
%TD*%
D33*
%TO.P,R8,1*%
%TO.N,HSE_OUT*%
X119382000Y-80010000D03*
%TO.P,R8,2*%
%TO.N,Net-(C16-Pad1)*%
X118362000Y-80010000D03*
%TD*%
D22*
%TO.P,H2,1,1*%
%TO.N,GND*%
X94715800Y-60198000D03*
X93771219Y-57917581D03*
X91490800Y-56973000D03*
X89210381Y-57917581D03*
X89210381Y-62478419D03*
D23*
X91490800Y-60198000D03*
D22*
X91490800Y-63423000D03*
X93771219Y-62478419D03*
X88265800Y-60198000D03*
%TD*%
D32*
%TO.P,R6,1*%
%TO.N,GND*%
X171704000Y-92582000D03*
%TO.P,R6,2*%
%TO.N,Net-(D3-Pad1)*%
X171704000Y-90932000D03*
%TD*%
D33*
%TO.P,R11,1*%
%TO.N,+3.3V*%
X130558000Y-69088000D03*
%TO.P,R11,2*%
%TO.N,I2C1_SDA*%
X129538000Y-69088000D03*
%TD*%
D32*
%TO.P,R5,1*%
%TO.N,Net-(R4-Pad2)*%
X161036000Y-115887000D03*
%TO.P,R5,2*%
%TO.N,GND*%
X161036000Y-114237000D03*
%TD*%
D50*
%TO.P,Y1,1,1*%
%TO.N,HSE_IN*%
X114974000Y-77894000D03*
%TO.P,Y1,2,2*%
%TO.N,GND*%
X114974000Y-80094000D03*
%TO.P,Y1,3,3*%
%TO.N,Net-(C16-Pad1)*%
X116674000Y-80094000D03*
%TO.P,Y1,4,4*%
%TO.N,GND*%
X116674000Y-77894000D03*
%TD*%
D32*
%TO.P,R2,1*%
%TO.N,BUCK_EN*%
X158750000Y-111823000D03*
%TO.P,R2,2*%
%TO.N,GND*%
X158750000Y-110173000D03*
%TD*%
D34*
%TO.P,C2,1*%
%TO.N,+3.3V*%
X147115000Y-116332000D03*
%TO.P,C2,2*%
%TO.N,GND*%
X150065000Y-116332000D03*
%TD*%
D17*
%TO.P,R4,1*%
%TO.N,BUCK_FB*%
X158496000Y-114237000D03*
%TO.P,R4,2*%
%TO.N,Net-(R4-Pad2)*%
X158496000Y-115887000D03*
%TD*%
D51*
%TO.N,GND*%
X127000000Y-63601600D03*
X95859600Y-71882000D03*
X113538000Y-61010800D03*
X161036000Y-113411000D03*
X136144000Y-72644000D03*
X154127200Y-106172000D03*
X161925000Y-114173000D03*
X136652000Y-86106000D03*
X180248000Y-77216000D03*
X115316000Y-82804000D03*
X106857800Y-100960800D03*
X121666000Y-70739000D03*
X106984800Y-89530800D03*
X162560000Y-108407200D03*
X156972000Y-60147200D03*
X137287000Y-73914000D03*
X134569200Y-95148400D03*
X95859600Y-77216000D03*
X152654000Y-113233200D03*
X105587800Y-100071800D03*
X151028400Y-120751600D03*
X150329285Y-104686715D03*
X152654000Y-114147600D03*
X134366000Y-89027000D03*
X138811000Y-74676000D03*
X105587800Y-88514800D03*
X120396000Y-84455000D03*
X101523800Y-62128400D03*
X127040500Y-70866000D03*
X135255000Y-88138000D03*
X164592000Y-60147200D03*
X151028400Y-117195600D03*
X125933200Y-88138000D03*
X116281200Y-75438000D03*
X159512000Y-60147200D03*
X172669200Y-78232000D03*
X150241000Y-105791000D03*
X158750000Y-109347000D03*
X121666000Y-74041000D03*
X121666000Y-79883000D03*
X113690400Y-80162400D03*
X150012400Y-76657200D03*
X156260800Y-76708000D03*
X159639000Y-110236000D03*
X120396000Y-79883000D03*
X151028400Y-115519200D03*
X171704000Y-93421200D03*
X119507000Y-85344000D03*
X163271200Y-107848400D03*
X156159200Y-106172000D03*
X180200498Y-76073000D03*
X151028400Y-119126000D03*
X117703600Y-77520800D03*
%TO.N,+3.3V*%
X106095800Y-62280800D03*
X133096000Y-68326000D03*
X118110000Y-81788000D03*
X118110000Y-83312000D03*
X150520400Y-91338400D03*
X129530000Y-63779400D03*
X155143200Y-60553600D03*
X125222000Y-70967600D03*
X155702000Y-116713000D03*
X120904000Y-75692000D03*
X175514000Y-93472000D03*
X134874000Y-86868000D03*
X146177000Y-119888000D03*
X127635000Y-87376000D03*
X123190000Y-70739000D03*
X125069600Y-97891600D03*
X154813000Y-115951000D03*
X140004800Y-112801400D03*
X143916400Y-112877600D03*
X118035200Y-60984000D03*
X130556000Y-68326000D03*
X148082000Y-116586000D03*
X143916400Y-113969800D03*
X148082000Y-119888000D03*
X140004800Y-113969800D03*
X135382000Y-74422000D03*
X146177000Y-116586000D03*
%TO.N,I2C1_SDA*%
X133705600Y-64871600D03*
X130860800Y-65633600D03*
%TO.N,SWITCH*%
X116052600Y-73126600D03*
X125984000Y-80752000D03*
%TO.N,NRST*%
X133235000Y-78752000D03*
%TO.N,ANALOG_1*%
X144272000Y-83693000D03*
%TO.N,ANALOG_2*%
X145034000Y-84709000D03*
%TO.N,LED_GREEN*%
X125730000Y-83501500D03*
X110859000Y-84062000D03*
%TO.N,LED_WHITE*%
X127127000Y-83566000D03*
X106299000Y-77724000D03*
%TO.N,BUTTON_1*%
X129159000Y-86868000D03*
X107873800Y-104770800D03*
%TO.N,BUTTON_2*%
X128905000Y-83501500D03*
X108127800Y-93213800D03*
%TO.N,PWM_2*%
X142494000Y-82550000D03*
X148437600Y-80543400D03*
%TO.N,PWM_1*%
X146939000Y-79756000D03*
X142557500Y-81216500D03*
%TO.N,PIN_4*%
X132842000Y-81026000D03*
%TO.N,PIN_5*%
X131826000Y-80645000D03*
%TO.N,PIN_6*%
X131318000Y-79501500D03*
%TO.N,SWDIO*%
X157988000Y-67056000D03*
%TD*%
D52*
%TO.N,+12V*%
X171204000Y-108418000D02*
X168702500Y-110919500D01*
X168702500Y-110919500D02*
X162306000Y-110919500D01*
D53*
%TO.N,GND*%
X137922000Y-74549000D02*
X137287000Y-73914000D01*
X114905600Y-80162400D02*
X114974000Y-80094000D01*
X151028400Y-115519200D02*
X151028400Y-117195600D01*
X101585200Y-62067000D02*
X101585200Y-58894800D01*
X105567800Y-100960800D02*
X105512800Y-101015800D01*
D54*
X126290000Y-73827000D02*
X126290000Y-72056000D01*
D53*
X116281200Y-76177200D02*
X116304000Y-76200000D01*
D55*
X127040500Y-70866000D02*
X127040500Y-71305500D01*
D53*
X180248000Y-77216000D02*
X180303000Y-77161000D01*
X134569200Y-96977200D02*
X134620000Y-97028000D01*
X120396000Y-85281000D02*
X120396000Y-84455000D01*
X156972000Y-60147200D02*
X156972000Y-61976000D01*
D55*
X127040500Y-71305500D02*
X126718000Y-71628000D01*
D54*
X114974000Y-81672000D02*
X115344000Y-82042000D01*
D52*
X150065000Y-119888000D02*
X150164800Y-119888000D01*
D53*
X117047200Y-77520800D02*
X116674000Y-77894000D01*
X127000000Y-63601600D02*
X127000000Y-61757000D01*
X163271200Y-107848400D02*
X163271200Y-109029300D01*
X134379000Y-88138000D02*
X135255000Y-88138000D01*
X163271200Y-109029300D02*
X163256000Y-109044500D01*
X134379000Y-89014000D02*
X134366000Y-89027000D01*
D55*
X125933200Y-88138000D02*
X125933200Y-87426800D01*
D56*
X180200498Y-76073000D02*
X180200498Y-77168498D01*
X161861000Y-114237000D02*
X161925000Y-114173000D01*
D54*
X122351609Y-81252000D02*
X121673609Y-80574000D01*
D56*
X161036000Y-114237000D02*
X161861000Y-114237000D01*
D53*
X120396000Y-79883000D02*
X121666000Y-79883000D01*
D52*
X150266400Y-119888000D02*
X151028400Y-119126000D01*
D55*
X135862000Y-86106000D02*
X136652000Y-86106000D01*
D53*
X113538000Y-61010800D02*
X113499200Y-60972000D01*
X171704000Y-92582000D02*
X171704000Y-93421200D01*
D55*
X125933200Y-87426800D02*
X125984000Y-87376000D01*
D53*
X180303000Y-77161000D02*
X181490000Y-77161000D01*
D56*
X152654000Y-112135500D02*
X152654000Y-114147600D01*
D53*
X113690400Y-80162400D02*
X114905600Y-80162400D01*
X134569200Y-95148400D02*
X134569200Y-96977200D01*
X138798000Y-74663000D02*
X138811000Y-74676000D01*
X115316000Y-82070000D02*
X115344000Y-82042000D01*
X116281200Y-75438000D02*
X116281200Y-76177200D01*
X150215600Y-116332000D02*
X151028400Y-115519200D01*
D55*
X121666000Y-71615000D02*
X121653000Y-71628000D01*
D52*
X150164800Y-119888000D02*
X151028400Y-120751600D01*
D53*
X137922000Y-74663000D02*
X138798000Y-74663000D01*
X156260800Y-76708000D02*
X154432000Y-76708000D01*
X106984800Y-89530800D02*
X105584800Y-89530800D01*
D56*
X150114000Y-104902000D02*
X150329285Y-104686715D01*
X149478000Y-105028000D02*
X150241000Y-105791000D01*
D53*
X150065000Y-116332000D02*
X150164800Y-116332000D01*
X101523800Y-62128400D02*
X101585200Y-62067000D01*
D54*
X121666000Y-79883000D02*
X121666000Y-80574000D01*
D53*
X171571500Y-78232000D02*
X172669200Y-78232000D01*
X162618700Y-108407200D02*
X163256000Y-109044500D01*
D54*
X126290000Y-72056000D02*
X126718000Y-71628000D01*
X114974000Y-80094000D02*
X114974000Y-81672000D01*
D53*
X162560000Y-108407200D02*
X162618700Y-108407200D01*
X154432000Y-76708000D02*
X154412000Y-76688000D01*
D54*
X116674000Y-76570000D02*
X116304000Y-76200000D01*
D53*
X159576000Y-110173000D02*
X159639000Y-110236000D01*
X95859600Y-71882000D02*
X96685500Y-71882000D01*
D56*
X149478000Y-104902000D02*
X150114000Y-104902000D01*
D53*
X159512000Y-60147200D02*
X159512000Y-61976000D01*
D54*
X121673609Y-80574000D02*
X121666000Y-80574000D01*
D56*
X150329285Y-105702715D02*
X150241000Y-105791000D01*
D53*
X105587800Y-100071800D02*
X105587800Y-100940800D01*
X115316000Y-82804000D02*
X115316000Y-82070000D01*
X105587800Y-100940800D02*
X105512800Y-101015800D01*
X120396000Y-80574000D02*
X120396000Y-79883000D01*
D54*
X123865000Y-81252000D02*
X122351609Y-81252000D01*
X126290000Y-87070000D02*
X125984000Y-87376000D01*
D53*
X113499200Y-60972000D02*
X113499200Y-58894800D01*
X134379000Y-88138000D02*
X134379000Y-89014000D01*
X150065000Y-116332000D02*
X150215600Y-116332000D01*
X106857800Y-100960800D02*
X105567800Y-100960800D01*
X105587800Y-88514800D02*
X105587800Y-89383800D01*
X127000000Y-61757000D02*
X126990000Y-61747000D01*
X164592000Y-60147200D02*
X164592000Y-61976000D01*
X119570000Y-85281000D02*
X119507000Y-85344000D01*
D54*
X116674000Y-77894000D02*
X116674000Y-76570000D01*
D56*
X180200498Y-77168498D02*
X180248000Y-77216000D01*
D53*
X150164800Y-116332000D02*
X151028400Y-117195600D01*
X151841200Y-76657200D02*
X151872000Y-76688000D01*
D52*
X150065000Y-119888000D02*
X150266400Y-119888000D01*
D56*
X158750000Y-109347000D02*
X158750000Y-110173000D01*
D53*
X117703600Y-77520800D02*
X117047200Y-77520800D01*
D55*
X136144000Y-73406000D02*
X136144000Y-72644000D01*
D52*
X99312800Y-101015800D02*
X105512800Y-101015800D01*
D56*
X161036000Y-114237000D02*
X161036000Y-113411000D01*
D53*
X150012400Y-76657200D02*
X151841200Y-76657200D01*
D56*
X149478000Y-104902000D02*
X149478000Y-105028000D01*
D52*
X151028400Y-119126000D02*
X151028400Y-120751600D01*
D54*
X126290000Y-85177000D02*
X126290000Y-87070000D01*
D53*
X137922000Y-74663000D02*
X137922000Y-74549000D01*
X154127200Y-106172000D02*
X156159200Y-106172000D01*
X95859600Y-77216000D02*
X96685500Y-77216000D01*
D55*
X121666000Y-74041000D02*
X121666000Y-74732000D01*
X121666000Y-70739000D02*
X121666000Y-71615000D01*
D56*
X99312800Y-89458800D02*
X105512800Y-89458800D01*
D53*
X158750000Y-110173000D02*
X159576000Y-110173000D01*
D56*
X150329285Y-104686715D02*
X150329285Y-105702715D01*
D53*
X120396000Y-85281000D02*
X119570000Y-85281000D01*
D54*
%TO.N,/WHITE_LED_CATHODE*%
X98335500Y-71882000D02*
X102336500Y-71882000D01*
%TO.N,/GREEN_LED_CATHODE*%
X98335500Y-77216000D02*
X102311000Y-77216000D01*
%TO.N,Net-(D4-Pad1)*%
X120396000Y-86931000D02*
X122390500Y-86931000D01*
X122390500Y-86931000D02*
X122428000Y-86893500D01*
%TO.N,Net-(D3-Pad1)*%
X175514000Y-90932000D02*
X171704000Y-90932000D01*
D56*
%TO.N,Net-(R4-Pad2)*%
X161036000Y-115887000D02*
X158496000Y-115887000D01*
%TO.N,BUCK_FB*%
X155702000Y-114237000D02*
X155702000Y-114233500D01*
X155702000Y-114233500D02*
X153604000Y-112135500D01*
X158496000Y-114237000D02*
X155702000Y-114237000D01*
D53*
%TO.N,+3.3V*%
X118035200Y-58930800D02*
X117999200Y-58894800D01*
D54*
X126790000Y-87222000D02*
X126944000Y-87376000D01*
D56*
X142748000Y-112801400D02*
X143916400Y-113969800D01*
D54*
X123865000Y-75752000D02*
X121726000Y-75752000D01*
D53*
X133098000Y-69088000D02*
X133098000Y-68328000D01*
D54*
X133290000Y-85177000D02*
X133973000Y-85177000D01*
D53*
X129530000Y-63779400D02*
X129530000Y-61747000D01*
D56*
X140004800Y-112801400D02*
X142748000Y-112801400D01*
X143840200Y-112801400D02*
X140004800Y-112801400D01*
D53*
X118133000Y-83289000D02*
X118110000Y-83312000D01*
X118133000Y-82550000D02*
X118133000Y-81811000D01*
X106095800Y-58905400D02*
X106085200Y-58894800D01*
X175514000Y-92507000D02*
X175514000Y-93472000D01*
D52*
X142087600Y-115544600D02*
X142087600Y-114198400D01*
D53*
X118133000Y-81811000D02*
X118110000Y-81788000D01*
X120904000Y-75692000D02*
X121666000Y-75692000D01*
D54*
X125758000Y-71503600D02*
X125758000Y-71628000D01*
D53*
X150520400Y-91338400D02*
X151110000Y-91928000D01*
D52*
X146327600Y-115544600D02*
X147115000Y-116332000D01*
D54*
X125790000Y-73827000D02*
X125790000Y-71660000D01*
D52*
X146431000Y-116332000D02*
X146177000Y-116586000D01*
X147115000Y-116332000D02*
X146431000Y-116332000D01*
D54*
X125758000Y-71628000D02*
X123203000Y-71628000D01*
D53*
X106095800Y-62280800D02*
X106095800Y-58905400D01*
D54*
X136144000Y-74366000D02*
X136144000Y-74823000D01*
X133973000Y-85177000D02*
X134902000Y-86106000D01*
D53*
X118035200Y-60984000D02*
X118035200Y-58930800D01*
D56*
X143916400Y-112877600D02*
X143916400Y-113969800D01*
X154877000Y-115887000D02*
X154813000Y-115951000D01*
D53*
X133098000Y-68328000D02*
X133096000Y-68326000D01*
D54*
X126944000Y-87376000D02*
X127635000Y-87376000D01*
D53*
X130558000Y-68328000D02*
X130556000Y-68326000D01*
D56*
X155702000Y-115887000D02*
X154877000Y-115887000D01*
D54*
X123190000Y-70739000D02*
X123190000Y-71615000D01*
D52*
X147115000Y-119888000D02*
X146177000Y-119888000D01*
X147115000Y-119888000D02*
X148082000Y-119888000D01*
X142087600Y-115544600D02*
X146327600Y-115544600D01*
D53*
X118133000Y-82550000D02*
X118133000Y-83289000D01*
X155143200Y-61264800D02*
X154432000Y-61976000D01*
D54*
X125222000Y-70967600D02*
X125758000Y-71503600D01*
D56*
X141097000Y-112877600D02*
X140004800Y-113969800D01*
D54*
X135438000Y-74366000D02*
X135382000Y-74422000D01*
D52*
X147828000Y-116332000D02*
X148082000Y-116586000D01*
X147115000Y-116332000D02*
X147828000Y-116332000D01*
D54*
X136144000Y-74366000D02*
X135438000Y-74366000D01*
D52*
X147115000Y-116332000D02*
X147115000Y-119888000D01*
D54*
X125790000Y-71660000D02*
X125758000Y-71628000D01*
D53*
X151110000Y-91928000D02*
X151872000Y-91928000D01*
D56*
X140004800Y-113969800D02*
X143916400Y-113969800D01*
D54*
X136144000Y-74823000D02*
X135215000Y-75752000D01*
D53*
X130558000Y-69088000D02*
X130558000Y-68328000D01*
D54*
X134902000Y-86840000D02*
X134874000Y-86868000D01*
D56*
X140004800Y-113969800D02*
X140004800Y-112801400D01*
D53*
X155143200Y-60553600D02*
X155143200Y-61264800D01*
X125069600Y-97891600D02*
X126136400Y-97891600D01*
D54*
X126790000Y-85177000D02*
X126790000Y-87222000D01*
X123190000Y-71615000D02*
X123203000Y-71628000D01*
X134902000Y-86106000D02*
X134902000Y-86840000D01*
D56*
X155702000Y-115887000D02*
X155702000Y-116713000D01*
D53*
X126136400Y-97891600D02*
X127000000Y-97028000D01*
D56*
X143916400Y-112877600D02*
X141097000Y-112877600D01*
D52*
X142087600Y-114198400D02*
X141960600Y-114071400D01*
D54*
X121726000Y-75752000D02*
X121666000Y-75692000D01*
D56*
%TO.N,BUCK_EN*%
X156718000Y-111823000D02*
X155566500Y-111823000D01*
X155566500Y-111823000D02*
X153679000Y-109935500D01*
X158750000Y-111823000D02*
X156718000Y-111823000D01*
X153679000Y-109935500D02*
X153679000Y-109860500D01*
%TO.N,BUCK_IN*%
X156718000Y-110173000D02*
X154544000Y-107999000D01*
D52*
X152195000Y-104997500D02*
X152195000Y-106172000D01*
X149098000Y-101900500D02*
X152195000Y-104997500D01*
X152754000Y-108558000D02*
X152754000Y-108845918D01*
X152754000Y-108845918D02*
X152643959Y-108955959D01*
X152195000Y-106172000D02*
X152195000Y-107999000D01*
X152195000Y-107999000D02*
X152754000Y-108558000D01*
D56*
X154544000Y-107999000D02*
X152195000Y-107999000D01*
D55*
%TO.N,I2C1_SDA*%
X129538000Y-66956400D02*
X130860800Y-65633600D01*
X133705600Y-64871600D02*
X134610000Y-63967200D01*
X128290000Y-70336000D02*
X129538000Y-69088000D01*
X128290000Y-73827000D02*
X128290000Y-70336000D01*
X134610000Y-63967200D02*
X134610000Y-61747000D01*
X129538000Y-69088000D02*
X129538000Y-66956400D01*
%TO.N,I2C1_SCL*%
X128790000Y-73827000D02*
X128790000Y-72376000D01*
X128790000Y-72376000D02*
X132078000Y-69088000D01*
X132070000Y-69080000D02*
X132070000Y-61747000D01*
X132078000Y-69088000D02*
X132070000Y-69080000D01*
D54*
%TO.N,HSE_OUT*%
X119380000Y-78486000D02*
X119380000Y-80008000D01*
X123865000Y-78252000D02*
X119614000Y-78252000D01*
X119614000Y-78252000D02*
X119380000Y-78486000D01*
X119380000Y-80008000D02*
X119382000Y-80010000D01*
%TO.N,Net-(C16-Pad1)*%
X116758000Y-80010000D02*
X116674000Y-80094000D01*
X116674000Y-80094000D02*
X116674000Y-81672000D01*
X116674000Y-81672000D02*
X116304000Y-82042000D01*
X118362000Y-80010000D02*
X116758000Y-80010000D01*
D55*
%TO.N,BOOT0*%
X125349000Y-67056000D02*
X123700000Y-67056000D01*
X127790000Y-69497000D02*
X125349000Y-67056000D01*
X127790000Y-73827000D02*
X127790000Y-69497000D01*
%TO.N,Net-(R7-Pad2)*%
X119481600Y-67056000D02*
X114985800Y-62560200D01*
X122680000Y-67056000D02*
X119481600Y-67056000D01*
X114999200Y-62927800D02*
X114999200Y-58894800D01*
%TO.N,SWITCH*%
X123865000Y-80752000D02*
X125984000Y-80752000D01*
D53*
X116029200Y-73103200D02*
X116052600Y-73126600D01*
X114147600Y-73103200D02*
X116029200Y-73103200D01*
D54*
%TO.N,Net-(R14-Pad2)*%
X114147600Y-72083200D02*
X108430600Y-72083200D01*
X108430600Y-72083200D02*
X103047800Y-66700400D01*
X103085200Y-66663000D02*
X103085200Y-61710000D01*
X103085200Y-62091000D02*
X103085200Y-58894800D01*
X103047800Y-66700400D02*
X103085200Y-66663000D01*
D56*
%TO.N,BUCK_BST*%
X151704000Y-112135500D02*
X150222500Y-112135500D01*
X150222500Y-112135500D02*
X148844000Y-110757000D01*
D52*
%TO.N,BUCK_SW*%
X146178000Y-104902000D02*
X142468600Y-104902000D01*
D56*
X151704000Y-109860500D02*
X149738500Y-109860500D01*
D52*
X142468600Y-104902000D02*
X142417800Y-104952800D01*
D56*
X141960600Y-107467400D02*
X147104400Y-107467400D01*
X147104400Y-107467400D02*
X148844000Y-109207000D01*
X149085000Y-109207000D02*
X148844000Y-109207000D01*
D52*
X142417800Y-104952800D02*
X142417800Y-107416600D01*
D56*
X149738500Y-109860500D02*
X149085000Y-109207000D01*
D57*
%TO.N,USB_CONN_D-*%
X176799200Y-79182000D02*
X176845200Y-79136000D01*
X171571500Y-79182000D02*
X176799200Y-79182000D01*
X176845200Y-79136000D02*
X181582000Y-79136000D01*
%TO.N,USB_CONN_D+*%
X171571500Y-77282000D02*
X175654320Y-77282000D01*
X176858320Y-78486000D02*
X181582000Y-78486000D01*
X175654320Y-77282000D02*
X176858320Y-78486000D01*
%TO.N,USB_D+*%
X150017836Y-73173844D02*
X145921837Y-77269843D01*
X169296500Y-77282000D02*
X168053137Y-77282000D01*
X145921837Y-77269843D02*
X139817765Y-77269843D01*
X139817765Y-77269843D02*
X139391052Y-77696556D01*
X168053137Y-77282000D02*
X163944981Y-73173844D01*
X139391052Y-77696556D02*
X137437775Y-77696556D01*
X163944981Y-73173844D02*
X150017836Y-73173844D01*
X135232843Y-77269843D02*
X135215000Y-77252000D01*
X137011062Y-77269843D02*
X135232843Y-77269843D01*
X137437775Y-77696556D02*
X137011062Y-77269843D01*
D53*
%TO.N,+5V*%
X154412000Y-91928000D02*
X155428000Y-90912000D01*
X179160000Y-79786000D02*
X179185000Y-79811000D01*
X167534000Y-90912000D02*
X178660000Y-79786000D01*
X159512000Y-99442000D02*
X159512000Y-98806000D01*
X167406000Y-90912000D02*
X167534000Y-90912000D01*
X179185000Y-79811000D02*
X181582000Y-79811000D01*
X159512000Y-98806000D02*
X167406000Y-90912000D01*
X155428000Y-90912000D02*
X167534000Y-90912000D01*
X178660000Y-79786000D02*
X179160000Y-79786000D01*
X169296500Y-78232000D02*
X169857528Y-78232000D01*
X170459000Y-82575000D02*
X173165000Y-85281000D01*
X169857528Y-78232000D02*
X170459000Y-78833472D01*
X170459000Y-78833472D02*
X170459000Y-82575000D01*
D57*
%TO.N,USB_D-*%
X136818766Y-77734157D02*
X135232843Y-77734157D01*
X139583369Y-78160849D02*
X137245459Y-78160849D01*
X163752656Y-73638156D02*
X150210164Y-73638156D01*
X169296500Y-79182000D02*
X168977056Y-78862556D01*
X168303444Y-78188944D02*
X163752656Y-73638156D01*
X150210164Y-73638156D02*
X146114163Y-77734157D01*
X168303444Y-78581053D02*
X168303444Y-78188944D01*
X146114163Y-77734157D02*
X140010061Y-77734157D01*
X168977056Y-78862556D02*
X168584947Y-78862556D01*
X137245459Y-78160849D02*
X136818766Y-77734157D01*
X168584947Y-78862556D02*
X168303444Y-78581053D01*
X140010061Y-77734157D02*
X139583369Y-78160849D01*
X135232843Y-77734157D02*
X135215000Y-77752000D01*
D52*
%TO.N,Net-(D1-Pad1)*%
X159512000Y-104394000D02*
X161356000Y-106238000D01*
X161356000Y-106238000D02*
X161356000Y-109044500D01*
X154686000Y-102492000D02*
X159262000Y-102492000D01*
X159512000Y-102742000D02*
X159512000Y-104394000D01*
X159262000Y-102492000D02*
X159512000Y-102742000D01*
D54*
%TO.N,HSE_IN*%
X114974000Y-78652000D02*
X114974000Y-77894000D01*
X114974000Y-77894000D02*
X114974000Y-76570000D01*
X119185000Y-77333000D02*
X117599000Y-78919000D01*
X121993538Y-77333000D02*
X119185000Y-77333000D01*
X114974000Y-76570000D02*
X115344000Y-76200000D01*
X123865000Y-77752000D02*
X122412538Y-77752000D01*
X115241000Y-78919000D02*
X114974000Y-78652000D01*
X122412538Y-77752000D02*
X121993538Y-77333000D01*
X117599000Y-78919000D02*
X115241000Y-78919000D01*
D55*
%TO.N,NRST*%
X133235000Y-78752000D02*
X123865000Y-78752000D01*
D54*
%TO.N,+3.3VA*%
X123865000Y-81752000D02*
X121884000Y-81752000D01*
D55*
X119380000Y-82550000D02*
X120396000Y-81534000D01*
D54*
X121884000Y-81752000D02*
X121666000Y-81534000D01*
D55*
X120396000Y-81534000D02*
X121666000Y-81534000D01*
X119103000Y-82550000D02*
X119380000Y-82550000D01*
%TO.N,ANALOG_1*%
X134406959Y-83820000D02*
X144145000Y-83820000D01*
X144145000Y-83820000D02*
X144272000Y-83693000D01*
X123865000Y-82252000D02*
X132838959Y-82252000D01*
X132838959Y-82252000D02*
X134406959Y-83820000D01*
%TO.N,ANALOG_2*%
X134842853Y-84963000D02*
X144780000Y-84963000D01*
X144780000Y-84963000D02*
X145034000Y-84709000D01*
X132631853Y-82752000D02*
X134842853Y-84963000D01*
X123865000Y-82752000D02*
X132631853Y-82752000D01*
%TO.N,LED_STATUS*%
X123865000Y-83881500D02*
X122428000Y-85318500D01*
X123865000Y-83252000D02*
X123865000Y-83881500D01*
%TO.N,LED_GREEN*%
X110859000Y-84062000D02*
X104013000Y-77216000D01*
X125790000Y-83561500D02*
X125790000Y-85177000D01*
X104013000Y-77216000D02*
X103886000Y-77216000D01*
X125730000Y-83501500D02*
X125790000Y-83561500D01*
%TO.N,LED_WHITE*%
X127290000Y-85177000D02*
X127290000Y-83602000D01*
X106299000Y-77724000D02*
X106299000Y-74269500D01*
X127254000Y-83566000D02*
X127127000Y-83566000D01*
X127290000Y-83602000D02*
X127254000Y-83566000D01*
X106299000Y-74269500D02*
X103911500Y-71882000D01*
%TO.N,BUTTON_1*%
X129159000Y-86868000D02*
X128604959Y-86868000D01*
X107873800Y-104770800D02*
X105567800Y-104770800D01*
X128604959Y-86868000D02*
X127790000Y-86053041D01*
D52*
X99312800Y-104715800D02*
X105512800Y-104715800D01*
D55*
X105567800Y-104770800D02*
X105512800Y-104715800D01*
X127790000Y-86053041D02*
X127790000Y-85177000D01*
%TO.N,BUTTON_2*%
X128290000Y-84116500D02*
X128290000Y-85177000D01*
X105567800Y-93213800D02*
X105512800Y-93158800D01*
D52*
X99312800Y-93158800D02*
X105512800Y-93158800D01*
D55*
X108127800Y-93213800D02*
X105567800Y-93213800D01*
X128905000Y-83501500D02*
X128290000Y-84116500D01*
%TO.N,USART3_TX*%
X131790000Y-85177000D02*
X131790000Y-86142000D01*
X129540000Y-88392000D02*
X129540000Y-97028000D01*
X131790000Y-86142000D02*
X129540000Y-88392000D01*
%TO.N,USART3_RX*%
X131064000Y-96012000D02*
X132080000Y-97028000D01*
X131064000Y-88614827D02*
X131064000Y-96012000D01*
X132290000Y-85177000D02*
X132290000Y-87388827D01*
X132290000Y-87388827D02*
X131064000Y-88614827D01*
D54*
%TO.N,Net-(C13-Pad1)*%
X132790000Y-85177000D02*
X132790000Y-88099000D01*
X132790000Y-88099000D02*
X132829000Y-88138000D01*
D55*
%TO.N,PWM_2*%
X135215000Y-81752000D02*
X141696000Y-81752000D01*
X150862200Y-82968000D02*
X153212000Y-82968000D01*
X141696000Y-81752000D02*
X142494000Y-82550000D01*
X148437600Y-80543400D02*
X150862200Y-82968000D01*
X153212000Y-82968000D02*
X154412000Y-81768000D01*
%TO.N,PWM_1*%
X149860000Y-79756000D02*
X151872000Y-81768000D01*
X142522000Y-81252000D02*
X142557500Y-81216500D01*
X135215000Y-81252000D02*
X142522000Y-81252000D01*
X146939000Y-79756000D02*
X149860000Y-79756000D01*
%TO.N,PIN_4*%
X135215000Y-80752000D02*
X133116000Y-80752000D01*
X133116000Y-80752000D02*
X132842000Y-81026000D01*
%TO.N,PIN_5*%
X135215000Y-80252000D02*
X132219000Y-80252000D01*
X132219000Y-80252000D02*
X132207000Y-80264000D01*
X132207000Y-80264000D02*
X131826000Y-80645000D01*
%TO.N,PIN_6*%
X131568500Y-79752000D02*
X135215000Y-79752000D01*
X131318000Y-79501500D02*
X131568500Y-79752000D01*
%TO.N,PIN_1*%
X136242788Y-79252000D02*
X137254788Y-80264000D01*
X135215000Y-79252000D02*
X136242788Y-79252000D01*
X137254788Y-80264000D02*
X142748000Y-80264000D01*
X142748000Y-80264000D02*
X151872000Y-89388000D01*
%TO.N,PIN_2*%
X143383000Y-79375000D02*
X149733000Y-85725000D01*
X135215000Y-78752000D02*
X136449894Y-78752000D01*
X153212000Y-88188000D02*
X154412000Y-89388000D01*
X151514943Y-88188000D02*
X153212000Y-88188000D01*
X149733000Y-86406057D02*
X151514943Y-88188000D01*
X149733000Y-85725000D02*
X149733000Y-86406057D01*
X137072894Y-79375000D02*
X143383000Y-79375000D01*
X136449894Y-78752000D02*
X137072894Y-79375000D01*
%TO.N,PIN_3*%
X137145000Y-78740000D02*
X143764000Y-78740000D01*
X135215000Y-78252000D02*
X136657000Y-78252000D01*
X136657000Y-78252000D02*
X137145000Y-78740000D01*
X143764000Y-78740000D02*
X151872000Y-86848000D01*
%TO.N,SWDIO*%
X139192000Y-77216000D02*
X140462000Y-75946000D01*
X137636827Y-77216000D02*
X139192000Y-77216000D01*
X152858712Y-72693288D02*
X157988000Y-67564000D01*
X140869912Y-72693288D02*
X152858712Y-72693288D01*
X140462000Y-73101200D02*
X140869912Y-72693288D01*
X140462000Y-75946000D02*
X140462000Y-73101200D01*
X137172827Y-76752000D02*
X137636827Y-77216000D01*
X157988000Y-67564000D02*
X157988000Y-67056000D01*
X135215000Y-76752000D02*
X137172827Y-76752000D01*
D54*
%TO.N,Net-(C14-Pad1)*%
X137883000Y-76252000D02*
X137922000Y-76213000D01*
X135215000Y-76252000D02*
X137883000Y-76252000D01*
D55*
%TO.N,SWCLK*%
X133290000Y-73827000D02*
X135743000Y-71374000D01*
X156972000Y-66802000D02*
X156972000Y-64516000D01*
X152400000Y-71374000D02*
X156972000Y-66802000D01*
X135743000Y-71374000D02*
X152400000Y-71374000D01*
%TO.N,SWO*%
X133718000Y-69736000D02*
X145656000Y-69736000D01*
X152146000Y-63246000D02*
X158242000Y-63246000D01*
X130290000Y-73827000D02*
X130290000Y-72950959D01*
X131612959Y-71628000D02*
X131826000Y-71628000D01*
X130290000Y-72950959D02*
X131612959Y-71628000D01*
X158242000Y-63246000D02*
X159512000Y-64516000D01*
X145656000Y-69736000D02*
X152146000Y-63246000D01*
X131826000Y-71628000D02*
X133718000Y-69736000D01*
D53*
%TO.N,unconnected-(J5-Pad6)*%
X184150000Y-79636000D02*
X184150000Y-76936000D01*
X181575000Y-75998500D02*
X183262500Y-75998500D01*
X184150000Y-81861000D02*
X184150000Y-79636000D01*
X181575000Y-80973500D02*
X183262500Y-80973500D01*
X184150000Y-75111000D02*
X184150000Y-76936000D01*
X183262500Y-75998500D02*
X184150000Y-75111000D01*
X183262500Y-80973500D02*
X184150000Y-81861000D01*
D52*
%TO.N,Net-(F1-Pad2)*%
X154602500Y-99775500D02*
X154686000Y-99692000D01*
X149098000Y-99775500D02*
X154602500Y-99775500D01*
%TD*%
M02*
