%TF.GenerationSoftware,KiCad,Pcbnew,(6.0.9)*%
%TF.CreationDate,2022-12-02T11:09:33-06:00*%
%TF.ProjectId,First_stm32,46697273-745f-4737-946d-33322e6b6963,rev?*%
%TF.SameCoordinates,Original*%
%TF.FileFunction,Copper,L2,Inr*%
%TF.FilePolarity,Positive*%
%FSLAX46Y46*%
G04 Gerber Fmt 4.6, Leading zero omitted, Abs format (unit mm)*
G04 Created by KiCad (PCBNEW (6.0.9)) date 2022-12-02 11:09:33*
%MOMM*%
%LPD*%
G01*
G04 APERTURE LIST*
%TA.AperFunction,ComponentPad*%
%ADD10R,1.700000X1.700000*%
%TD*%
%TA.AperFunction,ComponentPad*%
%ADD11O,1.700000X1.700000*%
%TD*%
%TA.AperFunction,ComponentPad*%
%ADD12C,0.900000*%
%TD*%
%TA.AperFunction,ComponentPad*%
%ADD13C,8.600000*%
%TD*%
%TA.AperFunction,ComponentPad*%
%ADD14R,2.600000X2.600000*%
%TD*%
%TA.AperFunction,ComponentPad*%
%ADD15C,2.600000*%
%TD*%
%TA.AperFunction,ViaPad*%
%ADD16C,0.800000*%
%TD*%
G04 APERTURE END LIST*
D10*
%TO.N,+3.3V*%
%TO.C,J2*%
X154432000Y-61976000D03*
D11*
%TO.N,SWDIO*%
X154432000Y-64516000D03*
%TO.N,GND*%
X156972000Y-61976000D03*
%TO.N,SWCLK*%
X156972000Y-64516000D03*
%TO.N,GND*%
X159512000Y-61976000D03*
%TO.N,SWO*%
X159512000Y-64516000D03*
%TO.N,unconnected-(J2-Pad7)*%
X162052000Y-61976000D03*
%TO.N,unconnected-(J2-Pad8)*%
X162052000Y-64516000D03*
%TO.N,GND*%
X164592000Y-61976000D03*
%TO.N,NRST*%
X164592000Y-64516000D03*
%TD*%
D12*
%TO.N,GND*%
%TO.C,H1*%
X177805581Y-62478419D03*
X176861000Y-60198000D03*
X182366419Y-62478419D03*
X182366419Y-57917581D03*
X180086000Y-63423000D03*
X183311000Y-60198000D03*
X180086000Y-56973000D03*
X177805581Y-57917581D03*
D13*
X180086000Y-60198000D03*
%TD*%
D10*
%TO.N,+3.3V*%
%TO.C,J6*%
X151872000Y-91928000D03*
D11*
%TO.N,+5V*%
X154412000Y-91928000D03*
%TO.N,PIN_1*%
X151872000Y-89388000D03*
%TO.N,PIN_2*%
X154412000Y-89388000D03*
%TO.N,PIN_3*%
X151872000Y-86848000D03*
%TO.N,PIN_4*%
X154412000Y-86848000D03*
%TO.N,PIN_5*%
X151872000Y-84308000D03*
%TO.N,PIN_6*%
X154412000Y-84308000D03*
%TO.N,PWM_1*%
X151872000Y-81768000D03*
%TO.N,PWM_2*%
X154412000Y-81768000D03*
%TO.N,ANALOG_1*%
X151872000Y-79228000D03*
%TO.N,ANALOG_2*%
X154412000Y-79228000D03*
%TO.N,GND*%
X151872000Y-76688000D03*
X154412000Y-76688000D03*
%TD*%
D12*
%TO.N,GND*%
%TO.C,H4*%
X93771219Y-122778019D03*
X94715800Y-120497600D03*
X88265800Y-120497600D03*
X89210381Y-118217181D03*
D13*
X91490800Y-120497600D03*
D12*
X93771219Y-118217181D03*
X91490800Y-123722600D03*
X91490800Y-117272600D03*
X89210381Y-122778019D03*
%TD*%
%TO.N,GND*%
%TO.C,H3*%
X180086000Y-123722600D03*
X180086000Y-117272600D03*
X183311000Y-120497600D03*
X177805581Y-122778019D03*
D13*
X180086000Y-120497600D03*
D12*
X177805581Y-118217181D03*
X176861000Y-120497600D03*
X182366419Y-122778019D03*
X182366419Y-118217181D03*
%TD*%
D14*
%TO.N,+12V*%
%TO.C,J1*%
X171204000Y-108418000D03*
D15*
%TO.N,GND*%
X171204000Y-103418000D03*
%TD*%
D10*
%TO.N,+3.3V*%
%TO.C,J4*%
X127000000Y-97028000D03*
D11*
%TO.N,USART3_TX*%
X129540000Y-97028000D03*
%TO.N,USART3_RX*%
X132080000Y-97028000D03*
%TO.N,GND*%
X134620000Y-97028000D03*
%TD*%
D10*
%TO.N,I2C1_SDA*%
%TO.C,J3*%
X134610000Y-61747000D03*
D11*
%TO.N,I2C1_SCL*%
X132070000Y-61747000D03*
%TO.N,+3.3V*%
X129530000Y-61747000D03*
%TO.N,GND*%
X126990000Y-61747000D03*
%TD*%
D12*
%TO.N,GND*%
%TO.C,H2*%
X94715800Y-60198000D03*
X93771219Y-57917581D03*
X91490800Y-56973000D03*
X89210381Y-57917581D03*
X89210381Y-62478419D03*
D13*
X91490800Y-60198000D03*
D12*
X91490800Y-63423000D03*
X93771219Y-62478419D03*
X88265800Y-60198000D03*
%TD*%
D16*
%TO.N,GND*%
X127000000Y-63601600D03*
X95859600Y-71882000D03*
X113538000Y-61010800D03*
X161036000Y-113411000D03*
X136144000Y-72644000D03*
X154127200Y-106172000D03*
X161925000Y-114173000D03*
X136652000Y-86106000D03*
X180248000Y-77216000D03*
X115316000Y-82804000D03*
X106857800Y-100960800D03*
X121666000Y-70739000D03*
X106984800Y-89530800D03*
X162560000Y-108407200D03*
X156972000Y-60147200D03*
X137287000Y-73914000D03*
X134569200Y-95148400D03*
X95859600Y-77216000D03*
X152654000Y-113233200D03*
X105587800Y-100071800D03*
X151028400Y-120751600D03*
X150329285Y-104686715D03*
X152654000Y-114147600D03*
X134366000Y-89027000D03*
X138811000Y-74676000D03*
X105587800Y-88514800D03*
X120396000Y-84455000D03*
X101523800Y-62128400D03*
X127040500Y-70866000D03*
X135255000Y-88138000D03*
X164592000Y-60147200D03*
X151028400Y-117195600D03*
X125933200Y-88138000D03*
X116281200Y-75438000D03*
X159512000Y-60147200D03*
X172669200Y-78232000D03*
X150241000Y-105791000D03*
X158750000Y-109347000D03*
X121666000Y-74041000D03*
X121666000Y-79883000D03*
X113690400Y-80162400D03*
X150012400Y-76657200D03*
X156260800Y-76708000D03*
X159639000Y-110236000D03*
X120396000Y-79883000D03*
X151028400Y-115519200D03*
X171704000Y-93421200D03*
X119507000Y-85344000D03*
X163271200Y-107848400D03*
X156159200Y-106172000D03*
X180200498Y-76073000D03*
X151028400Y-119126000D03*
X117703600Y-77520800D03*
%TO.N,+3.3V*%
X106095800Y-62280800D03*
X133096000Y-68326000D03*
X118110000Y-81788000D03*
X118110000Y-83312000D03*
X150520400Y-91338400D03*
X129530000Y-63779400D03*
X155143200Y-60553600D03*
X125222000Y-70967600D03*
X155702000Y-116713000D03*
X120904000Y-75692000D03*
X175514000Y-93472000D03*
X134874000Y-86868000D03*
X146177000Y-119888000D03*
X127635000Y-87376000D03*
X123190000Y-70739000D03*
X125069600Y-97891600D03*
X154813000Y-115951000D03*
X140004800Y-112801400D03*
X143916400Y-112877600D03*
X118035200Y-60984000D03*
X130556000Y-68326000D03*
X148082000Y-116586000D03*
X143916400Y-113969800D03*
X148082000Y-119888000D03*
X140004800Y-113969800D03*
X135382000Y-74422000D03*
X146177000Y-116586000D03*
%TO.N,I2C1_SDA*%
X133705600Y-64871600D03*
X130860800Y-65633600D03*
%TO.N,SWITCH*%
X116052600Y-73126600D03*
X125984000Y-80752000D03*
%TO.N,NRST*%
X133235000Y-78752000D03*
%TO.N,ANALOG_1*%
X144272000Y-83693000D03*
%TO.N,ANALOG_2*%
X145034000Y-84709000D03*
%TO.N,LED_GREEN*%
X125730000Y-83501500D03*
X110859000Y-84062000D03*
%TO.N,LED_WHITE*%
X127127000Y-83566000D03*
X106299000Y-77724000D03*
%TO.N,BUTTON_1*%
X129159000Y-86868000D03*
X107873800Y-104770800D03*
%TO.N,BUTTON_2*%
X128905000Y-83501500D03*
X108127800Y-93213800D03*
%TO.N,PWM_2*%
X142494000Y-82550000D03*
X148437600Y-80543400D03*
%TO.N,PWM_1*%
X146939000Y-79756000D03*
X142557500Y-81216500D03*
%TO.N,PIN_4*%
X132842000Y-81026000D03*
%TO.N,PIN_5*%
X131826000Y-80645000D03*
%TO.N,PIN_6*%
X131318000Y-79501500D03*
%TO.N,SWDIO*%
X157988000Y-67056000D03*
%TD*%
%TA.AperFunction,Conductor*%
%TO.N,GND*%
G36*
X180056018Y-55120000D02*
G01*
X180070851Y-55122310D01*
X180070855Y-55122310D01*
X180079724Y-55123691D01*
X180100664Y-55120953D01*
X180122202Y-55119997D01*
X180295399Y-55127161D01*
X180500256Y-55135634D01*
X180510634Y-55136494D01*
X180713760Y-55161814D01*
X180916893Y-55187134D01*
X180927150Y-55188846D01*
X181060796Y-55216868D01*
X181327839Y-55272861D01*
X181337934Y-55275417D01*
X181730321Y-55392236D01*
X181740163Y-55395614D01*
X182121583Y-55544445D01*
X182131082Y-55548612D01*
X182498887Y-55728421D01*
X182508046Y-55733377D01*
X182859748Y-55942947D01*
X182868466Y-55948643D01*
X183201656Y-56186536D01*
X183209873Y-56192932D01*
X183522279Y-56457525D01*
X183529941Y-56464579D01*
X183819421Y-56754059D01*
X183826475Y-56761721D01*
X184091068Y-57074127D01*
X184097464Y-57082344D01*
X184335357Y-57415534D01*
X184341053Y-57424252D01*
X184550623Y-57775954D01*
X184555577Y-57785110D01*
X184723500Y-58128599D01*
X184735384Y-58152909D01*
X184739555Y-58162417D01*
X184878232Y-58517815D01*
X184888383Y-58543829D01*
X184891764Y-58553679D01*
X185008583Y-58946066D01*
X185011139Y-58956161D01*
X185033512Y-59062862D01*
X185093404Y-59348499D01*
X185095153Y-59356842D01*
X185096866Y-59367107D01*
X185118314Y-59539170D01*
X185147506Y-59773366D01*
X185148366Y-59783744D01*
X185152333Y-59879645D01*
X185163526Y-60150270D01*
X185163694Y-60154335D01*
X185162302Y-60178920D01*
X185160309Y-60191724D01*
X185161473Y-60200626D01*
X185161473Y-60200628D01*
X185164436Y-60223283D01*
X185165500Y-60239621D01*
X185165500Y-120493206D01*
X185163623Y-120514871D01*
X185160511Y-120532701D01*
X185161511Y-120541620D01*
X185161511Y-120541625D01*
X185162869Y-120553735D01*
X185163432Y-120575258D01*
X185157483Y-120675237D01*
X185141394Y-120945629D01*
X185141349Y-120946379D01*
X185140311Y-120956670D01*
X185083451Y-121355496D01*
X185081571Y-121365668D01*
X185052685Y-121492584D01*
X185023274Y-121621803D01*
X185012304Y-121641442D01*
X185014002Y-121647002D01*
X185010867Y-121676315D01*
X184992167Y-121758476D01*
X184989457Y-121768466D01*
X184947740Y-121900529D01*
X184908148Y-121959461D01*
X184842980Y-121987633D01*
X184772926Y-121976100D01*
X184720229Y-121928524D01*
X184701618Y-121860010D01*
X184706323Y-121828375D01*
X184766740Y-121614151D01*
X184774663Y-121601527D01*
X184776586Y-121570554D01*
X184850315Y-121178483D01*
X184851102Y-121172946D01*
X184892035Y-120751702D01*
X184892308Y-120747265D01*
X184898788Y-120499833D01*
X184898746Y-120495362D01*
X184879917Y-120072573D01*
X184879419Y-120066986D01*
X184823155Y-119648099D01*
X184822162Y-119642576D01*
X184728883Y-119230348D01*
X184727410Y-119224961D01*
X184597847Y-118822625D01*
X184595910Y-118817415D01*
X184431098Y-118428199D01*
X184428683Y-118423136D01*
X184229936Y-118050135D01*
X184227085Y-118045313D01*
X183995974Y-117691465D01*
X183992692Y-117686897D01*
X183731030Y-117354980D01*
X183727382Y-117350755D01*
X183674103Y-117294315D01*
X183660389Y-117286305D01*
X183659517Y-117286342D01*
X183651438Y-117291372D01*
X183251717Y-117691093D01*
X182366419Y-118576390D01*
X181840332Y-119102478D01*
X177805581Y-123137229D01*
X177279494Y-123663317D01*
X176882734Y-124060077D01*
X176875122Y-124074018D01*
X176875171Y-124074710D01*
X176880617Y-124082874D01*
X176958268Y-124155412D01*
X176962507Y-124159033D01*
X177295802Y-124418963D01*
X177300359Y-124422202D01*
X177655448Y-124651480D01*
X177660250Y-124654286D01*
X178034316Y-124851091D01*
X178039374Y-124853471D01*
X178429435Y-125016238D01*
X178434690Y-125018161D01*
X178837676Y-125145608D01*
X178843075Y-125147055D01*
X179205968Y-125227174D01*
X179268175Y-125261392D01*
X179302007Y-125323809D01*
X179296723Y-125394608D01*
X179254001Y-125451312D01*
X179187404Y-125475917D01*
X179178804Y-125476211D01*
X92406630Y-125476211D01*
X92338509Y-125456209D01*
X92292016Y-125402553D01*
X92281912Y-125332279D01*
X92311406Y-125267699D01*
X92371132Y-125229315D01*
X92378179Y-125227465D01*
X92782343Y-125133785D01*
X92787729Y-125132281D01*
X93189367Y-125000618D01*
X93194584Y-124998646D01*
X93582926Y-124831802D01*
X93587969Y-124829364D01*
X93959931Y-124628663D01*
X93964735Y-124625788D01*
X94317363Y-124392831D01*
X94321926Y-124389516D01*
X94652458Y-124126129D01*
X94656673Y-124122452D01*
X94694623Y-124086249D01*
X94702563Y-124072490D01*
X94702513Y-124071443D01*
X94697622Y-124063632D01*
X94297307Y-123663317D01*
X93412010Y-122778019D01*
X92885922Y-122251932D01*
X91132722Y-120498732D01*
X91855208Y-120498732D01*
X91855339Y-120500565D01*
X91859590Y-120507180D01*
X93245131Y-121892721D01*
X93761421Y-122409012D01*
X93771218Y-122418809D01*
X94656516Y-123304106D01*
X95052942Y-123700532D01*
X95066703Y-123708046D01*
X95076063Y-123701589D01*
X95245044Y-123508903D01*
X95248544Y-123504535D01*
X95497873Y-123163245D01*
X95500968Y-123158587D01*
X95718960Y-122796503D01*
X95721641Y-122791564D01*
X95906579Y-122411546D01*
X95908814Y-122406380D01*
X96059242Y-122011415D01*
X96061001Y-122006096D01*
X96175720Y-121599330D01*
X96177004Y-121593859D01*
X96255115Y-121178483D01*
X96255902Y-121172946D01*
X96296835Y-120751702D01*
X96297108Y-120747265D01*
X96303588Y-120499833D01*
X96303546Y-120495362D01*
X96284717Y-120072573D01*
X96284219Y-120066986D01*
X96260178Y-119888000D01*
X145263496Y-119888000D01*
X145283458Y-120077928D01*
X145342473Y-120259556D01*
X145437960Y-120424944D01*
X145442378Y-120429851D01*
X145442379Y-120429852D01*
X145557606Y-120557825D01*
X145565747Y-120566866D01*
X145720248Y-120679118D01*
X145726276Y-120681802D01*
X145726278Y-120681803D01*
X145870771Y-120746135D01*
X145894712Y-120756794D01*
X145988113Y-120776647D01*
X146075056Y-120795128D01*
X146075061Y-120795128D01*
X146081513Y-120796500D01*
X146272487Y-120796500D01*
X146278939Y-120795128D01*
X146278944Y-120795128D01*
X146365887Y-120776647D01*
X146459288Y-120756794D01*
X146483229Y-120746135D01*
X146627722Y-120681803D01*
X146627724Y-120681802D01*
X146633752Y-120679118D01*
X146788253Y-120566866D01*
X146796394Y-120557825D01*
X146911621Y-120429852D01*
X146911622Y-120429851D01*
X146916040Y-120424944D01*
X147011527Y-120259556D01*
X147013567Y-120253277D01*
X147014394Y-120251420D01*
X147060374Y-120197325D01*
X147128301Y-120176676D01*
X147196609Y-120196029D01*
X147244606Y-120251420D01*
X147245433Y-120253277D01*
X147247473Y-120259556D01*
X147342960Y-120424944D01*
X147347378Y-120429851D01*
X147347379Y-120429852D01*
X147462606Y-120557825D01*
X147470747Y-120566866D01*
X147625248Y-120679118D01*
X147631276Y-120681802D01*
X147631278Y-120681803D01*
X147775771Y-120746135D01*
X147799712Y-120756794D01*
X147893113Y-120776647D01*
X147980056Y-120795128D01*
X147980061Y-120795128D01*
X147986513Y-120796500D01*
X148177487Y-120796500D01*
X148183939Y-120795128D01*
X148183944Y-120795128D01*
X148270887Y-120776647D01*
X148364288Y-120756794D01*
X148388229Y-120746135D01*
X148532722Y-120681803D01*
X148532724Y-120681802D01*
X148538752Y-120679118D01*
X148693253Y-120566866D01*
X148701394Y-120557825D01*
X148781292Y-120469089D01*
X172393227Y-120469089D01*
X172395096Y-120497600D01*
X172406263Y-120667980D01*
X172407684Y-120673576D01*
X172407685Y-120673581D01*
X172438555Y-120795128D01*
X172455326Y-120861164D01*
X172457743Y-120866407D01*
X172496994Y-120951549D01*
X172538772Y-121042173D01*
X172653807Y-121204944D01*
X172796578Y-121344025D01*
X172962304Y-121454760D01*
X172967607Y-121457038D01*
X172967610Y-121457040D01*
X173061335Y-121497307D01*
X173145435Y-121533439D01*
X173217516Y-121549749D01*
X173334201Y-121576153D01*
X173334207Y-121576154D01*
X173339838Y-121577428D01*
X173345609Y-121577655D01*
X173345611Y-121577655D01*
X173406556Y-121580049D01*
X173539001Y-121585253D01*
X173640380Y-121570554D01*
X173730535Y-121557483D01*
X173730540Y-121557482D01*
X173736256Y-121556653D01*
X173741728Y-121554795D01*
X173741730Y-121554795D01*
X173919532Y-121494439D01*
X173919534Y-121494438D01*
X173924996Y-121492584D01*
X174098899Y-121395194D01*
X174252143Y-121267743D01*
X174379594Y-121114499D01*
X174476984Y-120940596D01*
X174505135Y-120857668D01*
X174539195Y-120757330D01*
X174539195Y-120757328D01*
X174541053Y-120751856D01*
X174541882Y-120746140D01*
X174541883Y-120746135D01*
X174566658Y-120575258D01*
X174569653Y-120554601D01*
X174571146Y-120497600D01*
X174559828Y-120374425D01*
X175274855Y-120374425D01*
X175282600Y-120797010D01*
X175282950Y-120802576D01*
X175328231Y-121222808D01*
X175329078Y-121228346D01*
X175411535Y-121642886D01*
X175412864Y-121648298D01*
X175531852Y-122053889D01*
X175533658Y-122059164D01*
X175688219Y-122452548D01*
X175690501Y-122457672D01*
X175879416Y-122835750D01*
X175882140Y-122840643D01*
X176103917Y-123200433D01*
X176107068Y-123205069D01*
X176359955Y-123543727D01*
X176363488Y-123548044D01*
X176499222Y-123699588D01*
X176512717Y-123707951D01*
X176522128Y-123702262D01*
X176920283Y-123304107D01*
X177805581Y-122418810D01*
X177815378Y-122409013D01*
X178331668Y-121892722D01*
X179713978Y-120510412D01*
X179721592Y-120496468D01*
X179721461Y-120494635D01*
X179717210Y-120488020D01*
X178331669Y-119102479D01*
X177446372Y-118217181D01*
X176920284Y-117691094D01*
X176521561Y-117292371D01*
X176508253Y-117285104D01*
X176498214Y-117292226D01*
X176254223Y-117585594D01*
X176250828Y-117590067D01*
X176010528Y-117937752D01*
X176007549Y-117942502D01*
X175799106Y-118310175D01*
X175796562Y-118315168D01*
X175621629Y-118699912D01*
X175619538Y-118705111D01*
X175479498Y-119103890D01*
X175477877Y-119109259D01*
X175373840Y-119518903D01*
X175372706Y-119524376D01*
X175305496Y-119941654D01*
X175304851Y-119947232D01*
X175275002Y-120368804D01*
X175274855Y-120374425D01*
X174559828Y-120374425D01*
X174552908Y-120299119D01*
X174539978Y-120253271D01*
X174500373Y-120112844D01*
X174500372Y-120112842D01*
X174498805Y-120107285D01*
X174485746Y-120080802D01*
X174413205Y-119933704D01*
X174410650Y-119928523D01*
X174291393Y-119768819D01*
X174145030Y-119633522D01*
X174140147Y-119630441D01*
X174140143Y-119630438D01*
X173981346Y-119530245D01*
X173981341Y-119530243D01*
X173976462Y-119527164D01*
X173791334Y-119453305D01*
X173595847Y-119414420D01*
X173590072Y-119414344D01*
X173590068Y-119414344D01*
X173490588Y-119413042D01*
X173396547Y-119411811D01*
X173390850Y-119412790D01*
X173390849Y-119412790D01*
X173374805Y-119415547D01*
X173200108Y-119445566D01*
X173013111Y-119514553D01*
X173008149Y-119517505D01*
X172870623Y-119599324D01*
X172841816Y-119616462D01*
X172691961Y-119747881D01*
X172568565Y-119904409D01*
X172565876Y-119909520D01*
X172565874Y-119909523D01*
X172515401Y-120005457D01*
X172475760Y-120080802D01*
X172445990Y-120176676D01*
X172418480Y-120265274D01*
X172416654Y-120271154D01*
X172393227Y-120469089D01*
X148781292Y-120469089D01*
X148816621Y-120429852D01*
X148816622Y-120429851D01*
X148821040Y-120424944D01*
X148916527Y-120259556D01*
X148975542Y-120077928D01*
X148995504Y-119888000D01*
X148975542Y-119698072D01*
X148916527Y-119516444D01*
X148821040Y-119351056D01*
X148693253Y-119209134D01*
X148594157Y-119137136D01*
X148544094Y-119100763D01*
X148544093Y-119100762D01*
X148538752Y-119096882D01*
X148532724Y-119094198D01*
X148532722Y-119094197D01*
X148370319Y-119021891D01*
X148370318Y-119021891D01*
X148364288Y-119019206D01*
X148270888Y-118999353D01*
X148183944Y-118980872D01*
X148183939Y-118980872D01*
X148177487Y-118979500D01*
X147986513Y-118979500D01*
X147980061Y-118980872D01*
X147980056Y-118980872D01*
X147893112Y-118999353D01*
X147799712Y-119019206D01*
X147793682Y-119021891D01*
X147793681Y-119021891D01*
X147631278Y-119094197D01*
X147631276Y-119094198D01*
X147625248Y-119096882D01*
X147619907Y-119100762D01*
X147619906Y-119100763D01*
X147569843Y-119137136D01*
X147470747Y-119209134D01*
X147342960Y-119351056D01*
X147339659Y-119356774D01*
X147288395Y-119445566D01*
X147247473Y-119516444D01*
X147245433Y-119522723D01*
X147244606Y-119524580D01*
X147198626Y-119578675D01*
X147130699Y-119599324D01*
X147062391Y-119579971D01*
X147014394Y-119524580D01*
X147013567Y-119522723D01*
X147011527Y-119516444D01*
X146970606Y-119445566D01*
X146919341Y-119356774D01*
X146916040Y-119351056D01*
X146788253Y-119209134D01*
X146689157Y-119137136D01*
X146639094Y-119100763D01*
X146639093Y-119100762D01*
X146633752Y-119096882D01*
X146627724Y-119094198D01*
X146627722Y-119094197D01*
X146465319Y-119021891D01*
X146465318Y-119021891D01*
X146459288Y-119019206D01*
X146365888Y-118999353D01*
X146278944Y-118980872D01*
X146278939Y-118980872D01*
X146272487Y-118979500D01*
X146081513Y-118979500D01*
X146075061Y-118980872D01*
X146075056Y-118980872D01*
X145988112Y-118999353D01*
X145894712Y-119019206D01*
X145888682Y-119021891D01*
X145888681Y-119021891D01*
X145726278Y-119094197D01*
X145726276Y-119094198D01*
X145720248Y-119096882D01*
X145714907Y-119100762D01*
X145714906Y-119100763D01*
X145664843Y-119137136D01*
X145565747Y-119209134D01*
X145437960Y-119351056D01*
X145342473Y-119516444D01*
X145283458Y-119698072D01*
X145263496Y-119888000D01*
X96260178Y-119888000D01*
X96227955Y-119648099D01*
X96226962Y-119642576D01*
X96133683Y-119230348D01*
X96132210Y-119224961D01*
X96002647Y-118822625D01*
X96000710Y-118817415D01*
X95835898Y-118428199D01*
X95833483Y-118423136D01*
X95634736Y-118050135D01*
X95631885Y-118045313D01*
X95400774Y-117691465D01*
X95397492Y-117686897D01*
X95135830Y-117354980D01*
X95132182Y-117350755D01*
X95078903Y-117294315D01*
X95065189Y-117286305D01*
X95064317Y-117286342D01*
X95056238Y-117291372D01*
X94656517Y-117691093D01*
X93771219Y-118576390D01*
X93245132Y-119102478D01*
X91862822Y-120484788D01*
X91855208Y-120498732D01*
X91132722Y-120498732D01*
X89736469Y-119102479D01*
X88851172Y-118217181D01*
X88325084Y-117691094D01*
X87926361Y-117292371D01*
X87913053Y-117285104D01*
X87903014Y-117292226D01*
X87659023Y-117585594D01*
X87655628Y-117590067D01*
X87415328Y-117937752D01*
X87412349Y-117942502D01*
X87203906Y-118310175D01*
X87201362Y-118315168D01*
X87026429Y-118699912D01*
X87024338Y-118705111D01*
X86884298Y-119103890D01*
X86882677Y-119109259D01*
X86811138Y-119390943D01*
X86774983Y-119452045D01*
X86711534Y-119483899D01*
X86640935Y-119476394D01*
X86585601Y-119431912D01*
X86563015Y-119359928D01*
X86563015Y-116922056D01*
X88278831Y-116922056D01*
X88284939Y-116932529D01*
X88684293Y-117331883D01*
X89210380Y-117857971D01*
X90095678Y-118743268D01*
X91477988Y-120125578D01*
X91491932Y-120133192D01*
X91493765Y-120133061D01*
X91500380Y-120128810D01*
X92885921Y-118743269D01*
X93771219Y-117857972D01*
X94297306Y-117331884D01*
X94693554Y-116935636D01*
X94701116Y-116921787D01*
X94694787Y-116912562D01*
X94521728Y-116759182D01*
X94517361Y-116755646D01*
X94287678Y-116586000D01*
X145263496Y-116586000D01*
X145264186Y-116592565D01*
X145280187Y-116744803D01*
X145283458Y-116775928D01*
X145342473Y-116957556D01*
X145437960Y-117122944D01*
X145565747Y-117264866D01*
X145606280Y-117294315D01*
X145683963Y-117350755D01*
X145720248Y-117377118D01*
X145726276Y-117379802D01*
X145726278Y-117379803D01*
X145762094Y-117395749D01*
X145894712Y-117454794D01*
X145988113Y-117474647D01*
X146075056Y-117493128D01*
X146075061Y-117493128D01*
X146081513Y-117494500D01*
X146272487Y-117494500D01*
X146278939Y-117493128D01*
X146278944Y-117493128D01*
X146365887Y-117474647D01*
X146459288Y-117454794D01*
X146591906Y-117395749D01*
X146627722Y-117379803D01*
X146627724Y-117379802D01*
X146633752Y-117377118D01*
X146670038Y-117350755D01*
X146747720Y-117294315D01*
X146788253Y-117264866D01*
X146916040Y-117122944D01*
X147011527Y-116957556D01*
X147013567Y-116951277D01*
X147014394Y-116949420D01*
X147060374Y-116895325D01*
X147128301Y-116874676D01*
X147196609Y-116894029D01*
X147244606Y-116949420D01*
X147245433Y-116951277D01*
X147247473Y-116957556D01*
X147342960Y-117122944D01*
X147470747Y-117264866D01*
X147511280Y-117294315D01*
X147588963Y-117350755D01*
X147625248Y-117377118D01*
X147631276Y-117379802D01*
X147631278Y-117379803D01*
X147667094Y-117395749D01*
X147799712Y-117454794D01*
X147893113Y-117474647D01*
X147980056Y-117493128D01*
X147980061Y-117493128D01*
X147986513Y-117494500D01*
X148177487Y-117494500D01*
X148183939Y-117493128D01*
X148183944Y-117493128D01*
X148270887Y-117474647D01*
X148364288Y-117454794D01*
X148496906Y-117395749D01*
X148532722Y-117379803D01*
X148532724Y-117379802D01*
X148538752Y-117377118D01*
X148575038Y-117350755D01*
X148652720Y-117294315D01*
X148693253Y-117264866D01*
X148821040Y-117122944D01*
X148916527Y-116957556D01*
X148975542Y-116775928D01*
X148978814Y-116744803D01*
X148994814Y-116592565D01*
X148995504Y-116586000D01*
X148986943Y-116504548D01*
X148976232Y-116402635D01*
X148976232Y-116402633D01*
X148975542Y-116396072D01*
X148916527Y-116214444D01*
X148821040Y-116049056D01*
X148732750Y-115951000D01*
X153899496Y-115951000D01*
X153900186Y-115957565D01*
X153907826Y-116030251D01*
X153919458Y-116140928D01*
X153978473Y-116322556D01*
X154073960Y-116487944D01*
X154078378Y-116492851D01*
X154078379Y-116492852D01*
X154105589Y-116523072D01*
X154201747Y-116629866D01*
X154267597Y-116677709D01*
X154325207Y-116719565D01*
X154356248Y-116742118D01*
X154362276Y-116744802D01*
X154362278Y-116744803D01*
X154524681Y-116817109D01*
X154530712Y-116819794D01*
X154717513Y-116859500D01*
X154717666Y-116859500D01*
X154781113Y-116885606D01*
X154822116Y-116944963D01*
X154867473Y-117084556D01*
X154962960Y-117249944D01*
X154967378Y-117254851D01*
X154967379Y-117254852D01*
X155057535Y-117354980D01*
X155090747Y-117391866D01*
X155173664Y-117452109D01*
X155230122Y-117493128D01*
X155245248Y-117504118D01*
X155251276Y-117506802D01*
X155251278Y-117506803D01*
X155413681Y-117579109D01*
X155419712Y-117581794D01*
X155513113Y-117601647D01*
X155600056Y-117620128D01*
X155600061Y-117620128D01*
X155606513Y-117621500D01*
X155797487Y-117621500D01*
X155803939Y-117620128D01*
X155803944Y-117620128D01*
X155890887Y-117601647D01*
X155984288Y-117581794D01*
X155990319Y-117579109D01*
X156152722Y-117506803D01*
X156152724Y-117506802D01*
X156158752Y-117504118D01*
X156173879Y-117493128D01*
X156230336Y-117452109D01*
X156313253Y-117391866D01*
X156346465Y-117354980D01*
X156436621Y-117254852D01*
X156436622Y-117254851D01*
X156441040Y-117249944D01*
X156536527Y-117084556D01*
X156589327Y-116922056D01*
X176874031Y-116922056D01*
X176880139Y-116932529D01*
X177279493Y-117331883D01*
X177805580Y-117857971D01*
X178690878Y-118743268D01*
X180073188Y-120125578D01*
X180087132Y-120133192D01*
X180088965Y-120133061D01*
X180095580Y-120128810D01*
X181481121Y-118743269D01*
X182366419Y-117857972D01*
X182892506Y-117331884D01*
X183288754Y-116935636D01*
X183296316Y-116921787D01*
X183289987Y-116912562D01*
X183116928Y-116759182D01*
X183112561Y-116755646D01*
X182772600Y-116504548D01*
X182767947Y-116501421D01*
X182406995Y-116281526D01*
X182402094Y-116278832D01*
X182023027Y-116091897D01*
X182017904Y-116089648D01*
X181623707Y-115937145D01*
X181618417Y-115935365D01*
X181212218Y-115818504D01*
X181206794Y-115817202D01*
X180791822Y-115736916D01*
X180786293Y-115736100D01*
X180365828Y-115693020D01*
X180360247Y-115692698D01*
X179937635Y-115687166D01*
X179932024Y-115687342D01*
X179510593Y-115719400D01*
X179505036Y-115720072D01*
X179088128Y-115789464D01*
X179082631Y-115790632D01*
X178673547Y-115896809D01*
X178668181Y-115898461D01*
X178270153Y-116040583D01*
X178264965Y-116042700D01*
X177881133Y-116219650D01*
X177876164Y-116222214D01*
X177509581Y-116432584D01*
X177504848Y-116435587D01*
X177158420Y-116677709D01*
X177153979Y-116681117D01*
X176882476Y-116909339D01*
X176874031Y-116922056D01*
X156589327Y-116922056D01*
X156595542Y-116902928D01*
X156596478Y-116894029D01*
X156614814Y-116719565D01*
X156615504Y-116713000D01*
X156611795Y-116677709D01*
X156596232Y-116529635D01*
X156596232Y-116529633D01*
X156595542Y-116523072D01*
X156536527Y-116341444D01*
X156441040Y-116176056D01*
X156415064Y-116147206D01*
X156317675Y-116039045D01*
X156317674Y-116039044D01*
X156313253Y-116034134D01*
X156198829Y-115951000D01*
X156164094Y-115925763D01*
X156164093Y-115925762D01*
X156158752Y-115921882D01*
X156152724Y-115919198D01*
X156152722Y-115919197D01*
X155990319Y-115846891D01*
X155990318Y-115846891D01*
X155984288Y-115844206D01*
X155797487Y-115804500D01*
X155797334Y-115804500D01*
X155733887Y-115778394D01*
X155692884Y-115719037D01*
X155649568Y-115585726D01*
X155647527Y-115579444D01*
X155552040Y-115414056D01*
X155424253Y-115272134D01*
X155269752Y-115159882D01*
X155263724Y-115157198D01*
X155263722Y-115157197D01*
X155101319Y-115084891D01*
X155101318Y-115084891D01*
X155095288Y-115082206D01*
X155001888Y-115062353D01*
X154914944Y-115043872D01*
X154914939Y-115043872D01*
X154908487Y-115042500D01*
X154717513Y-115042500D01*
X154711061Y-115043872D01*
X154711056Y-115043872D01*
X154624112Y-115062353D01*
X154530712Y-115082206D01*
X154524682Y-115084891D01*
X154524681Y-115084891D01*
X154362278Y-115157197D01*
X154362276Y-115157198D01*
X154356248Y-115159882D01*
X154201747Y-115272134D01*
X154073960Y-115414056D01*
X153978473Y-115579444D01*
X153919458Y-115761072D01*
X153918768Y-115767633D01*
X153918768Y-115767635D01*
X153910720Y-115844206D01*
X153899496Y-115951000D01*
X148732750Y-115951000D01*
X148693253Y-115907134D01*
X148538752Y-115794882D01*
X148532724Y-115792198D01*
X148532722Y-115792197D01*
X148370319Y-115719891D01*
X148370318Y-115719891D01*
X148364288Y-115717206D01*
X148270887Y-115697353D01*
X148183944Y-115678872D01*
X148183939Y-115678872D01*
X148177487Y-115677500D01*
X147986513Y-115677500D01*
X147980061Y-115678872D01*
X147980056Y-115678872D01*
X147893113Y-115697353D01*
X147799712Y-115717206D01*
X147793682Y-115719891D01*
X147793681Y-115719891D01*
X147631278Y-115792197D01*
X147631276Y-115792198D01*
X147625248Y-115794882D01*
X147470747Y-115907134D01*
X147342960Y-116049056D01*
X147247473Y-116214444D01*
X147245433Y-116220723D01*
X147244606Y-116222580D01*
X147198626Y-116276675D01*
X147130699Y-116297324D01*
X147062391Y-116277971D01*
X147014394Y-116222580D01*
X147013567Y-116220723D01*
X147011527Y-116214444D01*
X146916040Y-116049056D01*
X146788253Y-115907134D01*
X146633752Y-115794882D01*
X146627724Y-115792198D01*
X146627722Y-115792197D01*
X146465319Y-115719891D01*
X146465318Y-115719891D01*
X146459288Y-115717206D01*
X146365887Y-115697353D01*
X146278944Y-115678872D01*
X146278939Y-115678872D01*
X146272487Y-115677500D01*
X146081513Y-115677500D01*
X146075061Y-115678872D01*
X146075056Y-115678872D01*
X145988113Y-115697353D01*
X145894712Y-115717206D01*
X145888682Y-115719891D01*
X145888681Y-115719891D01*
X145726278Y-115792197D01*
X145726276Y-115792198D01*
X145720248Y-115794882D01*
X145565747Y-115907134D01*
X145437960Y-116049056D01*
X145342473Y-116214444D01*
X145283458Y-116396072D01*
X145282768Y-116402633D01*
X145282768Y-116402635D01*
X145272057Y-116504548D01*
X145263496Y-116586000D01*
X94287678Y-116586000D01*
X94177400Y-116504548D01*
X94172747Y-116501421D01*
X93811795Y-116281526D01*
X93806894Y-116278832D01*
X93427827Y-116091897D01*
X93422704Y-116089648D01*
X93028507Y-115937145D01*
X93023217Y-115935365D01*
X92617018Y-115818504D01*
X92611594Y-115817202D01*
X92196622Y-115736916D01*
X92191093Y-115736100D01*
X91770628Y-115693020D01*
X91765047Y-115692698D01*
X91342435Y-115687166D01*
X91336824Y-115687342D01*
X90915393Y-115719400D01*
X90909836Y-115720072D01*
X90492928Y-115789464D01*
X90487431Y-115790632D01*
X90078347Y-115896809D01*
X90072981Y-115898461D01*
X89674953Y-116040583D01*
X89669765Y-116042700D01*
X89285933Y-116219650D01*
X89280964Y-116222214D01*
X88914381Y-116432584D01*
X88909648Y-116435587D01*
X88563220Y-116677709D01*
X88558779Y-116681117D01*
X88287276Y-116909339D01*
X88278831Y-116922056D01*
X86563015Y-116922056D01*
X86563015Y-113969800D01*
X139091296Y-113969800D01*
X139111258Y-114159728D01*
X139170273Y-114341356D01*
X139265760Y-114506744D01*
X139393547Y-114648666D01*
X139548048Y-114760918D01*
X139554076Y-114763602D01*
X139554078Y-114763603D01*
X139716481Y-114835909D01*
X139722512Y-114838594D01*
X139815913Y-114858447D01*
X139902856Y-114876928D01*
X139902861Y-114876928D01*
X139909313Y-114878300D01*
X140100287Y-114878300D01*
X140106739Y-114876928D01*
X140106744Y-114876928D01*
X140193687Y-114858447D01*
X140287088Y-114838594D01*
X140293119Y-114835909D01*
X140455522Y-114763603D01*
X140455524Y-114763602D01*
X140461552Y-114760918D01*
X140616053Y-114648666D01*
X140743840Y-114506744D01*
X140839327Y-114341356D01*
X140898342Y-114159728D01*
X140918304Y-113969800D01*
X143002896Y-113969800D01*
X143022858Y-114159728D01*
X143081873Y-114341356D01*
X143177360Y-114506744D01*
X143305147Y-114648666D01*
X143459648Y-114760918D01*
X143465676Y-114763602D01*
X143465678Y-114763603D01*
X143628081Y-114835909D01*
X143634112Y-114838594D01*
X143727513Y-114858447D01*
X143814456Y-114876928D01*
X143814461Y-114876928D01*
X143820913Y-114878300D01*
X144011887Y-114878300D01*
X144018339Y-114876928D01*
X144018344Y-114876928D01*
X144105287Y-114858447D01*
X144198688Y-114838594D01*
X144204719Y-114835909D01*
X144367122Y-114763603D01*
X144367124Y-114763602D01*
X144373152Y-114760918D01*
X144527653Y-114648666D01*
X144655440Y-114506744D01*
X144750927Y-114341356D01*
X144809942Y-114159728D01*
X144829904Y-113969800D01*
X144809942Y-113779872D01*
X144750927Y-113598244D01*
X144686527Y-113486700D01*
X144669789Y-113417705D01*
X144686527Y-113360700D01*
X144747623Y-113254879D01*
X144747624Y-113254878D01*
X144750927Y-113249156D01*
X144809942Y-113067528D01*
X144829904Y-112877600D01*
X144809942Y-112687672D01*
X144750927Y-112506044D01*
X144655440Y-112340656D01*
X144527653Y-112198734D01*
X144373152Y-112086482D01*
X144367124Y-112083798D01*
X144367122Y-112083797D01*
X144204719Y-112011491D01*
X144204718Y-112011491D01*
X144198688Y-112008806D01*
X144105288Y-111988953D01*
X144018344Y-111970472D01*
X144018339Y-111970472D01*
X144011887Y-111969100D01*
X143820913Y-111969100D01*
X143814461Y-111970472D01*
X143814456Y-111970472D01*
X143727512Y-111988953D01*
X143634112Y-112008806D01*
X143628082Y-112011491D01*
X143628081Y-112011491D01*
X143465678Y-112083797D01*
X143465676Y-112083798D01*
X143459648Y-112086482D01*
X143305147Y-112198734D01*
X143177360Y-112340656D01*
X143081873Y-112506044D01*
X143022858Y-112687672D01*
X143002896Y-112877600D01*
X143022858Y-113067528D01*
X143081873Y-113249156D01*
X143085176Y-113254878D01*
X143085177Y-113254879D01*
X143146273Y-113360700D01*
X143163011Y-113429695D01*
X143146273Y-113486700D01*
X143081873Y-113598244D01*
X143022858Y-113779872D01*
X143002896Y-113969800D01*
X140918304Y-113969800D01*
X140898342Y-113779872D01*
X140839327Y-113598244D01*
X140752930Y-113448600D01*
X140736192Y-113379605D01*
X140752930Y-113322600D01*
X140836023Y-113178679D01*
X140836024Y-113178678D01*
X140839327Y-113172956D01*
X140898342Y-112991328D01*
X140918304Y-112801400D01*
X140898342Y-112611472D01*
X140839327Y-112429844D01*
X140743840Y-112264456D01*
X140681168Y-112194851D01*
X140620475Y-112127445D01*
X140620474Y-112127444D01*
X140616053Y-112122534D01*
X140461552Y-112010282D01*
X140455524Y-112007598D01*
X140455522Y-112007597D01*
X140293119Y-111935291D01*
X140293118Y-111935291D01*
X140287088Y-111932606D01*
X140193688Y-111912753D01*
X140106744Y-111894272D01*
X140106739Y-111894272D01*
X140100287Y-111892900D01*
X139909313Y-111892900D01*
X139902861Y-111894272D01*
X139902856Y-111894272D01*
X139815912Y-111912753D01*
X139722512Y-111932606D01*
X139716482Y-111935291D01*
X139716481Y-111935291D01*
X139554078Y-112007597D01*
X139554076Y-112007598D01*
X139548048Y-112010282D01*
X139393547Y-112122534D01*
X139389126Y-112127444D01*
X139389125Y-112127445D01*
X139328433Y-112194851D01*
X139265760Y-112264456D01*
X139170273Y-112429844D01*
X139111258Y-112611472D01*
X139091296Y-112801400D01*
X139111258Y-112991328D01*
X139170273Y-113172956D01*
X139173576Y-113178678D01*
X139173577Y-113178679D01*
X139256670Y-113322600D01*
X139273408Y-113391595D01*
X139256670Y-113448600D01*
X139170273Y-113598244D01*
X139111258Y-113779872D01*
X139091296Y-113969800D01*
X86563015Y-113969800D01*
X86563015Y-109766134D01*
X169395500Y-109766134D01*
X169402255Y-109828316D01*
X169453385Y-109964705D01*
X169540739Y-110081261D01*
X169657295Y-110168615D01*
X169793684Y-110219745D01*
X169855866Y-110226500D01*
X172552134Y-110226500D01*
X172614316Y-110219745D01*
X172750705Y-110168615D01*
X172867261Y-110081261D01*
X172954615Y-109964705D01*
X173005745Y-109828316D01*
X173012500Y-109766134D01*
X173012500Y-107069866D01*
X173005745Y-107007684D01*
X172954615Y-106871295D01*
X172867261Y-106754739D01*
X172750705Y-106667385D01*
X172614316Y-106616255D01*
X172552134Y-106609500D01*
X169855866Y-106609500D01*
X169793684Y-106616255D01*
X169657295Y-106667385D01*
X169540739Y-106754739D01*
X169453385Y-106871295D01*
X169402255Y-107007684D01*
X169395500Y-107069866D01*
X169395500Y-109766134D01*
X86563015Y-109766134D01*
X86563015Y-104770800D01*
X106960296Y-104770800D01*
X106960986Y-104777365D01*
X106979426Y-104952809D01*
X106980258Y-104960728D01*
X107039273Y-105142356D01*
X107134760Y-105307744D01*
X107262547Y-105449666D01*
X107417048Y-105561918D01*
X107423076Y-105564602D01*
X107423078Y-105564603D01*
X107585481Y-105636909D01*
X107591512Y-105639594D01*
X107684913Y-105659447D01*
X107771856Y-105677928D01*
X107771861Y-105677928D01*
X107778313Y-105679300D01*
X107969287Y-105679300D01*
X107975739Y-105677928D01*
X107975744Y-105677928D01*
X108062687Y-105659447D01*
X108156088Y-105639594D01*
X108162119Y-105636909D01*
X108324522Y-105564603D01*
X108324524Y-105564602D01*
X108330552Y-105561918D01*
X108485053Y-105449666D01*
X108612840Y-105307744D01*
X108708327Y-105142356D01*
X108767342Y-104960728D01*
X108768175Y-104952809D01*
X108777624Y-104862906D01*
X170123839Y-104862906D01*
X170132553Y-104874427D01*
X170239452Y-104952809D01*
X170247351Y-104957745D01*
X170476905Y-105078519D01*
X170485454Y-105082236D01*
X170730327Y-105167749D01*
X170739336Y-105170163D01*
X170994166Y-105218544D01*
X171003423Y-105219598D01*
X171262607Y-105229783D01*
X171271921Y-105229457D01*
X171529753Y-105201220D01*
X171538930Y-105199519D01*
X171789758Y-105133481D01*
X171798574Y-105130445D01*
X172036880Y-105028062D01*
X172045167Y-105023748D01*
X172265718Y-104887266D01*
X172273268Y-104881780D01*
X172278559Y-104877301D01*
X172286997Y-104864497D01*
X172280935Y-104854145D01*
X171216812Y-103790022D01*
X171202868Y-103782408D01*
X171201035Y-103782539D01*
X171194420Y-103786790D01*
X170130497Y-104850713D01*
X170123839Y-104862906D01*
X108777624Y-104862906D01*
X108786614Y-104777365D01*
X108787304Y-104770800D01*
X108767342Y-104580872D01*
X108708327Y-104399244D01*
X108612840Y-104233856D01*
X108485053Y-104091934D01*
X108330552Y-103979682D01*
X108324524Y-103976998D01*
X108324522Y-103976997D01*
X108162119Y-103904691D01*
X108162118Y-103904691D01*
X108156088Y-103902006D01*
X108062687Y-103882153D01*
X107975744Y-103863672D01*
X107975739Y-103863672D01*
X107969287Y-103862300D01*
X107778313Y-103862300D01*
X107771861Y-103863672D01*
X107771856Y-103863672D01*
X107684913Y-103882153D01*
X107591512Y-103902006D01*
X107585482Y-103904691D01*
X107585481Y-103904691D01*
X107423078Y-103976997D01*
X107423076Y-103976998D01*
X107417048Y-103979682D01*
X107262547Y-104091934D01*
X107134760Y-104233856D01*
X107039273Y-104399244D01*
X106980258Y-104580872D01*
X106960296Y-104770800D01*
X86563015Y-104770800D01*
X86563015Y-103375211D01*
X169391775Y-103375211D01*
X169404220Y-103634288D01*
X169405356Y-103643543D01*
X169455961Y-103897945D01*
X169458449Y-103906917D01*
X169546095Y-104151033D01*
X169549895Y-104159568D01*
X169672658Y-104388042D01*
X169677666Y-104395904D01*
X169747720Y-104489716D01*
X169758979Y-104498165D01*
X169771397Y-104491393D01*
X170831978Y-103430812D01*
X170838356Y-103419132D01*
X171568408Y-103419132D01*
X171568539Y-103420965D01*
X171572790Y-103427580D01*
X172640094Y-104494884D01*
X172652474Y-104501644D01*
X172660815Y-104495400D01*
X172794832Y-104287048D01*
X172799275Y-104278864D01*
X172905807Y-104042370D01*
X172908997Y-104033605D01*
X172979402Y-103783972D01*
X172981262Y-103774830D01*
X173014187Y-103516019D01*
X173014668Y-103509733D01*
X173016987Y-103421160D01*
X173016836Y-103414851D01*
X172997501Y-103154663D01*
X172996125Y-103145457D01*
X172938878Y-102892467D01*
X172936154Y-102883556D01*
X172842143Y-102641806D01*
X172838132Y-102633397D01*
X172709422Y-102408202D01*
X172704211Y-102400476D01*
X172660996Y-102345658D01*
X172649071Y-102337187D01*
X172637537Y-102343673D01*
X171576022Y-103405188D01*
X171568408Y-103419132D01*
X170838356Y-103419132D01*
X170839592Y-103416868D01*
X170839461Y-103415035D01*
X170835210Y-103408420D01*
X169769816Y-102343026D01*
X169756507Y-102335758D01*
X169746472Y-102342878D01*
X169730937Y-102361556D01*
X169725531Y-102369135D01*
X169590965Y-102590891D01*
X169586736Y-102599192D01*
X169486432Y-102838389D01*
X169483471Y-102847239D01*
X169419628Y-103098625D01*
X169418006Y-103107822D01*
X169392020Y-103365885D01*
X169391775Y-103375211D01*
X86563015Y-103375211D01*
X86563015Y-101970689D01*
X170121102Y-101970689D01*
X170125675Y-101980465D01*
X171191188Y-103045978D01*
X171205132Y-103053592D01*
X171206965Y-103053461D01*
X171213580Y-103049210D01*
X172278349Y-101984441D01*
X172284733Y-101972751D01*
X172275321Y-101960641D01*
X172128045Y-101858471D01*
X172120010Y-101853738D01*
X171887376Y-101739016D01*
X171878743Y-101735528D01*
X171631703Y-101656450D01*
X171622643Y-101654274D01*
X171366630Y-101612580D01*
X171357343Y-101611768D01*
X171097992Y-101608373D01*
X171088681Y-101608943D01*
X170831682Y-101643919D01*
X170822546Y-101645860D01*
X170573543Y-101718439D01*
X170564800Y-101721707D01*
X170329252Y-101830296D01*
X170321097Y-101834816D01*
X170130240Y-101959947D01*
X170121102Y-101970689D01*
X86563015Y-101970689D01*
X86563015Y-97891600D01*
X124156096Y-97891600D01*
X124156786Y-97898165D01*
X124175075Y-98072171D01*
X124176058Y-98081528D01*
X124235073Y-98263156D01*
X124238376Y-98268878D01*
X124238377Y-98268879D01*
X124255572Y-98298661D01*
X124330560Y-98428544D01*
X124458347Y-98570466D01*
X124612848Y-98682718D01*
X124618876Y-98685402D01*
X124618878Y-98685403D01*
X124781281Y-98757709D01*
X124787312Y-98760394D01*
X124880713Y-98780247D01*
X124967656Y-98798728D01*
X124967661Y-98798728D01*
X124974113Y-98800100D01*
X125165087Y-98800100D01*
X125171539Y-98798728D01*
X125171544Y-98798728D01*
X125258487Y-98780247D01*
X125351888Y-98760394D01*
X125357919Y-98757709D01*
X125520322Y-98685403D01*
X125520324Y-98685402D01*
X125526352Y-98682718D01*
X125680853Y-98570466D01*
X125808640Y-98428544D01*
X125819531Y-98409680D01*
X125870915Y-98360688D01*
X125940629Y-98347254D01*
X125972878Y-98354701D01*
X126032282Y-98376971D01*
X126032288Y-98376973D01*
X126039684Y-98379745D01*
X126101866Y-98386500D01*
X127898134Y-98386500D01*
X127960316Y-98379745D01*
X128096705Y-98328615D01*
X128213261Y-98241261D01*
X128300615Y-98124705D01*
X128314448Y-98087806D01*
X128344598Y-98007382D01*
X128387240Y-97950618D01*
X128453802Y-97925918D01*
X128523150Y-97941126D01*
X128557817Y-97969114D01*
X128586250Y-98001938D01*
X128758126Y-98144632D01*
X128951000Y-98257338D01*
X129159692Y-98337030D01*
X129164760Y-98338061D01*
X129164763Y-98338062D01*
X129246547Y-98354701D01*
X129378597Y-98381567D01*
X129383772Y-98381757D01*
X129383774Y-98381757D01*
X129596673Y-98389564D01*
X129596677Y-98389564D01*
X129601837Y-98389753D01*
X129606957Y-98389097D01*
X129606959Y-98389097D01*
X129818288Y-98362025D01*
X129818289Y-98362025D01*
X129823416Y-98361368D01*
X129828366Y-98359883D01*
X130032429Y-98298661D01*
X130032434Y-98298659D01*
X130037384Y-98297174D01*
X130237994Y-98198896D01*
X130419860Y-98069173D01*
X130578096Y-97911489D01*
X130708453Y-97730077D01*
X130709776Y-97731028D01*
X130756645Y-97687857D01*
X130826580Y-97675625D01*
X130892026Y-97703144D01*
X130919875Y-97734994D01*
X130979987Y-97833088D01*
X131126250Y-98001938D01*
X131298126Y-98144632D01*
X131491000Y-98257338D01*
X131699692Y-98337030D01*
X131704760Y-98338061D01*
X131704763Y-98338062D01*
X131786547Y-98354701D01*
X131918597Y-98381567D01*
X131923772Y-98381757D01*
X131923774Y-98381757D01*
X132136673Y-98389564D01*
X132136677Y-98389564D01*
X132141837Y-98389753D01*
X132146957Y-98389097D01*
X132146959Y-98389097D01*
X132358288Y-98362025D01*
X132358289Y-98362025D01*
X132363416Y-98361368D01*
X132368366Y-98359883D01*
X132572429Y-98298661D01*
X132572434Y-98298659D01*
X132577384Y-98297174D01*
X132777994Y-98198896D01*
X132959860Y-98069173D01*
X133118096Y-97911489D01*
X133248453Y-97730077D01*
X133249640Y-97730930D01*
X133296960Y-97687362D01*
X133366897Y-97675145D01*
X133432338Y-97702678D01*
X133460166Y-97734511D01*
X133517694Y-97828388D01*
X133523777Y-97836699D01*
X133663213Y-97997667D01*
X133670580Y-98004883D01*
X133834434Y-98140916D01*
X133842881Y-98146831D01*
X134026756Y-98254279D01*
X134036042Y-98258729D01*
X134235001Y-98334703D01*
X134244899Y-98337579D01*
X134348250Y-98358606D01*
X134362299Y-98357410D01*
X134366000Y-98347065D01*
X134366000Y-98346517D01*
X134874000Y-98346517D01*
X134878064Y-98360359D01*
X134891478Y-98362393D01*
X134898184Y-98361534D01*
X134908262Y-98359392D01*
X135112255Y-98298191D01*
X135121842Y-98294433D01*
X135313095Y-98200739D01*
X135321945Y-98195464D01*
X135495328Y-98071792D01*
X135503200Y-98065139D01*
X135654052Y-97914812D01*
X135660730Y-97906965D01*
X135785003Y-97734020D01*
X135790313Y-97725183D01*
X135884670Y-97534267D01*
X135888469Y-97524672D01*
X135950377Y-97320910D01*
X135952555Y-97310837D01*
X135953986Y-97299962D01*
X135951775Y-97285778D01*
X135938617Y-97282000D01*
X134892115Y-97282000D01*
X134876876Y-97286475D01*
X134875671Y-97287865D01*
X134874000Y-97295548D01*
X134874000Y-98346517D01*
X134366000Y-98346517D01*
X134366000Y-96755885D01*
X134874000Y-96755885D01*
X134878475Y-96771124D01*
X134879865Y-96772329D01*
X134887548Y-96774000D01*
X135938344Y-96774000D01*
X135951875Y-96770027D01*
X135953180Y-96760947D01*
X135911214Y-96593875D01*
X135907894Y-96584124D01*
X135822972Y-96388814D01*
X135818105Y-96379739D01*
X135702426Y-96200926D01*
X135696136Y-96192757D01*
X135552806Y-96035240D01*
X135545273Y-96028215D01*
X135378139Y-95896222D01*
X135369552Y-95890517D01*
X135183117Y-95787599D01*
X135173705Y-95783369D01*
X134972959Y-95712280D01*
X134962988Y-95709646D01*
X134891837Y-95696972D01*
X134878540Y-95698432D01*
X134874000Y-95712989D01*
X134874000Y-96755885D01*
X134366000Y-96755885D01*
X134366000Y-95711102D01*
X134362082Y-95697758D01*
X134347806Y-95695771D01*
X134309324Y-95701660D01*
X134299288Y-95704051D01*
X134096868Y-95770212D01*
X134087359Y-95774209D01*
X133898463Y-95872542D01*
X133889738Y-95878036D01*
X133719433Y-96005905D01*
X133711726Y-96012748D01*
X133564590Y-96166717D01*
X133558109Y-96174722D01*
X133453498Y-96328074D01*
X133398587Y-96373076D01*
X133328062Y-96381247D01*
X133264315Y-96349993D01*
X133243618Y-96325509D01*
X133162822Y-96200617D01*
X133162820Y-96200614D01*
X133160014Y-96196277D01*
X133009670Y-96031051D01*
X133005619Y-96027852D01*
X133005615Y-96027848D01*
X132838414Y-95895800D01*
X132838410Y-95895798D01*
X132834359Y-95892598D01*
X132798028Y-95872542D01*
X132782135Y-95863769D01*
X132638789Y-95784638D01*
X132633920Y-95782914D01*
X132633916Y-95782912D01*
X132433087Y-95711795D01*
X132433083Y-95711794D01*
X132428212Y-95710069D01*
X132423119Y-95709162D01*
X132423116Y-95709161D01*
X132213373Y-95671800D01*
X132213367Y-95671799D01*
X132208284Y-95670894D01*
X132134452Y-95669992D01*
X131990081Y-95668228D01*
X131990079Y-95668228D01*
X131984911Y-95668165D01*
X131764091Y-95701955D01*
X131551756Y-95771357D01*
X131353607Y-95874507D01*
X131349474Y-95877610D01*
X131349471Y-95877612D01*
X131179100Y-96005530D01*
X131174965Y-96008635D01*
X131171393Y-96012373D01*
X131063729Y-96125037D01*
X131020629Y-96170138D01*
X130913201Y-96327621D01*
X130858293Y-96372621D01*
X130787768Y-96380792D01*
X130724021Y-96349538D01*
X130703324Y-96325054D01*
X130622822Y-96200617D01*
X130622820Y-96200614D01*
X130620014Y-96196277D01*
X130469670Y-96031051D01*
X130465619Y-96027852D01*
X130465615Y-96027848D01*
X130298414Y-95895800D01*
X130298410Y-95895798D01*
X130294359Y-95892598D01*
X130258028Y-95872542D01*
X130242135Y-95863769D01*
X130098789Y-95784638D01*
X130093920Y-95782914D01*
X130093916Y-95782912D01*
X129893087Y-95711795D01*
X129893083Y-95711794D01*
X129888212Y-95710069D01*
X129883119Y-95709162D01*
X129883116Y-95709161D01*
X129673373Y-95671800D01*
X129673367Y-95671799D01*
X129668284Y-95670894D01*
X129594452Y-95669992D01*
X129450081Y-95668228D01*
X129450079Y-95668228D01*
X129444911Y-95668165D01*
X129224091Y-95701955D01*
X129011756Y-95771357D01*
X128813607Y-95874507D01*
X128809474Y-95877610D01*
X128809471Y-95877612D01*
X128639100Y-96005530D01*
X128634965Y-96008635D01*
X128578537Y-96067684D01*
X128554283Y-96093064D01*
X128492759Y-96128494D01*
X128421846Y-96125037D01*
X128364060Y-96083791D01*
X128345207Y-96050243D01*
X128303767Y-95939703D01*
X128300615Y-95931295D01*
X128213261Y-95814739D01*
X128096705Y-95727385D01*
X127960316Y-95676255D01*
X127898134Y-95669500D01*
X126101866Y-95669500D01*
X126039684Y-95676255D01*
X125903295Y-95727385D01*
X125786739Y-95814739D01*
X125699385Y-95931295D01*
X125648255Y-96067684D01*
X125641500Y-96129866D01*
X125641500Y-96957726D01*
X125621498Y-97025847D01*
X125567842Y-97072340D01*
X125497568Y-97082444D01*
X125464251Y-97072833D01*
X125357919Y-97025491D01*
X125357918Y-97025491D01*
X125351888Y-97022806D01*
X125258488Y-97002953D01*
X125171544Y-96984472D01*
X125171539Y-96984472D01*
X125165087Y-96983100D01*
X124974113Y-96983100D01*
X124967661Y-96984472D01*
X124967656Y-96984472D01*
X124880713Y-97002953D01*
X124787312Y-97022806D01*
X124781282Y-97025491D01*
X124781281Y-97025491D01*
X124618878Y-97097797D01*
X124618876Y-97097798D01*
X124612848Y-97100482D01*
X124458347Y-97212734D01*
X124453926Y-97217644D01*
X124453925Y-97217645D01*
X124379807Y-97299962D01*
X124330560Y-97354656D01*
X124235073Y-97520044D01*
X124176058Y-97701672D01*
X124175368Y-97708233D01*
X124175368Y-97708235D01*
X124172556Y-97734994D01*
X124156096Y-97891600D01*
X86563015Y-97891600D01*
X86563015Y-93213800D01*
X107214296Y-93213800D01*
X107214986Y-93220365D01*
X107221419Y-93281567D01*
X107234258Y-93403728D01*
X107293273Y-93585356D01*
X107388760Y-93750744D01*
X107516547Y-93892666D01*
X107671048Y-94004918D01*
X107677076Y-94007602D01*
X107677078Y-94007603D01*
X107691114Y-94013852D01*
X107845512Y-94082594D01*
X107938912Y-94102447D01*
X108025856Y-94120928D01*
X108025861Y-94120928D01*
X108032313Y-94122300D01*
X108223287Y-94122300D01*
X108229739Y-94120928D01*
X108229744Y-94120928D01*
X108316688Y-94102447D01*
X108410088Y-94082594D01*
X108564486Y-94013852D01*
X108578522Y-94007603D01*
X108578524Y-94007602D01*
X108584552Y-94004918D01*
X108739053Y-93892666D01*
X108866840Y-93750744D01*
X108962327Y-93585356D01*
X108999159Y-93472000D01*
X174600496Y-93472000D01*
X174601186Y-93478565D01*
X174613012Y-93591079D01*
X174620458Y-93661928D01*
X174679473Y-93843556D01*
X174774960Y-94008944D01*
X174902747Y-94150866D01*
X175057248Y-94263118D01*
X175063276Y-94265802D01*
X175063278Y-94265803D01*
X175225681Y-94338109D01*
X175231712Y-94340794D01*
X175325113Y-94360647D01*
X175412056Y-94379128D01*
X175412061Y-94379128D01*
X175418513Y-94380500D01*
X175609487Y-94380500D01*
X175615939Y-94379128D01*
X175615944Y-94379128D01*
X175702887Y-94360647D01*
X175796288Y-94340794D01*
X175802319Y-94338109D01*
X175964722Y-94265803D01*
X175964724Y-94265802D01*
X175970752Y-94263118D01*
X176125253Y-94150866D01*
X176253040Y-94008944D01*
X176348527Y-93843556D01*
X176407542Y-93661928D01*
X176414989Y-93591079D01*
X176426814Y-93478565D01*
X176427504Y-93472000D01*
X176419639Y-93397165D01*
X176408232Y-93288635D01*
X176408232Y-93288633D01*
X176407542Y-93282072D01*
X176348527Y-93100444D01*
X176253040Y-92935056D01*
X176223221Y-92901938D01*
X176129675Y-92798045D01*
X176129674Y-92798044D01*
X176125253Y-92793134D01*
X175970752Y-92680882D01*
X175964724Y-92678198D01*
X175964722Y-92678197D01*
X175802319Y-92605891D01*
X175802318Y-92605891D01*
X175796288Y-92603206D01*
X175702887Y-92583353D01*
X175615944Y-92564872D01*
X175615939Y-92564872D01*
X175609487Y-92563500D01*
X175418513Y-92563500D01*
X175412061Y-92564872D01*
X175412056Y-92564872D01*
X175325113Y-92583353D01*
X175231712Y-92603206D01*
X175225682Y-92605891D01*
X175225681Y-92605891D01*
X175063278Y-92678197D01*
X175063276Y-92678198D01*
X175057248Y-92680882D01*
X174902747Y-92793134D01*
X174898326Y-92798044D01*
X174898325Y-92798045D01*
X174804780Y-92901938D01*
X174774960Y-92935056D01*
X174679473Y-93100444D01*
X174620458Y-93282072D01*
X174619768Y-93288633D01*
X174619768Y-93288635D01*
X174608361Y-93397165D01*
X174600496Y-93472000D01*
X108999159Y-93472000D01*
X109021342Y-93403728D01*
X109034182Y-93281567D01*
X109040614Y-93220365D01*
X109041304Y-93213800D01*
X109035096Y-93154731D01*
X109022032Y-93030435D01*
X109022032Y-93030433D01*
X109021342Y-93023872D01*
X108962327Y-92842244D01*
X108942148Y-92807292D01*
X108925114Y-92777790D01*
X108866840Y-92676856D01*
X108797741Y-92600113D01*
X108743475Y-92539845D01*
X108743474Y-92539844D01*
X108739053Y-92534934D01*
X108639957Y-92462936D01*
X108589894Y-92426563D01*
X108589893Y-92426562D01*
X108584552Y-92422682D01*
X108578524Y-92419998D01*
X108578522Y-92419997D01*
X108416119Y-92347691D01*
X108416118Y-92347691D01*
X108410088Y-92345006D01*
X108316688Y-92325153D01*
X108229744Y-92306672D01*
X108229739Y-92306672D01*
X108223287Y-92305300D01*
X108032313Y-92305300D01*
X108025861Y-92306672D01*
X108025856Y-92306672D01*
X107938913Y-92325153D01*
X107845512Y-92345006D01*
X107839482Y-92347691D01*
X107839481Y-92347691D01*
X107677078Y-92419997D01*
X107677076Y-92419998D01*
X107671048Y-92422682D01*
X107665707Y-92426562D01*
X107665706Y-92426563D01*
X107615643Y-92462936D01*
X107516547Y-92534934D01*
X107512126Y-92539844D01*
X107512125Y-92539845D01*
X107457860Y-92600113D01*
X107388760Y-92676856D01*
X107330486Y-92777790D01*
X107313453Y-92807292D01*
X107293273Y-92842244D01*
X107234258Y-93023872D01*
X107233568Y-93030433D01*
X107233568Y-93030435D01*
X107220504Y-93154731D01*
X107214296Y-93213800D01*
X86563015Y-93213800D01*
X86563015Y-91338400D01*
X149606896Y-91338400D01*
X149607586Y-91344965D01*
X149623221Y-91493720D01*
X149626858Y-91528328D01*
X149685873Y-91709956D01*
X149781360Y-91875344D01*
X149785778Y-91880251D01*
X149785779Y-91880252D01*
X149831801Y-91931365D01*
X149909147Y-92017266D01*
X150063648Y-92129518D01*
X150069676Y-92132202D01*
X150069678Y-92132203D01*
X150232081Y-92204509D01*
X150238112Y-92207194D01*
X150398561Y-92241299D01*
X150413697Y-92244516D01*
X150476170Y-92278245D01*
X150510492Y-92340394D01*
X150513500Y-92367763D01*
X150513500Y-92826134D01*
X150520255Y-92888316D01*
X150571385Y-93024705D01*
X150658739Y-93141261D01*
X150775295Y-93228615D01*
X150911684Y-93279745D01*
X150973866Y-93286500D01*
X152770134Y-93286500D01*
X152832316Y-93279745D01*
X152968705Y-93228615D01*
X153085261Y-93141261D01*
X153172615Y-93024705D01*
X153194799Y-92965529D01*
X153216598Y-92907382D01*
X153259240Y-92850618D01*
X153325802Y-92825918D01*
X153395150Y-92841126D01*
X153429817Y-92869114D01*
X153458250Y-92901938D01*
X153630126Y-93044632D01*
X153823000Y-93157338D01*
X154031692Y-93237030D01*
X154036760Y-93238061D01*
X154036763Y-93238062D01*
X154144017Y-93259883D01*
X154250597Y-93281567D01*
X154255772Y-93281757D01*
X154255774Y-93281757D01*
X154468673Y-93289564D01*
X154468677Y-93289564D01*
X154473837Y-93289753D01*
X154478957Y-93289097D01*
X154478959Y-93289097D01*
X154690288Y-93262025D01*
X154690289Y-93262025D01*
X154695416Y-93261368D01*
X154700366Y-93259883D01*
X154904429Y-93198661D01*
X154904434Y-93198659D01*
X154909384Y-93197174D01*
X155109994Y-93098896D01*
X155291860Y-92969173D01*
X155320359Y-92940774D01*
X155435616Y-92825918D01*
X155450096Y-92811489D01*
X155459757Y-92798045D01*
X155577435Y-92634277D01*
X155580453Y-92630077D01*
X155592407Y-92605891D01*
X155677136Y-92434453D01*
X155677137Y-92434451D01*
X155679430Y-92429811D01*
X155744370Y-92216069D01*
X155773529Y-91994590D01*
X155775156Y-91928000D01*
X155756852Y-91705361D01*
X155702431Y-91488702D01*
X155613354Y-91283840D01*
X155530026Y-91155035D01*
X155494822Y-91100617D01*
X155494820Y-91100614D01*
X155492014Y-91096277D01*
X155341670Y-90931051D01*
X155337619Y-90927852D01*
X155337615Y-90927848D01*
X155170414Y-90795800D01*
X155170410Y-90795798D01*
X155166359Y-90792598D01*
X155125053Y-90769796D01*
X155075084Y-90719364D01*
X155060312Y-90649921D01*
X155085428Y-90583516D01*
X155112780Y-90556909D01*
X155156603Y-90525650D01*
X155291860Y-90429173D01*
X155346167Y-90375056D01*
X155446435Y-90275137D01*
X155450096Y-90271489D01*
X155509594Y-90188689D01*
X155577435Y-90094277D01*
X155580453Y-90090077D01*
X155601320Y-90047857D01*
X155677136Y-89894453D01*
X155677137Y-89894451D01*
X155679430Y-89889811D01*
X155744370Y-89676069D01*
X155773529Y-89454590D01*
X155775156Y-89388000D01*
X155756852Y-89165361D01*
X155702431Y-88948702D01*
X155613354Y-88743840D01*
X155492014Y-88556277D01*
X155341670Y-88391051D01*
X155337619Y-88387852D01*
X155337615Y-88387848D01*
X155170414Y-88255800D01*
X155170410Y-88255798D01*
X155166359Y-88252598D01*
X155125053Y-88229796D01*
X155075084Y-88179364D01*
X155060312Y-88109921D01*
X155085428Y-88043516D01*
X155112780Y-88016909D01*
X155156603Y-87985650D01*
X155291860Y-87889173D01*
X155450096Y-87731489D01*
X155509594Y-87648689D01*
X155577435Y-87554277D01*
X155580453Y-87550077D01*
X155601320Y-87507857D01*
X155677136Y-87354453D01*
X155677137Y-87354451D01*
X155679430Y-87349811D01*
X155744370Y-87136069D01*
X155773529Y-86914590D01*
X155774507Y-86874565D01*
X155775074Y-86851365D01*
X155775074Y-86851361D01*
X155775156Y-86848000D01*
X155756852Y-86625361D01*
X155702431Y-86408702D01*
X155613354Y-86203840D01*
X155492014Y-86016277D01*
X155341670Y-85851051D01*
X155337619Y-85847852D01*
X155337615Y-85847848D01*
X155170414Y-85715800D01*
X155170410Y-85715798D01*
X155166359Y-85712598D01*
X155125053Y-85689796D01*
X155075084Y-85639364D01*
X155060312Y-85569921D01*
X155085428Y-85503516D01*
X155112780Y-85476909D01*
X155156603Y-85445650D01*
X155291860Y-85349173D01*
X155450096Y-85191489D01*
X155509594Y-85108689D01*
X155577435Y-85014277D01*
X155580453Y-85010077D01*
X155601320Y-84967857D01*
X155677136Y-84814453D01*
X155677137Y-84814451D01*
X155679430Y-84809811D01*
X155712053Y-84702435D01*
X155742865Y-84601023D01*
X155742865Y-84601021D01*
X155744370Y-84596069D01*
X155773529Y-84374590D01*
X155774437Y-84337444D01*
X155775074Y-84311365D01*
X155775074Y-84311361D01*
X155775156Y-84308000D01*
X155756852Y-84085361D01*
X155702431Y-83868702D01*
X155613354Y-83663840D01*
X155523571Y-83525056D01*
X155494822Y-83480617D01*
X155494820Y-83480614D01*
X155492014Y-83476277D01*
X155341670Y-83311051D01*
X155337619Y-83307852D01*
X155337615Y-83307848D01*
X155170414Y-83175800D01*
X155170410Y-83175798D01*
X155166359Y-83172598D01*
X155125053Y-83149796D01*
X155075084Y-83099364D01*
X155060312Y-83029921D01*
X155085428Y-82963516D01*
X155112780Y-82936909D01*
X155175677Y-82892045D01*
X155291860Y-82809173D01*
X155316620Y-82784500D01*
X155393691Y-82707697D01*
X155450096Y-82651489D01*
X155491139Y-82594372D01*
X155577435Y-82474277D01*
X155580453Y-82470077D01*
X155601320Y-82427857D01*
X155677136Y-82274453D01*
X155677137Y-82274451D01*
X155679430Y-82269811D01*
X155744370Y-82056069D01*
X155773529Y-81834590D01*
X155774507Y-81794565D01*
X155775074Y-81771365D01*
X155775074Y-81771361D01*
X155775156Y-81768000D01*
X155756852Y-81545361D01*
X155702431Y-81328702D01*
X155613354Y-81123840D01*
X155554306Y-81032565D01*
X155494822Y-80940617D01*
X155494820Y-80940614D01*
X155492014Y-80936277D01*
X155341670Y-80771051D01*
X155337619Y-80767852D01*
X155337615Y-80767848D01*
X155170414Y-80635800D01*
X155170410Y-80635798D01*
X155166359Y-80632598D01*
X155125053Y-80609796D01*
X155075084Y-80559364D01*
X155060312Y-80489921D01*
X155085428Y-80423516D01*
X155112780Y-80396909D01*
X155181760Y-80347706D01*
X155291860Y-80269173D01*
X155322377Y-80238763D01*
X155395273Y-80166121D01*
X155450096Y-80111489D01*
X155509594Y-80028689D01*
X155577435Y-79934277D01*
X155580453Y-79930077D01*
X155601320Y-79887857D01*
X155677136Y-79734453D01*
X155677137Y-79734451D01*
X155679430Y-79729811D01*
X155744370Y-79516069D01*
X155773529Y-79294590D01*
X155775156Y-79228000D01*
X155756852Y-79005361D01*
X155702431Y-78788702D01*
X155613354Y-78583840D01*
X155492014Y-78396277D01*
X155341670Y-78231051D01*
X155337619Y-78227852D01*
X155337615Y-78227848D01*
X155170414Y-78095800D01*
X155170410Y-78095798D01*
X155166359Y-78092598D01*
X155124569Y-78069529D01*
X155074598Y-78019097D01*
X155059826Y-77949654D01*
X155084942Y-77883248D01*
X155112294Y-77856641D01*
X155287328Y-77731792D01*
X155295200Y-77725139D01*
X155446052Y-77574812D01*
X155452730Y-77566965D01*
X155577003Y-77394020D01*
X155582313Y-77385183D01*
X155676670Y-77194267D01*
X155680469Y-77184672D01*
X155742377Y-76980910D01*
X155744555Y-76970837D01*
X155745986Y-76959962D01*
X155743775Y-76945778D01*
X155730617Y-76942000D01*
X150555225Y-76942000D01*
X150541694Y-76945973D01*
X150540257Y-76955966D01*
X150570565Y-77090446D01*
X150573645Y-77100275D01*
X150653770Y-77297603D01*
X150658413Y-77306794D01*
X150769694Y-77488388D01*
X150775777Y-77496699D01*
X150915213Y-77657667D01*
X150922580Y-77664883D01*
X151086434Y-77800916D01*
X151094881Y-77806831D01*
X151163969Y-77847203D01*
X151212693Y-77898842D01*
X151225764Y-77968625D01*
X151199033Y-78034396D01*
X151158584Y-78067752D01*
X151145607Y-78074507D01*
X151141474Y-78077610D01*
X151141471Y-78077612D01*
X150971100Y-78205530D01*
X150966965Y-78208635D01*
X150812629Y-78370138D01*
X150809720Y-78374403D01*
X150809714Y-78374411D01*
X150791838Y-78400617D01*
X150686743Y-78554680D01*
X150592688Y-78757305D01*
X150532989Y-78972570D01*
X150509251Y-79194695D01*
X150509548Y-79199848D01*
X150509548Y-79199851D01*
X150514968Y-79293852D01*
X150522110Y-79417715D01*
X150523247Y-79422761D01*
X150523248Y-79422767D01*
X150543119Y-79510939D01*
X150571222Y-79635639D01*
X150655266Y-79842616D01*
X150706019Y-79925438D01*
X150769291Y-80028688D01*
X150771987Y-80033088D01*
X150918250Y-80201938D01*
X151090126Y-80344632D01*
X151151411Y-80380444D01*
X151163445Y-80387476D01*
X151212169Y-80439114D01*
X151225240Y-80508897D01*
X151198509Y-80574669D01*
X151158055Y-80608027D01*
X151145607Y-80614507D01*
X151141474Y-80617610D01*
X151141471Y-80617612D01*
X150971227Y-80745435D01*
X150966965Y-80748635D01*
X150812629Y-80910138D01*
X150686743Y-81094680D01*
X150592688Y-81297305D01*
X150532989Y-81512570D01*
X150509251Y-81734695D01*
X150509548Y-81739848D01*
X150509548Y-81739851D01*
X150514988Y-81834202D01*
X150522110Y-81957715D01*
X150523247Y-81962761D01*
X150523248Y-81962767D01*
X150533477Y-82008154D01*
X150571222Y-82175639D01*
X150655266Y-82382616D01*
X150706019Y-82465438D01*
X150769291Y-82568688D01*
X150771987Y-82573088D01*
X150918250Y-82741938D01*
X151090126Y-82884632D01*
X151115051Y-82899197D01*
X151163445Y-82927476D01*
X151212169Y-82979114D01*
X151225240Y-83048897D01*
X151198509Y-83114669D01*
X151158055Y-83148027D01*
X151152060Y-83151148D01*
X151145607Y-83154507D01*
X151141474Y-83157610D01*
X151141471Y-83157612D01*
X150971100Y-83285530D01*
X150966965Y-83288635D01*
X150963393Y-83292373D01*
X150871967Y-83388045D01*
X150812629Y-83450138D01*
X150809720Y-83454403D01*
X150809714Y-83454411D01*
X150781777Y-83495365D01*
X150686743Y-83634680D01*
X150656625Y-83699565D01*
X150610163Y-83799659D01*
X150592688Y-83837305D01*
X150532989Y-84052570D01*
X150509251Y-84274695D01*
X150509548Y-84279848D01*
X150509548Y-84279851D01*
X150515202Y-84377908D01*
X150522110Y-84497715D01*
X150523247Y-84502761D01*
X150523248Y-84502767D01*
X150525508Y-84512794D01*
X150571222Y-84715639D01*
X150609461Y-84809811D01*
X150648197Y-84905206D01*
X150655266Y-84922616D01*
X150706019Y-85005438D01*
X150769291Y-85108688D01*
X150771987Y-85113088D01*
X150918250Y-85281938D01*
X151090126Y-85424632D01*
X151160595Y-85465811D01*
X151163445Y-85467476D01*
X151212169Y-85519114D01*
X151225240Y-85588897D01*
X151198509Y-85654669D01*
X151158055Y-85688027D01*
X151145607Y-85694507D01*
X151141474Y-85697610D01*
X151141471Y-85697612D01*
X151117247Y-85715800D01*
X150966965Y-85828635D01*
X150812629Y-85990138D01*
X150686743Y-86174680D01*
X150592688Y-86377305D01*
X150532989Y-86592570D01*
X150509251Y-86814695D01*
X150509548Y-86819848D01*
X150509548Y-86819851D01*
X150515011Y-86914590D01*
X150522110Y-87037715D01*
X150523247Y-87042761D01*
X150523248Y-87042767D01*
X150525186Y-87051365D01*
X150571222Y-87255639D01*
X150655266Y-87462616D01*
X150696411Y-87529759D01*
X150769291Y-87648688D01*
X150771987Y-87653088D01*
X150918250Y-87821938D01*
X151090126Y-87964632D01*
X151160595Y-88005811D01*
X151163445Y-88007476D01*
X151212169Y-88059114D01*
X151225240Y-88128897D01*
X151198509Y-88194669D01*
X151158055Y-88228027D01*
X151145607Y-88234507D01*
X151141474Y-88237610D01*
X151141471Y-88237612D01*
X151079022Y-88284500D01*
X150966965Y-88368635D01*
X150812629Y-88530138D01*
X150686743Y-88714680D01*
X150592688Y-88917305D01*
X150532989Y-89132570D01*
X150509251Y-89354695D01*
X150509548Y-89359848D01*
X150509548Y-89359851D01*
X150515011Y-89454590D01*
X150522110Y-89577715D01*
X150523247Y-89582761D01*
X150523248Y-89582767D01*
X150543119Y-89670939D01*
X150571222Y-89795639D01*
X150655266Y-90002616D01*
X150706019Y-90085438D01*
X150769291Y-90188688D01*
X150771987Y-90193088D01*
X150775366Y-90196989D01*
X150775372Y-90196997D01*
X150812795Y-90240199D01*
X150842278Y-90304784D01*
X150832163Y-90375056D01*
X150785662Y-90428705D01*
X150717538Y-90448696D01*
X150691360Y-90445942D01*
X150622351Y-90431273D01*
X150622342Y-90431272D01*
X150615887Y-90429900D01*
X150424913Y-90429900D01*
X150418461Y-90431272D01*
X150418456Y-90431272D01*
X150336485Y-90448696D01*
X150238112Y-90469606D01*
X150232082Y-90472291D01*
X150232081Y-90472291D01*
X150069678Y-90544597D01*
X150069676Y-90544598D01*
X150063648Y-90547282D01*
X150058307Y-90551162D01*
X150058306Y-90551163D01*
X150047663Y-90558896D01*
X149909147Y-90659534D01*
X149904726Y-90664444D01*
X149904725Y-90664445D01*
X149811460Y-90768027D01*
X149781360Y-90801456D01*
X149759278Y-90839703D01*
X149695458Y-90950243D01*
X149685873Y-90966844D01*
X149626858Y-91148472D01*
X149606896Y-91338400D01*
X86563015Y-91338400D01*
X86563015Y-87376000D01*
X126721496Y-87376000D01*
X126722186Y-87382565D01*
X126739863Y-87550749D01*
X126741458Y-87565928D01*
X126800473Y-87747556D01*
X126895960Y-87912944D01*
X126900378Y-87917851D01*
X126900379Y-87917852D01*
X127013527Y-88043516D01*
X127023747Y-88054866D01*
X127178248Y-88167118D01*
X127184276Y-88169802D01*
X127184278Y-88169803D01*
X127319028Y-88229797D01*
X127352712Y-88244794D01*
X127446112Y-88264647D01*
X127533056Y-88283128D01*
X127533061Y-88283128D01*
X127539513Y-88284500D01*
X127730487Y-88284500D01*
X127736939Y-88283128D01*
X127736944Y-88283128D01*
X127823888Y-88264647D01*
X127917288Y-88244794D01*
X127950972Y-88229797D01*
X128085722Y-88169803D01*
X128085724Y-88169802D01*
X128091752Y-88167118D01*
X128246253Y-88054866D01*
X128256473Y-88043516D01*
X128369621Y-87917852D01*
X128369622Y-87917851D01*
X128374040Y-87912944D01*
X128469527Y-87747556D01*
X128483630Y-87704153D01*
X128523702Y-87645548D01*
X128589099Y-87617911D01*
X128659055Y-87630018D01*
X128677517Y-87641150D01*
X128702248Y-87659118D01*
X128708276Y-87661802D01*
X128708278Y-87661803D01*
X128870681Y-87734109D01*
X128876712Y-87736794D01*
X128970112Y-87756647D01*
X129057056Y-87775128D01*
X129057061Y-87775128D01*
X129063513Y-87776500D01*
X129254487Y-87776500D01*
X129260939Y-87775128D01*
X129260944Y-87775128D01*
X129347887Y-87756647D01*
X129441288Y-87736794D01*
X129447319Y-87734109D01*
X129609722Y-87661803D01*
X129609724Y-87661802D01*
X129615752Y-87659118D01*
X129634430Y-87645548D01*
X129672468Y-87617911D01*
X129770253Y-87546866D01*
X129898040Y-87404944D01*
X129981478Y-87260425D01*
X129990223Y-87245279D01*
X129990224Y-87245278D01*
X129993527Y-87239556D01*
X130052542Y-87057928D01*
X130054136Y-87042767D01*
X130071814Y-86874565D01*
X130072504Y-86868000D01*
X133960496Y-86868000D01*
X133961186Y-86874565D01*
X133978865Y-87042767D01*
X133980458Y-87057928D01*
X134039473Y-87239556D01*
X134042776Y-87245278D01*
X134042777Y-87245279D01*
X134051522Y-87260425D01*
X134134960Y-87404944D01*
X134262747Y-87546866D01*
X134360532Y-87617911D01*
X134398571Y-87645548D01*
X134417248Y-87659118D01*
X134423276Y-87661802D01*
X134423278Y-87661803D01*
X134585681Y-87734109D01*
X134591712Y-87736794D01*
X134685112Y-87756647D01*
X134772056Y-87775128D01*
X134772061Y-87775128D01*
X134778513Y-87776500D01*
X134969487Y-87776500D01*
X134975939Y-87775128D01*
X134975944Y-87775128D01*
X135062887Y-87756647D01*
X135156288Y-87736794D01*
X135162319Y-87734109D01*
X135324722Y-87661803D01*
X135324724Y-87661802D01*
X135330752Y-87659118D01*
X135349430Y-87645548D01*
X135387468Y-87617911D01*
X135485253Y-87546866D01*
X135613040Y-87404944D01*
X135696478Y-87260425D01*
X135705223Y-87245279D01*
X135705224Y-87245278D01*
X135708527Y-87239556D01*
X135767542Y-87057928D01*
X135769136Y-87042767D01*
X135786814Y-86874565D01*
X135787504Y-86868000D01*
X135782443Y-86819851D01*
X135768232Y-86684635D01*
X135768232Y-86684633D01*
X135767542Y-86678072D01*
X135708527Y-86496444D01*
X135613040Y-86331056D01*
X135485253Y-86189134D01*
X135330752Y-86076882D01*
X135324724Y-86074198D01*
X135324722Y-86074197D01*
X135162319Y-86001891D01*
X135162318Y-86001891D01*
X135156288Y-85999206D01*
X135062888Y-85979353D01*
X134975944Y-85960872D01*
X134975939Y-85960872D01*
X134969487Y-85959500D01*
X134778513Y-85959500D01*
X134772061Y-85960872D01*
X134772056Y-85960872D01*
X134685112Y-85979353D01*
X134591712Y-85999206D01*
X134585682Y-86001891D01*
X134585681Y-86001891D01*
X134423278Y-86074197D01*
X134423276Y-86074198D01*
X134417248Y-86076882D01*
X134262747Y-86189134D01*
X134134960Y-86331056D01*
X134039473Y-86496444D01*
X133980458Y-86678072D01*
X133979768Y-86684633D01*
X133979768Y-86684635D01*
X133965557Y-86819851D01*
X133960496Y-86868000D01*
X130072504Y-86868000D01*
X130067443Y-86819851D01*
X130053232Y-86684635D01*
X130053232Y-86684633D01*
X130052542Y-86678072D01*
X129993527Y-86496444D01*
X129898040Y-86331056D01*
X129770253Y-86189134D01*
X129615752Y-86076882D01*
X129609724Y-86074198D01*
X129609722Y-86074197D01*
X129447319Y-86001891D01*
X129447318Y-86001891D01*
X129441288Y-85999206D01*
X129347888Y-85979353D01*
X129260944Y-85960872D01*
X129260939Y-85960872D01*
X129254487Y-85959500D01*
X129063513Y-85959500D01*
X129057061Y-85960872D01*
X129057056Y-85960872D01*
X128970112Y-85979353D01*
X128876712Y-85999206D01*
X128870682Y-86001891D01*
X128870681Y-86001891D01*
X128708278Y-86074197D01*
X128708276Y-86074198D01*
X128702248Y-86076882D01*
X128547747Y-86189134D01*
X128419960Y-86331056D01*
X128324473Y-86496444D01*
X128322432Y-86502726D01*
X128322431Y-86502728D01*
X128310371Y-86539846D01*
X128270298Y-86598452D01*
X128204901Y-86626089D01*
X128134945Y-86613982D01*
X128116483Y-86602850D01*
X128091752Y-86584882D01*
X128085724Y-86582198D01*
X128085722Y-86582197D01*
X127923319Y-86509891D01*
X127923318Y-86509891D01*
X127917288Y-86507206D01*
X127823887Y-86487353D01*
X127736944Y-86468872D01*
X127736939Y-86468872D01*
X127730487Y-86467500D01*
X127539513Y-86467500D01*
X127533061Y-86468872D01*
X127533056Y-86468872D01*
X127446113Y-86487353D01*
X127352712Y-86507206D01*
X127346682Y-86509891D01*
X127346681Y-86509891D01*
X127184278Y-86582197D01*
X127184276Y-86582198D01*
X127178248Y-86584882D01*
X127172907Y-86588762D01*
X127172906Y-86588763D01*
X127153523Y-86602846D01*
X127023747Y-86697134D01*
X126895960Y-86839056D01*
X126800473Y-87004444D01*
X126741458Y-87186072D01*
X126721496Y-87376000D01*
X86563015Y-87376000D01*
X86563015Y-84062000D01*
X109945496Y-84062000D01*
X109946186Y-84068565D01*
X109964200Y-84239955D01*
X109965458Y-84251928D01*
X110024473Y-84433556D01*
X110119960Y-84598944D01*
X110124378Y-84603851D01*
X110124379Y-84603852D01*
X110229342Y-84720425D01*
X110247747Y-84740866D01*
X110402248Y-84853118D01*
X110408276Y-84855802D01*
X110408278Y-84855803D01*
X110568235Y-84927020D01*
X110576712Y-84930794D01*
X110670112Y-84950647D01*
X110757056Y-84969128D01*
X110757061Y-84969128D01*
X110763513Y-84970500D01*
X110954487Y-84970500D01*
X110960939Y-84969128D01*
X110960944Y-84969128D01*
X111047888Y-84950647D01*
X111141288Y-84930794D01*
X111149765Y-84927020D01*
X111309722Y-84855803D01*
X111309724Y-84855802D01*
X111315752Y-84853118D01*
X111470253Y-84740866D01*
X111488658Y-84720425D01*
X111593621Y-84603852D01*
X111593622Y-84603851D01*
X111598040Y-84598944D01*
X111693527Y-84433556D01*
X111752542Y-84251928D01*
X111753801Y-84239955D01*
X111771814Y-84068565D01*
X111772504Y-84062000D01*
X111765028Y-83990866D01*
X111753232Y-83878635D01*
X111753232Y-83878633D01*
X111752542Y-83872072D01*
X111693527Y-83690444D01*
X111598040Y-83525056D01*
X111577216Y-83501928D01*
X111474675Y-83388045D01*
X111474674Y-83388044D01*
X111470253Y-83383134D01*
X111372346Y-83312000D01*
X117196496Y-83312000D01*
X117197186Y-83318565D01*
X117213361Y-83472457D01*
X117216458Y-83501928D01*
X117275473Y-83683556D01*
X117278776Y-83689278D01*
X117278777Y-83689279D01*
X117284716Y-83699565D01*
X117370960Y-83848944D01*
X117375378Y-83853851D01*
X117375379Y-83853852D01*
X117494325Y-83985955D01*
X117498747Y-83990866D01*
X117653248Y-84103118D01*
X117659276Y-84105802D01*
X117659278Y-84105803D01*
X117815720Y-84175455D01*
X117827712Y-84180794D01*
X117921113Y-84200647D01*
X118008056Y-84219128D01*
X118008061Y-84219128D01*
X118014513Y-84220500D01*
X118205487Y-84220500D01*
X118211939Y-84219128D01*
X118211944Y-84219128D01*
X118298887Y-84200647D01*
X118392288Y-84180794D01*
X118404280Y-84175455D01*
X118560722Y-84105803D01*
X118560724Y-84105802D01*
X118566752Y-84103118D01*
X118721253Y-83990866D01*
X118725675Y-83985955D01*
X118844621Y-83853852D01*
X118844622Y-83853851D01*
X118849040Y-83848944D01*
X118935284Y-83699565D01*
X118941223Y-83689279D01*
X118941224Y-83689278D01*
X118944527Y-83683556D01*
X119003542Y-83501928D01*
X119003587Y-83501500D01*
X124816496Y-83501500D01*
X124817186Y-83508065D01*
X124835631Y-83683556D01*
X124836458Y-83691428D01*
X124895473Y-83873056D01*
X124898776Y-83878778D01*
X124898777Y-83878779D01*
X124904797Y-83889206D01*
X124990960Y-84038444D01*
X125118747Y-84180366D01*
X125273248Y-84292618D01*
X125279276Y-84295302D01*
X125279278Y-84295303D01*
X125440212Y-84366955D01*
X125447712Y-84370294D01*
X125541112Y-84390147D01*
X125628056Y-84408628D01*
X125628061Y-84408628D01*
X125634513Y-84410000D01*
X125825487Y-84410000D01*
X125831939Y-84408628D01*
X125831944Y-84408628D01*
X125918888Y-84390147D01*
X126012288Y-84370294D01*
X126019788Y-84366955D01*
X126180722Y-84295303D01*
X126180724Y-84295302D01*
X126186752Y-84292618D01*
X126242757Y-84251928D01*
X126319848Y-84195918D01*
X126386716Y-84172059D01*
X126455867Y-84188140D01*
X126487541Y-84213540D01*
X126515747Y-84244866D01*
X126525467Y-84251928D01*
X126651820Y-84343729D01*
X126670248Y-84357118D01*
X126676276Y-84359802D01*
X126676278Y-84359803D01*
X126789023Y-84410000D01*
X126844712Y-84434794D01*
X126938112Y-84454647D01*
X127025056Y-84473128D01*
X127025061Y-84473128D01*
X127031513Y-84474500D01*
X127222487Y-84474500D01*
X127228939Y-84473128D01*
X127228944Y-84473128D01*
X127315888Y-84454647D01*
X127409288Y-84434794D01*
X127464977Y-84410000D01*
X127577722Y-84359803D01*
X127577724Y-84359802D01*
X127583752Y-84357118D01*
X127602181Y-84343729D01*
X127728533Y-84251928D01*
X127738253Y-84244866D01*
X127761428Y-84219128D01*
X127861621Y-84107852D01*
X127861622Y-84107851D01*
X127866040Y-84102944D01*
X127925501Y-83999955D01*
X127976884Y-83950962D01*
X128046597Y-83937526D01*
X128112508Y-83963912D01*
X128143737Y-83999952D01*
X128165960Y-84038444D01*
X128293747Y-84180366D01*
X128448248Y-84292618D01*
X128454276Y-84295302D01*
X128454278Y-84295303D01*
X128615212Y-84366955D01*
X128622712Y-84370294D01*
X128716112Y-84390147D01*
X128803056Y-84408628D01*
X128803061Y-84408628D01*
X128809513Y-84410000D01*
X129000487Y-84410000D01*
X129006939Y-84408628D01*
X129006944Y-84408628D01*
X129093888Y-84390147D01*
X129187288Y-84370294D01*
X129194788Y-84366955D01*
X129355722Y-84295303D01*
X129355724Y-84295302D01*
X129361752Y-84292618D01*
X129516253Y-84180366D01*
X129644040Y-84038444D01*
X129730203Y-83889206D01*
X129736223Y-83878779D01*
X129736224Y-83878778D01*
X129739527Y-83873056D01*
X129798031Y-83693000D01*
X143358496Y-83693000D01*
X143359186Y-83699565D01*
X143374188Y-83842297D01*
X143378458Y-83882928D01*
X143437473Y-84064556D01*
X143440776Y-84070278D01*
X143440777Y-84070279D01*
X143456335Y-84097226D01*
X143532960Y-84229944D01*
X143660747Y-84371866D01*
X143713234Y-84410000D01*
X143800122Y-84473128D01*
X143815248Y-84484118D01*
X143821276Y-84486802D01*
X143821278Y-84486803D01*
X143893756Y-84519072D01*
X143989712Y-84561794D01*
X143996173Y-84563167D01*
X143996172Y-84563167D01*
X144021798Y-84568614D01*
X144084272Y-84602341D01*
X144118594Y-84664490D01*
X144120387Y-84695829D01*
X144121186Y-84695829D01*
X144121186Y-84702435D01*
X144120496Y-84709000D01*
X144121186Y-84715565D01*
X144131092Y-84809811D01*
X144140458Y-84898928D01*
X144199473Y-85080556D01*
X144294960Y-85245944D01*
X144299378Y-85250851D01*
X144299379Y-85250852D01*
X144387908Y-85349173D01*
X144422747Y-85387866D01*
X144468802Y-85421327D01*
X144548039Y-85478896D01*
X144577248Y-85500118D01*
X144583276Y-85502802D01*
X144583278Y-85502803D01*
X144745681Y-85575109D01*
X144751712Y-85577794D01*
X144815521Y-85591357D01*
X144932056Y-85616128D01*
X144932061Y-85616128D01*
X144938513Y-85617500D01*
X145129487Y-85617500D01*
X145135939Y-85616128D01*
X145135944Y-85616128D01*
X145252479Y-85591357D01*
X145316288Y-85577794D01*
X145322319Y-85575109D01*
X145484722Y-85502803D01*
X145484724Y-85502802D01*
X145490752Y-85500118D01*
X145519962Y-85478896D01*
X145599198Y-85421327D01*
X145645253Y-85387866D01*
X145680092Y-85349173D01*
X145768621Y-85250852D01*
X145768622Y-85250851D01*
X145773040Y-85245944D01*
X145868527Y-85080556D01*
X145927542Y-84898928D01*
X145936909Y-84809811D01*
X145946814Y-84715565D01*
X145947504Y-84709000D01*
X145935228Y-84592202D01*
X145928232Y-84525635D01*
X145928232Y-84525633D01*
X145927542Y-84519072D01*
X145868527Y-84337444D01*
X145851528Y-84308000D01*
X145812244Y-84239960D01*
X145773040Y-84172056D01*
X145690461Y-84080342D01*
X145649675Y-84035045D01*
X145649674Y-84035044D01*
X145645253Y-84030134D01*
X145490752Y-83917882D01*
X145484724Y-83915198D01*
X145484722Y-83915197D01*
X145322319Y-83842891D01*
X145322318Y-83842891D01*
X145316288Y-83840206D01*
X145284202Y-83833386D01*
X145221728Y-83799659D01*
X145187406Y-83737510D01*
X145185613Y-83706171D01*
X145184814Y-83706171D01*
X145184814Y-83699565D01*
X145185504Y-83693000D01*
X145165542Y-83503072D01*
X145106527Y-83321444D01*
X145102732Y-83314870D01*
X145053077Y-83228866D01*
X145011040Y-83156056D01*
X145005405Y-83149797D01*
X144887675Y-83019045D01*
X144887674Y-83019044D01*
X144883253Y-83014134D01*
X144755831Y-82921556D01*
X144734094Y-82905763D01*
X144734093Y-82905762D01*
X144728752Y-82901882D01*
X144722724Y-82899198D01*
X144722722Y-82899197D01*
X144560319Y-82826891D01*
X144560318Y-82826891D01*
X144554288Y-82824206D01*
X144460888Y-82804353D01*
X144373944Y-82785872D01*
X144373939Y-82785872D01*
X144367487Y-82784500D01*
X144176513Y-82784500D01*
X144170061Y-82785872D01*
X144170056Y-82785872D01*
X144083112Y-82804353D01*
X143989712Y-82824206D01*
X143983682Y-82826891D01*
X143983681Y-82826891D01*
X143821278Y-82899197D01*
X143821276Y-82899198D01*
X143815248Y-82901882D01*
X143809907Y-82905762D01*
X143809906Y-82905763D01*
X143788169Y-82921556D01*
X143660747Y-83014134D01*
X143656326Y-83019044D01*
X143656325Y-83019045D01*
X143538596Y-83149797D01*
X143532960Y-83156056D01*
X143490923Y-83228866D01*
X143441269Y-83314870D01*
X143437473Y-83321444D01*
X143378458Y-83503072D01*
X143358496Y-83693000D01*
X129798031Y-83693000D01*
X129798542Y-83691428D01*
X129799370Y-83683556D01*
X129817814Y-83508065D01*
X129818504Y-83501500D01*
X129815853Y-83476277D01*
X129799232Y-83318135D01*
X129799232Y-83318133D01*
X129798542Y-83311572D01*
X129739527Y-83129944D01*
X129731358Y-83115794D01*
X129684579Y-83034771D01*
X129644040Y-82964556D01*
X129622330Y-82940444D01*
X129520675Y-82827545D01*
X129520674Y-82827544D01*
X129516253Y-82822634D01*
X129402418Y-82739928D01*
X129367094Y-82714263D01*
X129367093Y-82714262D01*
X129361752Y-82710382D01*
X129355724Y-82707698D01*
X129355722Y-82707697D01*
X129193319Y-82635391D01*
X129193318Y-82635391D01*
X129187288Y-82632706D01*
X129093887Y-82612853D01*
X129006944Y-82594372D01*
X129006939Y-82594372D01*
X129000487Y-82593000D01*
X128809513Y-82593000D01*
X128803061Y-82594372D01*
X128803056Y-82594372D01*
X128716113Y-82612853D01*
X128622712Y-82632706D01*
X128616682Y-82635391D01*
X128616681Y-82635391D01*
X128454278Y-82707697D01*
X128454276Y-82707698D01*
X128448248Y-82710382D01*
X128442907Y-82714262D01*
X128442906Y-82714263D01*
X128407582Y-82739928D01*
X128293747Y-82822634D01*
X128289326Y-82827544D01*
X128289325Y-82827545D01*
X128187671Y-82940444D01*
X128165960Y-82964556D01*
X128128721Y-83029056D01*
X128106499Y-83067545D01*
X128055116Y-83116538D01*
X127985403Y-83129974D01*
X127919492Y-83103588D01*
X127888263Y-83067548D01*
X127866040Y-83029056D01*
X127786254Y-82940444D01*
X127742675Y-82892045D01*
X127742674Y-82892044D01*
X127738253Y-82887134D01*
X127625934Y-82805529D01*
X127589094Y-82778763D01*
X127589093Y-82778762D01*
X127583752Y-82774882D01*
X127577724Y-82772198D01*
X127577722Y-82772197D01*
X127415319Y-82699891D01*
X127415318Y-82699891D01*
X127409288Y-82697206D01*
X127315888Y-82677353D01*
X127228944Y-82658872D01*
X127228939Y-82658872D01*
X127222487Y-82657500D01*
X127031513Y-82657500D01*
X127025061Y-82658872D01*
X127025056Y-82658872D01*
X126938112Y-82677353D01*
X126844712Y-82697206D01*
X126838682Y-82699891D01*
X126838681Y-82699891D01*
X126676278Y-82772197D01*
X126676276Y-82772198D01*
X126670248Y-82774882D01*
X126664907Y-82778762D01*
X126664906Y-82778763D01*
X126537152Y-82871582D01*
X126470284Y-82895441D01*
X126401133Y-82879360D01*
X126369459Y-82853960D01*
X126341253Y-82822634D01*
X126227418Y-82739928D01*
X126192094Y-82714263D01*
X126192093Y-82714262D01*
X126186752Y-82710382D01*
X126180724Y-82707698D01*
X126180722Y-82707697D01*
X126018319Y-82635391D01*
X126018318Y-82635391D01*
X126012288Y-82632706D01*
X125918887Y-82612853D01*
X125831944Y-82594372D01*
X125831939Y-82594372D01*
X125825487Y-82593000D01*
X125634513Y-82593000D01*
X125628061Y-82594372D01*
X125628056Y-82594372D01*
X125541113Y-82612853D01*
X125447712Y-82632706D01*
X125441682Y-82635391D01*
X125441681Y-82635391D01*
X125279278Y-82707697D01*
X125279276Y-82707698D01*
X125273248Y-82710382D01*
X125267907Y-82714262D01*
X125267906Y-82714263D01*
X125232582Y-82739928D01*
X125118747Y-82822634D01*
X125114326Y-82827544D01*
X125114325Y-82827545D01*
X125012671Y-82940444D01*
X124990960Y-82964556D01*
X124950421Y-83034771D01*
X124903643Y-83115794D01*
X124895473Y-83129944D01*
X124836458Y-83311572D01*
X124835768Y-83318133D01*
X124835768Y-83318135D01*
X124819147Y-83476277D01*
X124816496Y-83501500D01*
X119003587Y-83501500D01*
X119006640Y-83472457D01*
X119022814Y-83318565D01*
X119023504Y-83312000D01*
X119018900Y-83268197D01*
X119004232Y-83128635D01*
X119004232Y-83128633D01*
X119003542Y-83122072D01*
X118944527Y-82940444D01*
X118918545Y-82895441D01*
X118894593Y-82853956D01*
X118849040Y-82775056D01*
X118823064Y-82746206D01*
X118722312Y-82634310D01*
X118691594Y-82570303D01*
X118694120Y-82550000D01*
X141580496Y-82550000D01*
X141581186Y-82556565D01*
X141597761Y-82714263D01*
X141600458Y-82739928D01*
X141659473Y-82921556D01*
X141754960Y-83086944D01*
X141759378Y-83091851D01*
X141759379Y-83091852D01*
X141851753Y-83194444D01*
X141882747Y-83228866D01*
X141940577Y-83270882D01*
X142018820Y-83327729D01*
X142037248Y-83341118D01*
X142043276Y-83343802D01*
X142043278Y-83343803D01*
X142142648Y-83388045D01*
X142211712Y-83418794D01*
X142305112Y-83438647D01*
X142392056Y-83457128D01*
X142392061Y-83457128D01*
X142398513Y-83458500D01*
X142589487Y-83458500D01*
X142595939Y-83457128D01*
X142595944Y-83457128D01*
X142682888Y-83438647D01*
X142776288Y-83418794D01*
X142845352Y-83388045D01*
X142944722Y-83343803D01*
X142944724Y-83343802D01*
X142950752Y-83341118D01*
X142969181Y-83327729D01*
X143047423Y-83270882D01*
X143105253Y-83228866D01*
X143136247Y-83194444D01*
X143228621Y-83091852D01*
X143228622Y-83091851D01*
X143233040Y-83086944D01*
X143328527Y-82921556D01*
X143387542Y-82739928D01*
X143390240Y-82714263D01*
X143406814Y-82556565D01*
X143407504Y-82550000D01*
X143396273Y-82443144D01*
X143388232Y-82366635D01*
X143388232Y-82366633D01*
X143387542Y-82360072D01*
X143328527Y-82178444D01*
X143233040Y-82013056D01*
X143228620Y-82008147D01*
X143228617Y-82008143D01*
X143223827Y-82002823D01*
X143193109Y-81938816D01*
X143201872Y-81868362D01*
X143223825Y-81834202D01*
X143236790Y-81819803D01*
X143296540Y-81753444D01*
X143392027Y-81588056D01*
X143451042Y-81406428D01*
X143451975Y-81397556D01*
X143470314Y-81223065D01*
X143471004Y-81216500D01*
X143459720Y-81109134D01*
X143451732Y-81033135D01*
X143451732Y-81033133D01*
X143451042Y-81026572D01*
X143392027Y-80844944D01*
X143296540Y-80679556D01*
X143248468Y-80626166D01*
X143173175Y-80542545D01*
X143173174Y-80542544D01*
X143168753Y-80537634D01*
X143064150Y-80461635D01*
X143019594Y-80429263D01*
X143019593Y-80429262D01*
X143014252Y-80425382D01*
X143008224Y-80422698D01*
X143008222Y-80422697D01*
X142845819Y-80350391D01*
X142845818Y-80350391D01*
X142839788Y-80347706D01*
X142746387Y-80327853D01*
X142659444Y-80309372D01*
X142659439Y-80309372D01*
X142652987Y-80308000D01*
X142462013Y-80308000D01*
X142455561Y-80309372D01*
X142455556Y-80309372D01*
X142368613Y-80327853D01*
X142275212Y-80347706D01*
X142269182Y-80350391D01*
X142269181Y-80350391D01*
X142106778Y-80422697D01*
X142106776Y-80422698D01*
X142100748Y-80425382D01*
X142095407Y-80429262D01*
X142095406Y-80429263D01*
X142050850Y-80461635D01*
X141946247Y-80537634D01*
X141941826Y-80542544D01*
X141941825Y-80542545D01*
X141866533Y-80626166D01*
X141818460Y-80679556D01*
X141722973Y-80844944D01*
X141663958Y-81026572D01*
X141663268Y-81033133D01*
X141663268Y-81033135D01*
X141655280Y-81109134D01*
X141643996Y-81216500D01*
X141644686Y-81223065D01*
X141663026Y-81397556D01*
X141663958Y-81406428D01*
X141722973Y-81588056D01*
X141726276Y-81593778D01*
X141726277Y-81593779D01*
X141764799Y-81660500D01*
X141818460Y-81753444D01*
X141822880Y-81758353D01*
X141822883Y-81758357D01*
X141827673Y-81763677D01*
X141858391Y-81827684D01*
X141849628Y-81898138D01*
X141827676Y-81932297D01*
X141754960Y-82013056D01*
X141659473Y-82178444D01*
X141600458Y-82360072D01*
X141599768Y-82366633D01*
X141599768Y-82366635D01*
X141591727Y-82443144D01*
X141580496Y-82550000D01*
X118694120Y-82550000D01*
X118700359Y-82499849D01*
X118722312Y-82465690D01*
X118844621Y-82329852D01*
X118844622Y-82329851D01*
X118849040Y-82324944D01*
X118933622Y-82178444D01*
X118941223Y-82165279D01*
X118941224Y-82165278D01*
X118944527Y-82159556D01*
X119003542Y-81977928D01*
X119005136Y-81962767D01*
X119022814Y-81794565D01*
X119023504Y-81788000D01*
X119018443Y-81739851D01*
X119004232Y-81604635D01*
X119004232Y-81604633D01*
X119003542Y-81598072D01*
X118944527Y-81416444D01*
X118849040Y-81251056D01*
X118823118Y-81222266D01*
X118725675Y-81114045D01*
X118725674Y-81114044D01*
X118721253Y-81109134D01*
X118598976Y-81020294D01*
X118572094Y-81000763D01*
X118572093Y-81000762D01*
X118566752Y-80996882D01*
X118560724Y-80994198D01*
X118560722Y-80994197D01*
X118398319Y-80921891D01*
X118398318Y-80921891D01*
X118392288Y-80919206D01*
X118298888Y-80899353D01*
X118211944Y-80880872D01*
X118211939Y-80880872D01*
X118205487Y-80879500D01*
X118014513Y-80879500D01*
X118008061Y-80880872D01*
X118008056Y-80880872D01*
X117921112Y-80899353D01*
X117827712Y-80919206D01*
X117821682Y-80921891D01*
X117821681Y-80921891D01*
X117659278Y-80994197D01*
X117659276Y-80994198D01*
X117653248Y-80996882D01*
X117647907Y-81000762D01*
X117647906Y-81000763D01*
X117621024Y-81020294D01*
X117498747Y-81109134D01*
X117494326Y-81114044D01*
X117494325Y-81114045D01*
X117396883Y-81222266D01*
X117370960Y-81251056D01*
X117275473Y-81416444D01*
X117216458Y-81598072D01*
X117215768Y-81604633D01*
X117215768Y-81604635D01*
X117201557Y-81739851D01*
X117196496Y-81788000D01*
X117197186Y-81794565D01*
X117214865Y-81962767D01*
X117216458Y-81977928D01*
X117275473Y-82159556D01*
X117278776Y-82165278D01*
X117278777Y-82165279D01*
X117286378Y-82178444D01*
X117370960Y-82324944D01*
X117375378Y-82329851D01*
X117375379Y-82329852D01*
X117497688Y-82465690D01*
X117528406Y-82529697D01*
X117519641Y-82600151D01*
X117497688Y-82634310D01*
X117396937Y-82746206D01*
X117370960Y-82775056D01*
X117325407Y-82853956D01*
X117301456Y-82895441D01*
X117275473Y-82940444D01*
X117216458Y-83122072D01*
X117215768Y-83128633D01*
X117215768Y-83128635D01*
X117201100Y-83268197D01*
X117196496Y-83312000D01*
X111372346Y-83312000D01*
X111315752Y-83270882D01*
X111309724Y-83268198D01*
X111309722Y-83268197D01*
X111147319Y-83195891D01*
X111147318Y-83195891D01*
X111141288Y-83193206D01*
X111044336Y-83172598D01*
X110960944Y-83154872D01*
X110960939Y-83154872D01*
X110954487Y-83153500D01*
X110763513Y-83153500D01*
X110757061Y-83154872D01*
X110757056Y-83154872D01*
X110673664Y-83172598D01*
X110576712Y-83193206D01*
X110570682Y-83195891D01*
X110570681Y-83195891D01*
X110408278Y-83268197D01*
X110408276Y-83268198D01*
X110402248Y-83270882D01*
X110247747Y-83383134D01*
X110243326Y-83388044D01*
X110243325Y-83388045D01*
X110140785Y-83501928D01*
X110119960Y-83525056D01*
X110024473Y-83690444D01*
X109965458Y-83872072D01*
X109964768Y-83878633D01*
X109964768Y-83878635D01*
X109952972Y-83990866D01*
X109945496Y-84062000D01*
X86563015Y-84062000D01*
X86563015Y-80752000D01*
X125070496Y-80752000D01*
X125071186Y-80758565D01*
X125089463Y-80932457D01*
X125090458Y-80941928D01*
X125149473Y-81123556D01*
X125244960Y-81288944D01*
X125249378Y-81293851D01*
X125249379Y-81293852D01*
X125350743Y-81406428D01*
X125372747Y-81430866D01*
X125401698Y-81451900D01*
X125488776Y-81515166D01*
X125527248Y-81543118D01*
X125533276Y-81545802D01*
X125533278Y-81545803D01*
X125641035Y-81593779D01*
X125701712Y-81620794D01*
X125795113Y-81640647D01*
X125882056Y-81659128D01*
X125882061Y-81659128D01*
X125888513Y-81660500D01*
X126079487Y-81660500D01*
X126085939Y-81659128D01*
X126085944Y-81659128D01*
X126172887Y-81640647D01*
X126266288Y-81620794D01*
X126326965Y-81593779D01*
X126434722Y-81545803D01*
X126434724Y-81545802D01*
X126440752Y-81543118D01*
X126479225Y-81515166D01*
X126566302Y-81451900D01*
X126595253Y-81430866D01*
X126617257Y-81406428D01*
X126718621Y-81293852D01*
X126718622Y-81293851D01*
X126723040Y-81288944D01*
X126818527Y-81123556D01*
X126877542Y-80941928D01*
X126878538Y-80932457D01*
X126896814Y-80758565D01*
X126897504Y-80752000D01*
X126888343Y-80664839D01*
X126878232Y-80568635D01*
X126878232Y-80568633D01*
X126877542Y-80562072D01*
X126818527Y-80380444D01*
X126799296Y-80347134D01*
X126768009Y-80292944D01*
X126723040Y-80215056D01*
X126595253Y-80073134D01*
X126440752Y-79960882D01*
X126434724Y-79958198D01*
X126434722Y-79958197D01*
X126272319Y-79885891D01*
X126272318Y-79885891D01*
X126266288Y-79883206D01*
X126146589Y-79857763D01*
X126085944Y-79844872D01*
X126085939Y-79844872D01*
X126079487Y-79843500D01*
X125888513Y-79843500D01*
X125882061Y-79844872D01*
X125882056Y-79844872D01*
X125821411Y-79857763D01*
X125701712Y-79883206D01*
X125695682Y-79885891D01*
X125695681Y-79885891D01*
X125533278Y-79958197D01*
X125533276Y-79958198D01*
X125527248Y-79960882D01*
X125372747Y-80073134D01*
X125244960Y-80215056D01*
X125199991Y-80292944D01*
X125168705Y-80347134D01*
X125149473Y-80380444D01*
X125090458Y-80562072D01*
X125089768Y-80568633D01*
X125089768Y-80568635D01*
X125079657Y-80664839D01*
X125070496Y-80752000D01*
X86563015Y-80752000D01*
X86563015Y-79501500D01*
X130404496Y-79501500D01*
X130405186Y-79508065D01*
X130420707Y-79655736D01*
X130424458Y-79691428D01*
X130483473Y-79873056D01*
X130578960Y-80038444D01*
X130583378Y-80043351D01*
X130583379Y-80043352D01*
X130653538Y-80121271D01*
X130706747Y-80180366D01*
X130762364Y-80220774D01*
X130853827Y-80287226D01*
X130861248Y-80292618D01*
X130867278Y-80295303D01*
X130873001Y-80298607D01*
X130872184Y-80300022D01*
X130920019Y-80340672D01*
X130940675Y-80408597D01*
X130935509Y-80442257D01*
X130935871Y-80442334D01*
X130934528Y-80448654D01*
X130934514Y-80448746D01*
X130932458Y-80455072D01*
X130931768Y-80461633D01*
X130931768Y-80461635D01*
X130914062Y-80630104D01*
X130912496Y-80645000D01*
X130913186Y-80651565D01*
X130921780Y-80733328D01*
X130932458Y-80834928D01*
X130991473Y-81016556D01*
X130994776Y-81022278D01*
X130994777Y-81022279D01*
X130997256Y-81026572D01*
X131086960Y-81181944D01*
X131091378Y-81186851D01*
X131091379Y-81186852D01*
X131183303Y-81288944D01*
X131214747Y-81323866D01*
X131233104Y-81337203D01*
X131350820Y-81422729D01*
X131369248Y-81436118D01*
X131375276Y-81438802D01*
X131375278Y-81438803D01*
X131404695Y-81451900D01*
X131543712Y-81513794D01*
X131637112Y-81533647D01*
X131724056Y-81552128D01*
X131724061Y-81552128D01*
X131730513Y-81553500D01*
X131921487Y-81553500D01*
X131927939Y-81552128D01*
X131927944Y-81552128D01*
X131995515Y-81537765D01*
X132066306Y-81543167D01*
X132115347Y-81576702D01*
X132230747Y-81704866D01*
X132297609Y-81753444D01*
X132354207Y-81794565D01*
X132385248Y-81817118D01*
X132391276Y-81819802D01*
X132391278Y-81819803D01*
X132553681Y-81892109D01*
X132559712Y-81894794D01*
X132648530Y-81913673D01*
X132740056Y-81933128D01*
X132740061Y-81933128D01*
X132746513Y-81934500D01*
X132937487Y-81934500D01*
X132943939Y-81933128D01*
X132943944Y-81933128D01*
X133035470Y-81913673D01*
X133124288Y-81894794D01*
X133130319Y-81892109D01*
X133292722Y-81819803D01*
X133292724Y-81819802D01*
X133298752Y-81817118D01*
X133329794Y-81794565D01*
X133386391Y-81753444D01*
X133453253Y-81704866D01*
X133553276Y-81593779D01*
X133576621Y-81567852D01*
X133576622Y-81567851D01*
X133581040Y-81562944D01*
X133656504Y-81432237D01*
X133673223Y-81403279D01*
X133673224Y-81403278D01*
X133676527Y-81397556D01*
X133735542Y-81215928D01*
X133744722Y-81128590D01*
X133754814Y-81032565D01*
X133755504Y-81026000D01*
X133744562Y-80921891D01*
X133736232Y-80842635D01*
X133736232Y-80842633D01*
X133735542Y-80836072D01*
X133676527Y-80654444D01*
X133671075Y-80645000D01*
X133614562Y-80547118D01*
X133581040Y-80489056D01*
X133544793Y-80448799D01*
X133457675Y-80352045D01*
X133457674Y-80352044D01*
X133453253Y-80347134D01*
X133298752Y-80234882D01*
X133292724Y-80232198D01*
X133292722Y-80232197D01*
X133130319Y-80159891D01*
X133130318Y-80159891D01*
X133124288Y-80157206D01*
X133011514Y-80133235D01*
X132943944Y-80118872D01*
X132943939Y-80118872D01*
X132937487Y-80117500D01*
X132746513Y-80117500D01*
X132740061Y-80118872D01*
X132740056Y-80118872D01*
X132672485Y-80133235D01*
X132601694Y-80127833D01*
X132552652Y-80094298D01*
X132441675Y-79971045D01*
X132441674Y-79971044D01*
X132437253Y-79966134D01*
X132323113Y-79883206D01*
X132288094Y-79857763D01*
X132288093Y-79857762D01*
X132282752Y-79853882D01*
X132276722Y-79851197D01*
X132270999Y-79847893D01*
X132271816Y-79846478D01*
X132223981Y-79805828D01*
X132208828Y-79756000D01*
X146025496Y-79756000D01*
X146026186Y-79762565D01*
X146039355Y-79887857D01*
X146045458Y-79945928D01*
X146104473Y-80127556D01*
X146107776Y-80133278D01*
X146107777Y-80133279D01*
X146130043Y-80171844D01*
X146199960Y-80292944D01*
X146204378Y-80297851D01*
X146204379Y-80297852D01*
X146322702Y-80429263D01*
X146327747Y-80434866D01*
X146426843Y-80506864D01*
X146468095Y-80536835D01*
X146482248Y-80547118D01*
X146488276Y-80549802D01*
X146488278Y-80549803D01*
X146623028Y-80609797D01*
X146656712Y-80624794D01*
X146720888Y-80638435D01*
X146837056Y-80663128D01*
X146837061Y-80663128D01*
X146843513Y-80664500D01*
X147034487Y-80664500D01*
X147040939Y-80663128D01*
X147040944Y-80663128D01*
X147157112Y-80638435D01*
X147221288Y-80624794D01*
X147227315Y-80622111D01*
X147227323Y-80622108D01*
X147360302Y-80562902D01*
X147430669Y-80553468D01*
X147494966Y-80583575D01*
X147532779Y-80643664D01*
X147536859Y-80664834D01*
X147544058Y-80733328D01*
X147603073Y-80914956D01*
X147698560Y-81080344D01*
X147702978Y-81085251D01*
X147702979Y-81085252D01*
X147737468Y-81123556D01*
X147826347Y-81222266D01*
X147980848Y-81334518D01*
X147986876Y-81337202D01*
X147986878Y-81337203D01*
X148108318Y-81391271D01*
X148155312Y-81412194D01*
X148248713Y-81432047D01*
X148335656Y-81450528D01*
X148335661Y-81450528D01*
X148342113Y-81451900D01*
X148533087Y-81451900D01*
X148539539Y-81450528D01*
X148539544Y-81450528D01*
X148626487Y-81432047D01*
X148719888Y-81412194D01*
X148766882Y-81391271D01*
X148888322Y-81337203D01*
X148888324Y-81337202D01*
X148894352Y-81334518D01*
X149048853Y-81222266D01*
X149137732Y-81123556D01*
X149172221Y-81085252D01*
X149172222Y-81085251D01*
X149176640Y-81080344D01*
X149272127Y-80914956D01*
X149331142Y-80733328D01*
X149337310Y-80674648D01*
X149350414Y-80549965D01*
X149351104Y-80543400D01*
X149345392Y-80489056D01*
X149331832Y-80360035D01*
X149331832Y-80360033D01*
X149331142Y-80353472D01*
X149272127Y-80171844D01*
X149249862Y-80133279D01*
X149189476Y-80028689D01*
X149176640Y-80006456D01*
X149139100Y-79964763D01*
X149053275Y-79869445D01*
X149053274Y-79869444D01*
X149048853Y-79864534D01*
X148949757Y-79792536D01*
X148899694Y-79756163D01*
X148899693Y-79756162D01*
X148894352Y-79752282D01*
X148888324Y-79749598D01*
X148888322Y-79749597D01*
X148725919Y-79677291D01*
X148725918Y-79677291D01*
X148719888Y-79674606D01*
X148626488Y-79654753D01*
X148539544Y-79636272D01*
X148539539Y-79636272D01*
X148533087Y-79634900D01*
X148342113Y-79634900D01*
X148335661Y-79636272D01*
X148335656Y-79636272D01*
X148248712Y-79654753D01*
X148155312Y-79674606D01*
X148149285Y-79677289D01*
X148149277Y-79677292D01*
X148016298Y-79736498D01*
X147945931Y-79745932D01*
X147881634Y-79715825D01*
X147843821Y-79655736D01*
X147839740Y-79634561D01*
X147839324Y-79630596D01*
X147832542Y-79566072D01*
X147773527Y-79384444D01*
X147678040Y-79219056D01*
X147635040Y-79171299D01*
X147554675Y-79082045D01*
X147554674Y-79082044D01*
X147550253Y-79077134D01*
X147406334Y-78972570D01*
X147401094Y-78968763D01*
X147401093Y-78968762D01*
X147395752Y-78964882D01*
X147389724Y-78962198D01*
X147389722Y-78962197D01*
X147227319Y-78889891D01*
X147227318Y-78889891D01*
X147221288Y-78887206D01*
X147127888Y-78867353D01*
X147040944Y-78848872D01*
X147040939Y-78848872D01*
X147034487Y-78847500D01*
X146843513Y-78847500D01*
X146837061Y-78848872D01*
X146837056Y-78848872D01*
X146750112Y-78867353D01*
X146656712Y-78887206D01*
X146650682Y-78889891D01*
X146650681Y-78889891D01*
X146488278Y-78962197D01*
X146488276Y-78962198D01*
X146482248Y-78964882D01*
X146476907Y-78968762D01*
X146476906Y-78968763D01*
X146471666Y-78972570D01*
X146327747Y-79077134D01*
X146323326Y-79082044D01*
X146323325Y-79082045D01*
X146242961Y-79171299D01*
X146199960Y-79219056D01*
X146104473Y-79384444D01*
X146045458Y-79566072D01*
X146044768Y-79572633D01*
X146044768Y-79572635D01*
X146028769Y-79724857D01*
X146025496Y-79756000D01*
X132208828Y-79756000D01*
X132203325Y-79737903D01*
X132208491Y-79704243D01*
X132208129Y-79704166D01*
X132209472Y-79697846D01*
X132209486Y-79697754D01*
X132211542Y-79691428D01*
X132215294Y-79655736D01*
X132230814Y-79508065D01*
X132231504Y-79501500D01*
X132211542Y-79311572D01*
X132199085Y-79273233D01*
X132197057Y-79202269D01*
X132233719Y-79141471D01*
X132234746Y-79140966D01*
X132185035Y-79135263D01*
X132157238Y-79112534D01*
X132318254Y-79112534D01*
X132367965Y-79118237D01*
X132422927Y-79163178D01*
X132428037Y-79171299D01*
X132492658Y-79283226D01*
X132492661Y-79283231D01*
X132495960Y-79288944D01*
X132500378Y-79293851D01*
X132500379Y-79293852D01*
X132611906Y-79417715D01*
X132623747Y-79430866D01*
X132778248Y-79543118D01*
X132784276Y-79545802D01*
X132784278Y-79545803D01*
X132946681Y-79618109D01*
X132952712Y-79620794D01*
X133022552Y-79635639D01*
X133133056Y-79659128D01*
X133133061Y-79659128D01*
X133139513Y-79660500D01*
X133330487Y-79660500D01*
X133336939Y-79659128D01*
X133336944Y-79659128D01*
X133447448Y-79635639D01*
X133517288Y-79620794D01*
X133523319Y-79618109D01*
X133685722Y-79545803D01*
X133685724Y-79545802D01*
X133691752Y-79543118D01*
X133846253Y-79430866D01*
X133858094Y-79417715D01*
X133969621Y-79293852D01*
X133969622Y-79293851D01*
X133974040Y-79288944D01*
X134069527Y-79123556D01*
X134128542Y-78941928D01*
X134134294Y-78887206D01*
X134147814Y-78758565D01*
X134148504Y-78752000D01*
X134128542Y-78562072D01*
X134069527Y-78380444D01*
X133974040Y-78215056D01*
X133863779Y-78092598D01*
X133850675Y-78078045D01*
X133850674Y-78078044D01*
X133846253Y-78073134D01*
X133706170Y-77971357D01*
X133697094Y-77964763D01*
X133697093Y-77964762D01*
X133691752Y-77960882D01*
X133685724Y-77958198D01*
X133685722Y-77958197D01*
X133523319Y-77885891D01*
X133523318Y-77885891D01*
X133517288Y-77883206D01*
X133423887Y-77863353D01*
X133336944Y-77844872D01*
X133336939Y-77844872D01*
X133330487Y-77843500D01*
X133139513Y-77843500D01*
X133133061Y-77844872D01*
X133133056Y-77844872D01*
X133046113Y-77863353D01*
X132952712Y-77883206D01*
X132946682Y-77885891D01*
X132946681Y-77885891D01*
X132784278Y-77958197D01*
X132784276Y-77958198D01*
X132778248Y-77960882D01*
X132772907Y-77964762D01*
X132772906Y-77964763D01*
X132763830Y-77971357D01*
X132623747Y-78073134D01*
X132619326Y-78078044D01*
X132619325Y-78078045D01*
X132606222Y-78092598D01*
X132495960Y-78215056D01*
X132400473Y-78380444D01*
X132341458Y-78562072D01*
X132321496Y-78752000D01*
X132322186Y-78758565D01*
X132335707Y-78887206D01*
X132341458Y-78941928D01*
X132353915Y-78980267D01*
X132355943Y-79051231D01*
X132319281Y-79112029D01*
X132318254Y-79112534D01*
X132157238Y-79112534D01*
X132130073Y-79090322D01*
X132124963Y-79082201D01*
X132060342Y-78970274D01*
X132060339Y-78970269D01*
X132057040Y-78964556D01*
X132042319Y-78948206D01*
X131933675Y-78827545D01*
X131933674Y-78827544D01*
X131929253Y-78822634D01*
X131774752Y-78710382D01*
X131768724Y-78707698D01*
X131768722Y-78707697D01*
X131606319Y-78635391D01*
X131606318Y-78635391D01*
X131600288Y-78632706D01*
X131506887Y-78612853D01*
X131419944Y-78594372D01*
X131419939Y-78594372D01*
X131413487Y-78593000D01*
X131222513Y-78593000D01*
X131216061Y-78594372D01*
X131216056Y-78594372D01*
X131129113Y-78612853D01*
X131035712Y-78632706D01*
X131029682Y-78635391D01*
X131029681Y-78635391D01*
X130867278Y-78707697D01*
X130867276Y-78707698D01*
X130861248Y-78710382D01*
X130706747Y-78822634D01*
X130702326Y-78827544D01*
X130702325Y-78827545D01*
X130593682Y-78948206D01*
X130578960Y-78964556D01*
X130483473Y-79129944D01*
X130424458Y-79311572D01*
X130404496Y-79501500D01*
X86563015Y-79501500D01*
X86563015Y-77724000D01*
X105385496Y-77724000D01*
X105386186Y-77730565D01*
X105404200Y-77901955D01*
X105405458Y-77913928D01*
X105464473Y-78095556D01*
X105559960Y-78260944D01*
X105564378Y-78265851D01*
X105564379Y-78265852D01*
X105662119Y-78374403D01*
X105687747Y-78402866D01*
X105842248Y-78515118D01*
X105848276Y-78517802D01*
X105848278Y-78517803D01*
X106010681Y-78590109D01*
X106016712Y-78592794D01*
X106110113Y-78612647D01*
X106197056Y-78631128D01*
X106197061Y-78631128D01*
X106203513Y-78632500D01*
X106394487Y-78632500D01*
X106400939Y-78631128D01*
X106400944Y-78631128D01*
X106487887Y-78612647D01*
X106581288Y-78592794D01*
X106587319Y-78590109D01*
X106749722Y-78517803D01*
X106749724Y-78517802D01*
X106755752Y-78515118D01*
X106910253Y-78402866D01*
X106935881Y-78374403D01*
X107033621Y-78265852D01*
X107033622Y-78265851D01*
X107038040Y-78260944D01*
X107133527Y-78095556D01*
X107192542Y-77913928D01*
X107193801Y-77901955D01*
X107211814Y-77730565D01*
X107212504Y-77724000D01*
X107192542Y-77534072D01*
X107133527Y-77352444D01*
X107038040Y-77187056D01*
X106910253Y-77045134D01*
X106755752Y-76932882D01*
X106749724Y-76930198D01*
X106749722Y-76930197D01*
X106587319Y-76857891D01*
X106587318Y-76857891D01*
X106581288Y-76855206D01*
X106487888Y-76835353D01*
X106400944Y-76816872D01*
X106400939Y-76816872D01*
X106394487Y-76815500D01*
X106203513Y-76815500D01*
X106197061Y-76816872D01*
X106197056Y-76816872D01*
X106110112Y-76835353D01*
X106016712Y-76855206D01*
X106010682Y-76857891D01*
X106010681Y-76857891D01*
X105848278Y-76930197D01*
X105848276Y-76930198D01*
X105842248Y-76932882D01*
X105687747Y-77045134D01*
X105559960Y-77187056D01*
X105464473Y-77352444D01*
X105405458Y-77534072D01*
X105385496Y-77724000D01*
X86563015Y-77724000D01*
X86563015Y-75692000D01*
X119990496Y-75692000D01*
X119991186Y-75698565D01*
X120008251Y-75860926D01*
X120010458Y-75881928D01*
X120069473Y-76063556D01*
X120164960Y-76228944D01*
X120292747Y-76370866D01*
X120447248Y-76483118D01*
X120453276Y-76485802D01*
X120453278Y-76485803D01*
X120615681Y-76558109D01*
X120621712Y-76560794D01*
X120715113Y-76580647D01*
X120802056Y-76599128D01*
X120802061Y-76599128D01*
X120808513Y-76600500D01*
X120999487Y-76600500D01*
X121005939Y-76599128D01*
X121005944Y-76599128D01*
X121092887Y-76580647D01*
X121186288Y-76560794D01*
X121192319Y-76558109D01*
X121354722Y-76485803D01*
X121354724Y-76485802D01*
X121360752Y-76483118D01*
X121444621Y-76422183D01*
X150536389Y-76422183D01*
X150537912Y-76430607D01*
X150550292Y-76434000D01*
X151599885Y-76434000D01*
X151615124Y-76429525D01*
X151616329Y-76428135D01*
X151618000Y-76420452D01*
X151618000Y-76415885D01*
X152126000Y-76415885D01*
X152130475Y-76431124D01*
X152131865Y-76432329D01*
X152139548Y-76434000D01*
X154139885Y-76434000D01*
X154155124Y-76429525D01*
X154156329Y-76428135D01*
X154158000Y-76420452D01*
X154158000Y-76415885D01*
X154666000Y-76415885D01*
X154670475Y-76431124D01*
X154671865Y-76432329D01*
X154679548Y-76434000D01*
X155730344Y-76434000D01*
X155743875Y-76430027D01*
X155745180Y-76420947D01*
X155703214Y-76253875D01*
X155699894Y-76244124D01*
X155614972Y-76048814D01*
X155610105Y-76039739D01*
X155494426Y-75860926D01*
X155488136Y-75852757D01*
X155344806Y-75695240D01*
X155337273Y-75688215D01*
X155170139Y-75556222D01*
X155161552Y-75550517D01*
X154975117Y-75447599D01*
X154965705Y-75443369D01*
X154764959Y-75372280D01*
X154754988Y-75369646D01*
X154683837Y-75356972D01*
X154670540Y-75358432D01*
X154666000Y-75372989D01*
X154666000Y-76415885D01*
X154158000Y-76415885D01*
X154158000Y-75371102D01*
X154154082Y-75357758D01*
X154139806Y-75355771D01*
X154101324Y-75361660D01*
X154091288Y-75364051D01*
X153888868Y-75430212D01*
X153879359Y-75434209D01*
X153690463Y-75532542D01*
X153681738Y-75538036D01*
X153511433Y-75665905D01*
X153503726Y-75672748D01*
X153356590Y-75826717D01*
X153350104Y-75834727D01*
X153245193Y-75988521D01*
X153190282Y-76033524D01*
X153119757Y-76041695D01*
X153056010Y-76010441D01*
X153035313Y-75985957D01*
X152954427Y-75860926D01*
X152948136Y-75852757D01*
X152804806Y-75695240D01*
X152797273Y-75688215D01*
X152630139Y-75556222D01*
X152621552Y-75550517D01*
X152435117Y-75447599D01*
X152425705Y-75443369D01*
X152224959Y-75372280D01*
X152214988Y-75369646D01*
X152143837Y-75356972D01*
X152130540Y-75358432D01*
X152126000Y-75372989D01*
X152126000Y-76415885D01*
X151618000Y-76415885D01*
X151618000Y-75371102D01*
X151614082Y-75357758D01*
X151599806Y-75355771D01*
X151561324Y-75361660D01*
X151551288Y-75364051D01*
X151348868Y-75430212D01*
X151339359Y-75434209D01*
X151150463Y-75532542D01*
X151141738Y-75538036D01*
X150971433Y-75665905D01*
X150963726Y-75672748D01*
X150816590Y-75826717D01*
X150810104Y-75834727D01*
X150690098Y-76010649D01*
X150685000Y-76019623D01*
X150595338Y-76212783D01*
X150591775Y-76222470D01*
X150536389Y-76422183D01*
X121444621Y-76422183D01*
X121515253Y-76370866D01*
X121643040Y-76228944D01*
X121738527Y-76063556D01*
X121797542Y-75881928D01*
X121799750Y-75860926D01*
X121816814Y-75698565D01*
X121817504Y-75692000D01*
X121801322Y-75538036D01*
X121798232Y-75508635D01*
X121798232Y-75508633D01*
X121797542Y-75502072D01*
X121738527Y-75320444D01*
X121643040Y-75155056D01*
X121597744Y-75104749D01*
X121519675Y-75018045D01*
X121519674Y-75018044D01*
X121515253Y-75013134D01*
X121360752Y-74900882D01*
X121354724Y-74898198D01*
X121354722Y-74898197D01*
X121192319Y-74825891D01*
X121192318Y-74825891D01*
X121186288Y-74823206D01*
X121073721Y-74799279D01*
X121005944Y-74784872D01*
X121005939Y-74784872D01*
X120999487Y-74783500D01*
X120808513Y-74783500D01*
X120802061Y-74784872D01*
X120802056Y-74784872D01*
X120734279Y-74799279D01*
X120621712Y-74823206D01*
X120615682Y-74825891D01*
X120615681Y-74825891D01*
X120453278Y-74898197D01*
X120453276Y-74898198D01*
X120447248Y-74900882D01*
X120292747Y-75013134D01*
X120288326Y-75018044D01*
X120288325Y-75018045D01*
X120210257Y-75104749D01*
X120164960Y-75155056D01*
X120069473Y-75320444D01*
X120010458Y-75502072D01*
X120009768Y-75508633D01*
X120009768Y-75508635D01*
X120006678Y-75538036D01*
X119990496Y-75692000D01*
X86563015Y-75692000D01*
X86563015Y-74422000D01*
X134468496Y-74422000D01*
X134488458Y-74611928D01*
X134547473Y-74793556D01*
X134642960Y-74958944D01*
X134647378Y-74963851D01*
X134647379Y-74963852D01*
X134691753Y-75013134D01*
X134770747Y-75100866D01*
X134925248Y-75213118D01*
X134931276Y-75215802D01*
X134931278Y-75215803D01*
X135093681Y-75288109D01*
X135099712Y-75290794D01*
X135193112Y-75310647D01*
X135280056Y-75329128D01*
X135280061Y-75329128D01*
X135286513Y-75330500D01*
X135477487Y-75330500D01*
X135483939Y-75329128D01*
X135483944Y-75329128D01*
X135570888Y-75310647D01*
X135664288Y-75290794D01*
X135670319Y-75288109D01*
X135832722Y-75215803D01*
X135832724Y-75215802D01*
X135838752Y-75213118D01*
X135993253Y-75100866D01*
X136072247Y-75013134D01*
X136116621Y-74963852D01*
X136116622Y-74963851D01*
X136121040Y-74958944D01*
X136216527Y-74793556D01*
X136275542Y-74611928D01*
X136295504Y-74422000D01*
X136275542Y-74232072D01*
X136216527Y-74050444D01*
X136121040Y-73885056D01*
X135993253Y-73743134D01*
X135838752Y-73630882D01*
X135832724Y-73628198D01*
X135832722Y-73628197D01*
X135670319Y-73555891D01*
X135670318Y-73555891D01*
X135664288Y-73553206D01*
X135570887Y-73533353D01*
X135483944Y-73514872D01*
X135483939Y-73514872D01*
X135477487Y-73513500D01*
X135286513Y-73513500D01*
X135280061Y-73514872D01*
X135280056Y-73514872D01*
X135193113Y-73533353D01*
X135099712Y-73553206D01*
X135093682Y-73555891D01*
X135093681Y-73555891D01*
X134931278Y-73628197D01*
X134931276Y-73628198D01*
X134925248Y-73630882D01*
X134770747Y-73743134D01*
X134642960Y-73885056D01*
X134547473Y-74050444D01*
X134488458Y-74232072D01*
X134468496Y-74422000D01*
X86563015Y-74422000D01*
X86563015Y-73126600D01*
X115139096Y-73126600D01*
X115159058Y-73316528D01*
X115218073Y-73498156D01*
X115313560Y-73663544D01*
X115441347Y-73805466D01*
X115595848Y-73917718D01*
X115601876Y-73920402D01*
X115601878Y-73920403D01*
X115764281Y-73992709D01*
X115770312Y-73995394D01*
X115863713Y-74015247D01*
X115950656Y-74033728D01*
X115950661Y-74033728D01*
X115957113Y-74035100D01*
X116148087Y-74035100D01*
X116154539Y-74033728D01*
X116154544Y-74033728D01*
X116241487Y-74015247D01*
X116334888Y-73995394D01*
X116340919Y-73992709D01*
X116503322Y-73920403D01*
X116503324Y-73920402D01*
X116509352Y-73917718D01*
X116663853Y-73805466D01*
X116791640Y-73663544D01*
X116887127Y-73498156D01*
X116946142Y-73316528D01*
X116966104Y-73126600D01*
X116946142Y-72936672D01*
X116887127Y-72755044D01*
X116791640Y-72589656D01*
X116663853Y-72447734D01*
X116509352Y-72335482D01*
X116503324Y-72332798D01*
X116503322Y-72332797D01*
X116340919Y-72260491D01*
X116340918Y-72260491D01*
X116334888Y-72257806D01*
X116241487Y-72237953D01*
X116154544Y-72219472D01*
X116154539Y-72219472D01*
X116148087Y-72218100D01*
X115957113Y-72218100D01*
X115950661Y-72219472D01*
X115950656Y-72219472D01*
X115863713Y-72237953D01*
X115770312Y-72257806D01*
X115764282Y-72260491D01*
X115764281Y-72260491D01*
X115601878Y-72332797D01*
X115601876Y-72332798D01*
X115595848Y-72335482D01*
X115441347Y-72447734D01*
X115313560Y-72589656D01*
X115218073Y-72755044D01*
X115159058Y-72936672D01*
X115139096Y-73126600D01*
X86563015Y-73126600D01*
X86563015Y-70739000D01*
X122276496Y-70739000D01*
X122277186Y-70745565D01*
X122292660Y-70892788D01*
X122296458Y-70928928D01*
X122355473Y-71110556D01*
X122450960Y-71275944D01*
X122578747Y-71417866D01*
X122677843Y-71489864D01*
X122698049Y-71504544D01*
X122733248Y-71530118D01*
X122739276Y-71532802D01*
X122739278Y-71532803D01*
X122901681Y-71605109D01*
X122907712Y-71607794D01*
X123001113Y-71627647D01*
X123088056Y-71646128D01*
X123088061Y-71646128D01*
X123094513Y-71647500D01*
X123285487Y-71647500D01*
X123291939Y-71646128D01*
X123291944Y-71646128D01*
X123378887Y-71627647D01*
X123472288Y-71607794D01*
X123478319Y-71605109D01*
X123640722Y-71532803D01*
X123640724Y-71532802D01*
X123646752Y-71530118D01*
X123681952Y-71504544D01*
X123702157Y-71489864D01*
X123801253Y-71417866D01*
X123929040Y-71275944D01*
X124024527Y-71110556D01*
X124067263Y-70979030D01*
X124107335Y-70920425D01*
X124172732Y-70892788D01*
X124242689Y-70904895D01*
X124294995Y-70952901D01*
X124312405Y-71004796D01*
X124327768Y-71150965D01*
X124328458Y-71157528D01*
X124387473Y-71339156D01*
X124482960Y-71504544D01*
X124487378Y-71509451D01*
X124487379Y-71509452D01*
X124577162Y-71609166D01*
X124610747Y-71646466D01*
X124765248Y-71758718D01*
X124771276Y-71761402D01*
X124771278Y-71761403D01*
X124933681Y-71833709D01*
X124939712Y-71836394D01*
X125033113Y-71856247D01*
X125120056Y-71874728D01*
X125120061Y-71874728D01*
X125126513Y-71876100D01*
X125317487Y-71876100D01*
X125323939Y-71874728D01*
X125323944Y-71874728D01*
X125410887Y-71856247D01*
X125504288Y-71836394D01*
X125510319Y-71833709D01*
X125672722Y-71761403D01*
X125672724Y-71761402D01*
X125678752Y-71758718D01*
X125833253Y-71646466D01*
X125866838Y-71609166D01*
X125956621Y-71509452D01*
X125956622Y-71509451D01*
X125961040Y-71504544D01*
X126056527Y-71339156D01*
X126115542Y-71157528D01*
X126119878Y-71116279D01*
X126134814Y-70974165D01*
X126135504Y-70967600D01*
X126127641Y-70892788D01*
X126116232Y-70784235D01*
X126116232Y-70784233D01*
X126115542Y-70777672D01*
X126056527Y-70596044D01*
X125961040Y-70430656D01*
X125833253Y-70288734D01*
X125721822Y-70207774D01*
X125684094Y-70180363D01*
X125684093Y-70180362D01*
X125678752Y-70176482D01*
X125672724Y-70173798D01*
X125672722Y-70173797D01*
X125510319Y-70101491D01*
X125510318Y-70101491D01*
X125504288Y-70098806D01*
X125410887Y-70078953D01*
X125323944Y-70060472D01*
X125323939Y-70060472D01*
X125317487Y-70059100D01*
X125126513Y-70059100D01*
X125120061Y-70060472D01*
X125120056Y-70060472D01*
X125033113Y-70078953D01*
X124939712Y-70098806D01*
X124933682Y-70101491D01*
X124933681Y-70101491D01*
X124771278Y-70173797D01*
X124771276Y-70173798D01*
X124765248Y-70176482D01*
X124759907Y-70180362D01*
X124759906Y-70180363D01*
X124722178Y-70207774D01*
X124610747Y-70288734D01*
X124482960Y-70430656D01*
X124387473Y-70596044D01*
X124353110Y-70701804D01*
X124344738Y-70727569D01*
X124304665Y-70786175D01*
X124239268Y-70813812D01*
X124169311Y-70801705D01*
X124117005Y-70753699D01*
X124099595Y-70701804D01*
X124084232Y-70555635D01*
X124084232Y-70555633D01*
X124083542Y-70549072D01*
X124024527Y-70367444D01*
X123929040Y-70202056D01*
X123836074Y-70098806D01*
X123805675Y-70065045D01*
X123805674Y-70065044D01*
X123801253Y-70060134D01*
X123646752Y-69947882D01*
X123640724Y-69945198D01*
X123640722Y-69945197D01*
X123478319Y-69872891D01*
X123478318Y-69872891D01*
X123472288Y-69870206D01*
X123378888Y-69850353D01*
X123291944Y-69831872D01*
X123291939Y-69831872D01*
X123285487Y-69830500D01*
X123094513Y-69830500D01*
X123088061Y-69831872D01*
X123088056Y-69831872D01*
X123001112Y-69850353D01*
X122907712Y-69870206D01*
X122901682Y-69872891D01*
X122901681Y-69872891D01*
X122739278Y-69945197D01*
X122739276Y-69945198D01*
X122733248Y-69947882D01*
X122578747Y-70060134D01*
X122574326Y-70065044D01*
X122574325Y-70065045D01*
X122543927Y-70098806D01*
X122450960Y-70202056D01*
X122355473Y-70367444D01*
X122296458Y-70549072D01*
X122295768Y-70555633D01*
X122295768Y-70555635D01*
X122280405Y-70701804D01*
X122276496Y-70739000D01*
X86563015Y-70739000D01*
X86563015Y-68326000D01*
X129642496Y-68326000D01*
X129662458Y-68515928D01*
X129721473Y-68697556D01*
X129816960Y-68862944D01*
X129944747Y-69004866D01*
X130099248Y-69117118D01*
X130105276Y-69119802D01*
X130105278Y-69119803D01*
X130267681Y-69192109D01*
X130273712Y-69194794D01*
X130367113Y-69214647D01*
X130454056Y-69233128D01*
X130454061Y-69233128D01*
X130460513Y-69234500D01*
X130651487Y-69234500D01*
X130657939Y-69233128D01*
X130657944Y-69233128D01*
X130744887Y-69214647D01*
X130838288Y-69194794D01*
X130844319Y-69192109D01*
X131006722Y-69119803D01*
X131006724Y-69119802D01*
X131012752Y-69117118D01*
X131167253Y-69004866D01*
X131295040Y-68862944D01*
X131390527Y-68697556D01*
X131449542Y-68515928D01*
X131469504Y-68326000D01*
X132182496Y-68326000D01*
X132202458Y-68515928D01*
X132261473Y-68697556D01*
X132356960Y-68862944D01*
X132484747Y-69004866D01*
X132639248Y-69117118D01*
X132645276Y-69119802D01*
X132645278Y-69119803D01*
X132807681Y-69192109D01*
X132813712Y-69194794D01*
X132907113Y-69214647D01*
X132994056Y-69233128D01*
X132994061Y-69233128D01*
X133000513Y-69234500D01*
X133191487Y-69234500D01*
X133197939Y-69233128D01*
X133197944Y-69233128D01*
X133284887Y-69214647D01*
X133378288Y-69194794D01*
X133384319Y-69192109D01*
X133546722Y-69119803D01*
X133546724Y-69119802D01*
X133552752Y-69117118D01*
X133707253Y-69004866D01*
X133835040Y-68862944D01*
X133930527Y-68697556D01*
X133989542Y-68515928D01*
X134009504Y-68326000D01*
X133989542Y-68136072D01*
X133930527Y-67954444D01*
X133835040Y-67789056D01*
X133789744Y-67738749D01*
X133711675Y-67652045D01*
X133711674Y-67652044D01*
X133707253Y-67647134D01*
X133552752Y-67534882D01*
X133546724Y-67532198D01*
X133546722Y-67532197D01*
X133384319Y-67459891D01*
X133384318Y-67459891D01*
X133378288Y-67457206D01*
X133265721Y-67433279D01*
X133197944Y-67418872D01*
X133197939Y-67418872D01*
X133191487Y-67417500D01*
X133000513Y-67417500D01*
X132994061Y-67418872D01*
X132994056Y-67418872D01*
X132926279Y-67433279D01*
X132813712Y-67457206D01*
X132807682Y-67459891D01*
X132807681Y-67459891D01*
X132645278Y-67532197D01*
X132645276Y-67532198D01*
X132639248Y-67534882D01*
X132484747Y-67647134D01*
X132480326Y-67652044D01*
X132480325Y-67652045D01*
X132402257Y-67738749D01*
X132356960Y-67789056D01*
X132261473Y-67954444D01*
X132202458Y-68136072D01*
X132182496Y-68326000D01*
X131469504Y-68326000D01*
X131449542Y-68136072D01*
X131390527Y-67954444D01*
X131295040Y-67789056D01*
X131249744Y-67738749D01*
X131171675Y-67652045D01*
X131171674Y-67652044D01*
X131167253Y-67647134D01*
X131012752Y-67534882D01*
X131006724Y-67532198D01*
X131006722Y-67532197D01*
X130844319Y-67459891D01*
X130844318Y-67459891D01*
X130838288Y-67457206D01*
X130725721Y-67433279D01*
X130657944Y-67418872D01*
X130657939Y-67418872D01*
X130651487Y-67417500D01*
X130460513Y-67417500D01*
X130454061Y-67418872D01*
X130454056Y-67418872D01*
X130386279Y-67433279D01*
X130273712Y-67457206D01*
X130267682Y-67459891D01*
X130267681Y-67459891D01*
X130105278Y-67532197D01*
X130105276Y-67532198D01*
X130099248Y-67534882D01*
X129944747Y-67647134D01*
X129940326Y-67652044D01*
X129940325Y-67652045D01*
X129862257Y-67738749D01*
X129816960Y-67789056D01*
X129721473Y-67954444D01*
X129662458Y-68136072D01*
X129642496Y-68326000D01*
X86563015Y-68326000D01*
X86563015Y-67056000D01*
X157074496Y-67056000D01*
X157094458Y-67245928D01*
X157153473Y-67427556D01*
X157248960Y-67592944D01*
X157253378Y-67597851D01*
X157253379Y-67597852D01*
X157297753Y-67647134D01*
X157376747Y-67734866D01*
X157531248Y-67847118D01*
X157537276Y-67849802D01*
X157537278Y-67849803D01*
X157699681Y-67922109D01*
X157705712Y-67924794D01*
X157799112Y-67944647D01*
X157886056Y-67963128D01*
X157886061Y-67963128D01*
X157892513Y-67964500D01*
X158083487Y-67964500D01*
X158089939Y-67963128D01*
X158089944Y-67963128D01*
X158176888Y-67944647D01*
X158270288Y-67924794D01*
X158276319Y-67922109D01*
X158438722Y-67849803D01*
X158438724Y-67849802D01*
X158444752Y-67847118D01*
X158599253Y-67734866D01*
X158678247Y-67647134D01*
X158722621Y-67597852D01*
X158722622Y-67597851D01*
X158727040Y-67592944D01*
X158822527Y-67427556D01*
X158881542Y-67245928D01*
X158901504Y-67056000D01*
X158881542Y-66866072D01*
X158822527Y-66684444D01*
X158727040Y-66519056D01*
X158712038Y-66502394D01*
X158603675Y-66382045D01*
X158603674Y-66382044D01*
X158599253Y-66377134D01*
X158444752Y-66264882D01*
X158438724Y-66262198D01*
X158438722Y-66262197D01*
X158276319Y-66189891D01*
X158276318Y-66189891D01*
X158270288Y-66187206D01*
X158164999Y-66164826D01*
X158089944Y-66148872D01*
X158089939Y-66148872D01*
X158083487Y-66147500D01*
X157892513Y-66147500D01*
X157886061Y-66148872D01*
X157886056Y-66148872D01*
X157811001Y-66164826D01*
X157705712Y-66187206D01*
X157699682Y-66189891D01*
X157699681Y-66189891D01*
X157537278Y-66262197D01*
X157537276Y-66262198D01*
X157531248Y-66264882D01*
X157376747Y-66377134D01*
X157372326Y-66382044D01*
X157372325Y-66382045D01*
X157263963Y-66502394D01*
X157248960Y-66519056D01*
X157153473Y-66684444D01*
X157094458Y-66866072D01*
X157074496Y-67056000D01*
X86563015Y-67056000D01*
X86563015Y-65633600D01*
X129947296Y-65633600D01*
X129947986Y-65640165D01*
X129962694Y-65780100D01*
X129967258Y-65823528D01*
X130026273Y-66005156D01*
X130121760Y-66170544D01*
X130126178Y-66175451D01*
X130126179Y-66175452D01*
X130206702Y-66264882D01*
X130249547Y-66312466D01*
X130404048Y-66424718D01*
X130410076Y-66427402D01*
X130410078Y-66427403D01*
X130572481Y-66499709D01*
X130578512Y-66502394D01*
X130671913Y-66522247D01*
X130758856Y-66540728D01*
X130758861Y-66540728D01*
X130765313Y-66542100D01*
X130956287Y-66542100D01*
X130962739Y-66540728D01*
X130962744Y-66540728D01*
X131049687Y-66522247D01*
X131143088Y-66502394D01*
X131149119Y-66499709D01*
X131311522Y-66427403D01*
X131311524Y-66427402D01*
X131317552Y-66424718D01*
X131472053Y-66312466D01*
X131514898Y-66264882D01*
X131595421Y-66175452D01*
X131595422Y-66175451D01*
X131599840Y-66170544D01*
X131695327Y-66005156D01*
X131754342Y-65823528D01*
X131758907Y-65780100D01*
X131773614Y-65640165D01*
X131774304Y-65633600D01*
X131766271Y-65557173D01*
X131755032Y-65450235D01*
X131755032Y-65450233D01*
X131754342Y-65443672D01*
X131695327Y-65262044D01*
X131672782Y-65222994D01*
X131638505Y-65163625D01*
X131599840Y-65096656D01*
X131573864Y-65067806D01*
X131476475Y-64959645D01*
X131476474Y-64959644D01*
X131472053Y-64954734D01*
X131357629Y-64871600D01*
X132792096Y-64871600D01*
X132792786Y-64878165D01*
X132806943Y-65012857D01*
X132812058Y-65061528D01*
X132871073Y-65243156D01*
X132966560Y-65408544D01*
X132970978Y-65413451D01*
X132970979Y-65413452D01*
X133089925Y-65545555D01*
X133094347Y-65550466D01*
X133107705Y-65560171D01*
X133217807Y-65640165D01*
X133248848Y-65662718D01*
X133254876Y-65665402D01*
X133254878Y-65665403D01*
X133308267Y-65689173D01*
X133423312Y-65740394D01*
X133516712Y-65760247D01*
X133603656Y-65778728D01*
X133603661Y-65778728D01*
X133610113Y-65780100D01*
X133801087Y-65780100D01*
X133807539Y-65778728D01*
X133807544Y-65778728D01*
X133894488Y-65760247D01*
X133987888Y-65740394D01*
X134102933Y-65689173D01*
X134156322Y-65665403D01*
X134156324Y-65665402D01*
X134162352Y-65662718D01*
X134193394Y-65640165D01*
X134303495Y-65560171D01*
X134316853Y-65550466D01*
X134321275Y-65545555D01*
X134440221Y-65413452D01*
X134440222Y-65413451D01*
X134444640Y-65408544D01*
X134540127Y-65243156D01*
X134599142Y-65061528D01*
X134604258Y-65012857D01*
X134618414Y-64878165D01*
X134619104Y-64871600D01*
X134615172Y-64834185D01*
X134599832Y-64688235D01*
X134599832Y-64688233D01*
X134599142Y-64681672D01*
X134540127Y-64500044D01*
X134533088Y-64487851D01*
X134530111Y-64482695D01*
X153069251Y-64482695D01*
X153069548Y-64487848D01*
X153069548Y-64487851D01*
X153080362Y-64675394D01*
X153082110Y-64705715D01*
X153083247Y-64710761D01*
X153083248Y-64710767D01*
X153095427Y-64764806D01*
X153131222Y-64923639D01*
X153215266Y-65130616D01*
X153266019Y-65213438D01*
X153329291Y-65316688D01*
X153331987Y-65321088D01*
X153478250Y-65489938D01*
X153650126Y-65632632D01*
X153843000Y-65745338D01*
X154051692Y-65825030D01*
X154056760Y-65826061D01*
X154056763Y-65826062D01*
X154164017Y-65847883D01*
X154270597Y-65869567D01*
X154275772Y-65869757D01*
X154275774Y-65869757D01*
X154488673Y-65877564D01*
X154488677Y-65877564D01*
X154493837Y-65877753D01*
X154498957Y-65877097D01*
X154498959Y-65877097D01*
X154710288Y-65850025D01*
X154710289Y-65850025D01*
X154715416Y-65849368D01*
X154720366Y-65847883D01*
X154924429Y-65786661D01*
X154924434Y-65786659D01*
X154929384Y-65785174D01*
X155129994Y-65686896D01*
X155311860Y-65557173D01*
X155318591Y-65550466D01*
X155466435Y-65403137D01*
X155470096Y-65399489D01*
X155529594Y-65316689D01*
X155600453Y-65218077D01*
X155601776Y-65219028D01*
X155648645Y-65175857D01*
X155718580Y-65163625D01*
X155784026Y-65191144D01*
X155811875Y-65222994D01*
X155871987Y-65321088D01*
X156018250Y-65489938D01*
X156190126Y-65632632D01*
X156383000Y-65745338D01*
X156591692Y-65825030D01*
X156596760Y-65826061D01*
X156596763Y-65826062D01*
X156704017Y-65847883D01*
X156810597Y-65869567D01*
X156815772Y-65869757D01*
X156815774Y-65869757D01*
X157028673Y-65877564D01*
X157028677Y-65877564D01*
X157033837Y-65877753D01*
X157038957Y-65877097D01*
X157038959Y-65877097D01*
X157250288Y-65850025D01*
X157250289Y-65850025D01*
X157255416Y-65849368D01*
X157260366Y-65847883D01*
X157464429Y-65786661D01*
X157464434Y-65786659D01*
X157469384Y-65785174D01*
X157669994Y-65686896D01*
X157851860Y-65557173D01*
X157858591Y-65550466D01*
X158006435Y-65403137D01*
X158010096Y-65399489D01*
X158069594Y-65316689D01*
X158140453Y-65218077D01*
X158141776Y-65219028D01*
X158188645Y-65175857D01*
X158258580Y-65163625D01*
X158324026Y-65191144D01*
X158351875Y-65222994D01*
X158411987Y-65321088D01*
X158558250Y-65489938D01*
X158730126Y-65632632D01*
X158923000Y-65745338D01*
X159131692Y-65825030D01*
X159136760Y-65826061D01*
X159136763Y-65826062D01*
X159244017Y-65847883D01*
X159350597Y-65869567D01*
X159355772Y-65869757D01*
X159355774Y-65869757D01*
X159568673Y-65877564D01*
X159568677Y-65877564D01*
X159573837Y-65877753D01*
X159578957Y-65877097D01*
X159578959Y-65877097D01*
X159790288Y-65850025D01*
X159790289Y-65850025D01*
X159795416Y-65849368D01*
X159800366Y-65847883D01*
X160004429Y-65786661D01*
X160004434Y-65786659D01*
X160009384Y-65785174D01*
X160209994Y-65686896D01*
X160391860Y-65557173D01*
X160398591Y-65550466D01*
X160546435Y-65403137D01*
X160550096Y-65399489D01*
X160609594Y-65316689D01*
X160680453Y-65218077D01*
X160681776Y-65219028D01*
X160728645Y-65175857D01*
X160798580Y-65163625D01*
X160864026Y-65191144D01*
X160891875Y-65222994D01*
X160951987Y-65321088D01*
X161098250Y-65489938D01*
X161270126Y-65632632D01*
X161463000Y-65745338D01*
X161671692Y-65825030D01*
X161676760Y-65826061D01*
X161676763Y-65826062D01*
X161784017Y-65847883D01*
X161890597Y-65869567D01*
X161895772Y-65869757D01*
X161895774Y-65869757D01*
X162108673Y-65877564D01*
X162108677Y-65877564D01*
X162113837Y-65877753D01*
X162118957Y-65877097D01*
X162118959Y-65877097D01*
X162330288Y-65850025D01*
X162330289Y-65850025D01*
X162335416Y-65849368D01*
X162340366Y-65847883D01*
X162544429Y-65786661D01*
X162544434Y-65786659D01*
X162549384Y-65785174D01*
X162749994Y-65686896D01*
X162931860Y-65557173D01*
X162938591Y-65550466D01*
X163086435Y-65403137D01*
X163090096Y-65399489D01*
X163149594Y-65316689D01*
X163220453Y-65218077D01*
X163221776Y-65219028D01*
X163268645Y-65175857D01*
X163338580Y-65163625D01*
X163404026Y-65191144D01*
X163431875Y-65222994D01*
X163491987Y-65321088D01*
X163638250Y-65489938D01*
X163810126Y-65632632D01*
X164003000Y-65745338D01*
X164211692Y-65825030D01*
X164216760Y-65826061D01*
X164216763Y-65826062D01*
X164324017Y-65847883D01*
X164430597Y-65869567D01*
X164435772Y-65869757D01*
X164435774Y-65869757D01*
X164648673Y-65877564D01*
X164648677Y-65877564D01*
X164653837Y-65877753D01*
X164658957Y-65877097D01*
X164658959Y-65877097D01*
X164870288Y-65850025D01*
X164870289Y-65850025D01*
X164875416Y-65849368D01*
X164880366Y-65847883D01*
X165084429Y-65786661D01*
X165084434Y-65786659D01*
X165089384Y-65785174D01*
X165289994Y-65686896D01*
X165471860Y-65557173D01*
X165478591Y-65550466D01*
X165626435Y-65403137D01*
X165630096Y-65399489D01*
X165689594Y-65316689D01*
X165757435Y-65222277D01*
X165760453Y-65218077D01*
X165781320Y-65175857D01*
X165857136Y-65022453D01*
X165857137Y-65022451D01*
X165859430Y-65017811D01*
X165901858Y-64878165D01*
X165922865Y-64809023D01*
X165922865Y-64809021D01*
X165924370Y-64804069D01*
X165953529Y-64582590D01*
X165953611Y-64579240D01*
X165955074Y-64519365D01*
X165955074Y-64519361D01*
X165955156Y-64516000D01*
X165936852Y-64293361D01*
X165882431Y-64076702D01*
X165793354Y-63871840D01*
X165753906Y-63810862D01*
X165730329Y-63774418D01*
X176875122Y-63774418D01*
X176875171Y-63775110D01*
X176880617Y-63783274D01*
X176958268Y-63855812D01*
X176962507Y-63859433D01*
X177295802Y-64119363D01*
X177300359Y-64122602D01*
X177655448Y-64351880D01*
X177660250Y-64354686D01*
X178034316Y-64551491D01*
X178039374Y-64553871D01*
X178429435Y-64716638D01*
X178434690Y-64718561D01*
X178837676Y-64846008D01*
X178843075Y-64847455D01*
X179255796Y-64938575D01*
X179261307Y-64939537D01*
X179680501Y-64993610D01*
X179686064Y-64994077D01*
X180108405Y-65010670D01*
X180113997Y-65010641D01*
X180536125Y-64989626D01*
X180541708Y-64989098D01*
X180960305Y-64930640D01*
X180965792Y-64929623D01*
X181377543Y-64834185D01*
X181382929Y-64832681D01*
X181784567Y-64701018D01*
X181789784Y-64699046D01*
X182178126Y-64532202D01*
X182183169Y-64529764D01*
X182555131Y-64329063D01*
X182559935Y-64326188D01*
X182912563Y-64093231D01*
X182917126Y-64089916D01*
X183247658Y-63826529D01*
X183251873Y-63822852D01*
X183289823Y-63786649D01*
X183297763Y-63772890D01*
X183297713Y-63771843D01*
X183292822Y-63764032D01*
X182892507Y-63363717D01*
X182007210Y-62478419D01*
X181481122Y-61952332D01*
X180098812Y-60570022D01*
X180084868Y-60562408D01*
X180083035Y-60562539D01*
X180076420Y-60566790D01*
X178690879Y-61952331D01*
X177805581Y-62837628D01*
X177279494Y-63363716D01*
X176882736Y-63760474D01*
X176875122Y-63774418D01*
X165730329Y-63774418D01*
X165674822Y-63688617D01*
X165674820Y-63688614D01*
X165672014Y-63684277D01*
X165521670Y-63519051D01*
X165517619Y-63515852D01*
X165517615Y-63515848D01*
X165350414Y-63383800D01*
X165350410Y-63383798D01*
X165346359Y-63380598D01*
X165304569Y-63357529D01*
X165254598Y-63307097D01*
X165239826Y-63237654D01*
X165264942Y-63171248D01*
X165292294Y-63144641D01*
X165467328Y-63019792D01*
X165475200Y-63013139D01*
X165626052Y-62862812D01*
X165632730Y-62854965D01*
X165757003Y-62682020D01*
X165762313Y-62673183D01*
X165856670Y-62482267D01*
X165860469Y-62472672D01*
X165922377Y-62268910D01*
X165924555Y-62258837D01*
X165925986Y-62247962D01*
X165923775Y-62233778D01*
X165910617Y-62230000D01*
X164464000Y-62230000D01*
X164395879Y-62209998D01*
X164349386Y-62156342D01*
X164338000Y-62104000D01*
X164338000Y-61703885D01*
X164846000Y-61703885D01*
X164850475Y-61719124D01*
X164851865Y-61720329D01*
X164859548Y-61722000D01*
X165910344Y-61722000D01*
X165923875Y-61718027D01*
X165925180Y-61708947D01*
X165883214Y-61541875D01*
X165879894Y-61532124D01*
X165794972Y-61336814D01*
X165790105Y-61327739D01*
X165674426Y-61148926D01*
X165668136Y-61140757D01*
X165524806Y-60983240D01*
X165517273Y-60976215D01*
X165350139Y-60844222D01*
X165341552Y-60838517D01*
X165155117Y-60735599D01*
X165145705Y-60731369D01*
X164944959Y-60660280D01*
X164934988Y-60657646D01*
X164863837Y-60644972D01*
X164850540Y-60646432D01*
X164846000Y-60660989D01*
X164846000Y-61703885D01*
X164338000Y-61703885D01*
X164338000Y-60659102D01*
X164334082Y-60645758D01*
X164319806Y-60643771D01*
X164281324Y-60649660D01*
X164271288Y-60652051D01*
X164068868Y-60718212D01*
X164059359Y-60722209D01*
X163870463Y-60820542D01*
X163861738Y-60826036D01*
X163691433Y-60953905D01*
X163683726Y-60960748D01*
X163536590Y-61114717D01*
X163530109Y-61122722D01*
X163425498Y-61276074D01*
X163370587Y-61321076D01*
X163300062Y-61329247D01*
X163236315Y-61297993D01*
X163215618Y-61273509D01*
X163134822Y-61148617D01*
X163134820Y-61148614D01*
X163132014Y-61144277D01*
X162981670Y-60979051D01*
X162977619Y-60975852D01*
X162977615Y-60975848D01*
X162810414Y-60843800D01*
X162810410Y-60843798D01*
X162806359Y-60840598D01*
X162796514Y-60835163D01*
X162710704Y-60787794D01*
X162610789Y-60732638D01*
X162605920Y-60730914D01*
X162605916Y-60730912D01*
X162405087Y-60659795D01*
X162405083Y-60659794D01*
X162400212Y-60658069D01*
X162395119Y-60657162D01*
X162395116Y-60657161D01*
X162185373Y-60619800D01*
X162185367Y-60619799D01*
X162180284Y-60618894D01*
X162106452Y-60617992D01*
X161962081Y-60616228D01*
X161962079Y-60616228D01*
X161956911Y-60616165D01*
X161736091Y-60649955D01*
X161523756Y-60719357D01*
X161450757Y-60757358D01*
X161381070Y-60793635D01*
X161325607Y-60822507D01*
X161321474Y-60825610D01*
X161321471Y-60825612D01*
X161168003Y-60940839D01*
X161146965Y-60956635D01*
X161128605Y-60975848D01*
X161014173Y-61095594D01*
X160992629Y-61118138D01*
X160989715Y-61122410D01*
X160989714Y-61122411D01*
X160977404Y-61140457D01*
X160886337Y-61273957D01*
X160884898Y-61276066D01*
X160829987Y-61321069D01*
X160759462Y-61329240D01*
X160695715Y-61297986D01*
X160675018Y-61273502D01*
X160594426Y-61148926D01*
X160588136Y-61140757D01*
X160444806Y-60983240D01*
X160437273Y-60976215D01*
X160270139Y-60844222D01*
X160261552Y-60838517D01*
X160075117Y-60735599D01*
X160065705Y-60731369D01*
X159864959Y-60660280D01*
X159854988Y-60657646D01*
X159783837Y-60644972D01*
X159770540Y-60646432D01*
X159766000Y-60660989D01*
X159766000Y-62104000D01*
X159745998Y-62172121D01*
X159692342Y-62218614D01*
X159640000Y-62230000D01*
X156844000Y-62230000D01*
X156775879Y-62209998D01*
X156729386Y-62156342D01*
X156718000Y-62104000D01*
X156718000Y-61703885D01*
X157226000Y-61703885D01*
X157230475Y-61719124D01*
X157231865Y-61720329D01*
X157239548Y-61722000D01*
X159239885Y-61722000D01*
X159255124Y-61717525D01*
X159256329Y-61716135D01*
X159258000Y-61708452D01*
X159258000Y-60659102D01*
X159254082Y-60645758D01*
X159239806Y-60643771D01*
X159201324Y-60649660D01*
X159191288Y-60652051D01*
X158988868Y-60718212D01*
X158979359Y-60722209D01*
X158790463Y-60820542D01*
X158781738Y-60826036D01*
X158611433Y-60953905D01*
X158603726Y-60960748D01*
X158456590Y-61114717D01*
X158450104Y-61122727D01*
X158345193Y-61276521D01*
X158290282Y-61321524D01*
X158219757Y-61329695D01*
X158156010Y-61298441D01*
X158135313Y-61273957D01*
X158054427Y-61148926D01*
X158048136Y-61140757D01*
X157904806Y-60983240D01*
X157897273Y-60976215D01*
X157730139Y-60844222D01*
X157721552Y-60838517D01*
X157535117Y-60735599D01*
X157525705Y-60731369D01*
X157324959Y-60660280D01*
X157314988Y-60657646D01*
X157243837Y-60644972D01*
X157230540Y-60646432D01*
X157226000Y-60660989D01*
X157226000Y-61703885D01*
X156718000Y-61703885D01*
X156718000Y-60659102D01*
X156714082Y-60645758D01*
X156699806Y-60643771D01*
X156661324Y-60649660D01*
X156651288Y-60652051D01*
X156448868Y-60718212D01*
X156439359Y-60722209D01*
X156250463Y-60820542D01*
X156241742Y-60826034D01*
X156240948Y-60826630D01*
X156240571Y-60826771D01*
X156237362Y-60828792D01*
X156236945Y-60828130D01*
X156174463Y-60851538D01*
X156105068Y-60836547D01*
X156054792Y-60786418D01*
X156039982Y-60712702D01*
X156056014Y-60560165D01*
X156056704Y-60553600D01*
X156051764Y-60506599D01*
X156037432Y-60370235D01*
X156037432Y-60370233D01*
X156036742Y-60363672D01*
X155977727Y-60182044D01*
X155973808Y-60175255D01*
X155970479Y-60169489D01*
X173155227Y-60169489D01*
X173157096Y-60198000D01*
X173168263Y-60368380D01*
X173169684Y-60373976D01*
X173169685Y-60373981D01*
X173208893Y-60528358D01*
X173217326Y-60561564D01*
X173219743Y-60566807D01*
X173295396Y-60730912D01*
X173300772Y-60742573D01*
X173309017Y-60754240D01*
X173407374Y-60893411D01*
X173415807Y-60905344D01*
X173419949Y-60909379D01*
X173452244Y-60940839D01*
X173558578Y-61044425D01*
X173563382Y-61047635D01*
X173595336Y-61068986D01*
X173724304Y-61155160D01*
X173729607Y-61157438D01*
X173729610Y-61157440D01*
X173885328Y-61224341D01*
X173907435Y-61233839D01*
X173979516Y-61250149D01*
X174096201Y-61276553D01*
X174096207Y-61276554D01*
X174101838Y-61277828D01*
X174107609Y-61278055D01*
X174107611Y-61278055D01*
X174168556Y-61280449D01*
X174301001Y-61285653D01*
X174400959Y-61271160D01*
X174492535Y-61257883D01*
X174492540Y-61257882D01*
X174498256Y-61257053D01*
X174503728Y-61255195D01*
X174503730Y-61255195D01*
X174681532Y-61194839D01*
X174681534Y-61194838D01*
X174686996Y-61192984D01*
X174860899Y-61095594D01*
X174889088Y-61072150D01*
X175002821Y-60977559D01*
X175014143Y-60968143D01*
X175053823Y-60920433D01*
X175106221Y-60857431D01*
X175165158Y-60817847D01*
X175236140Y-60816411D01*
X175296631Y-60853578D01*
X175326630Y-60920613D01*
X175327806Y-60920433D01*
X175329078Y-60928746D01*
X175411535Y-61343286D01*
X175412864Y-61348698D01*
X175531852Y-61754289D01*
X175533658Y-61759564D01*
X175688219Y-62152948D01*
X175690501Y-62158072D01*
X175879416Y-62536150D01*
X175882140Y-62541043D01*
X176103917Y-62900833D01*
X176107068Y-62905469D01*
X176359955Y-63244127D01*
X176363488Y-63248444D01*
X176499222Y-63399988D01*
X176512717Y-63408351D01*
X176522128Y-63402662D01*
X176920283Y-63004507D01*
X177805581Y-62119210D01*
X177882225Y-62042566D01*
X178331668Y-61593122D01*
X179713978Y-60210812D01*
X179720356Y-60199132D01*
X180450408Y-60199132D01*
X180450539Y-60200965D01*
X180454790Y-60207580D01*
X181840331Y-61593121D01*
X182289774Y-62042565D01*
X182366418Y-62119209D01*
X183251716Y-63004506D01*
X183648142Y-63400932D01*
X183661903Y-63408446D01*
X183671263Y-63401989D01*
X183840244Y-63209303D01*
X183843744Y-63204935D01*
X184093073Y-62863645D01*
X184096168Y-62858987D01*
X184314160Y-62496903D01*
X184316841Y-62491964D01*
X184501779Y-62111946D01*
X184504014Y-62106780D01*
X184654442Y-61711815D01*
X184656201Y-61706496D01*
X184770920Y-61299730D01*
X184772204Y-61294259D01*
X184850315Y-60878883D01*
X184851102Y-60873346D01*
X184892035Y-60452102D01*
X184892308Y-60447665D01*
X184898788Y-60200233D01*
X184898746Y-60195762D01*
X184879917Y-59772973D01*
X184879419Y-59767386D01*
X184823155Y-59348499D01*
X184822162Y-59342976D01*
X184728883Y-58930748D01*
X184727410Y-58925361D01*
X184597847Y-58523025D01*
X184595910Y-58517815D01*
X184431098Y-58128599D01*
X184428683Y-58123536D01*
X184229936Y-57750535D01*
X184227085Y-57745713D01*
X183995974Y-57391865D01*
X183992692Y-57387297D01*
X183731030Y-57055380D01*
X183727382Y-57051155D01*
X183674103Y-56994715D01*
X183660389Y-56986705D01*
X183659517Y-56986742D01*
X183651438Y-56991772D01*
X183251717Y-57391493D01*
X182366419Y-58276790D01*
X181840332Y-58802878D01*
X180458022Y-60185188D01*
X180450408Y-60199132D01*
X179720356Y-60199132D01*
X179721592Y-60196868D01*
X179721461Y-60195035D01*
X179717210Y-60188420D01*
X178331669Y-58802879D01*
X177446372Y-57917581D01*
X176920284Y-57391494D01*
X176521561Y-56992771D01*
X176508253Y-56985504D01*
X176498214Y-56992626D01*
X176254223Y-57285994D01*
X176250828Y-57290467D01*
X176010528Y-57638152D01*
X176007549Y-57642902D01*
X175799106Y-58010575D01*
X175796562Y-58015568D01*
X175621629Y-58400312D01*
X175619538Y-58405511D01*
X175479498Y-58804290D01*
X175477877Y-58809659D01*
X175373840Y-59219303D01*
X175372706Y-59224776D01*
X175330983Y-59483817D01*
X175300403Y-59547891D01*
X175240036Y-59585260D01*
X175169050Y-59584060D01*
X175105628Y-59539170D01*
X175056850Y-59473849D01*
X175053393Y-59469219D01*
X174956989Y-59380104D01*
X174911275Y-59337846D01*
X174907030Y-59333922D01*
X174902147Y-59330841D01*
X174902143Y-59330838D01*
X174743346Y-59230645D01*
X174743341Y-59230643D01*
X174738462Y-59227564D01*
X174553334Y-59153705D01*
X174357847Y-59114820D01*
X174352072Y-59114744D01*
X174352068Y-59114744D01*
X174252588Y-59113442D01*
X174158547Y-59112211D01*
X174152850Y-59113190D01*
X174152849Y-59113190D01*
X174136805Y-59115947D01*
X173962108Y-59145966D01*
X173775111Y-59214953D01*
X173603816Y-59316862D01*
X173453961Y-59448281D01*
X173330565Y-59604809D01*
X173237760Y-59781202D01*
X173208169Y-59876500D01*
X173186060Y-59947704D01*
X173178654Y-59971554D01*
X173155227Y-60169489D01*
X155970479Y-60169489D01*
X155938346Y-60113834D01*
X155882240Y-60016656D01*
X155846789Y-59977283D01*
X155758875Y-59879645D01*
X155758874Y-59879644D01*
X155754453Y-59874734D01*
X155622051Y-59778538D01*
X155605294Y-59766363D01*
X155605293Y-59766362D01*
X155599952Y-59762482D01*
X155593924Y-59759798D01*
X155593922Y-59759797D01*
X155431519Y-59687491D01*
X155431518Y-59687491D01*
X155425488Y-59684806D01*
X155332088Y-59664953D01*
X155245144Y-59646472D01*
X155245139Y-59646472D01*
X155238687Y-59645100D01*
X155047713Y-59645100D01*
X155041261Y-59646472D01*
X155041256Y-59646472D01*
X154954312Y-59664953D01*
X154860912Y-59684806D01*
X154854882Y-59687491D01*
X154854881Y-59687491D01*
X154692478Y-59759797D01*
X154692476Y-59759798D01*
X154686448Y-59762482D01*
X154681107Y-59766362D01*
X154681106Y-59766363D01*
X154664349Y-59778538D01*
X154531947Y-59874734D01*
X154527526Y-59879644D01*
X154527525Y-59879645D01*
X154439612Y-59977283D01*
X154404160Y-60016656D01*
X154348054Y-60113834D01*
X154312593Y-60175255D01*
X154308673Y-60182044D01*
X154249658Y-60363672D01*
X154248968Y-60370233D01*
X154248968Y-60370235D01*
X154244008Y-60417432D01*
X154236044Y-60493209D01*
X154234839Y-60504670D01*
X154207826Y-60570327D01*
X154149605Y-60610957D01*
X154109529Y-60617500D01*
X153533866Y-60617500D01*
X153471684Y-60624255D01*
X153335295Y-60675385D01*
X153218739Y-60762739D01*
X153131385Y-60879295D01*
X153080255Y-61015684D01*
X153073500Y-61077866D01*
X153073500Y-62874134D01*
X153080255Y-62936316D01*
X153131385Y-63072705D01*
X153218739Y-63189261D01*
X153335295Y-63276615D01*
X153343704Y-63279767D01*
X153343705Y-63279768D01*
X153452451Y-63320535D01*
X153509216Y-63363176D01*
X153533916Y-63429738D01*
X153518709Y-63499087D01*
X153499316Y-63525568D01*
X153372629Y-63658138D01*
X153369720Y-63662403D01*
X153369714Y-63662411D01*
X153293308Y-63774418D01*
X153246743Y-63842680D01*
X153152688Y-64045305D01*
X153092989Y-64260570D01*
X153069251Y-64482695D01*
X134530111Y-64482695D01*
X134447941Y-64340374D01*
X134444640Y-64334656D01*
X134437016Y-64326188D01*
X134321275Y-64197645D01*
X134321274Y-64197644D01*
X134316853Y-64192734D01*
X134215867Y-64119363D01*
X134167694Y-64084363D01*
X134167693Y-64084362D01*
X134162352Y-64080482D01*
X134156324Y-64077798D01*
X134156322Y-64077797D01*
X133993919Y-64005491D01*
X133993918Y-64005491D01*
X133987888Y-64002806D01*
X133894488Y-63982953D01*
X133807544Y-63964472D01*
X133807539Y-63964472D01*
X133801087Y-63963100D01*
X133610113Y-63963100D01*
X133603661Y-63964472D01*
X133603656Y-63964472D01*
X133516712Y-63982953D01*
X133423312Y-64002806D01*
X133417282Y-64005491D01*
X133417281Y-64005491D01*
X133254878Y-64077797D01*
X133254876Y-64077798D01*
X133248848Y-64080482D01*
X133243507Y-64084362D01*
X133243506Y-64084363D01*
X133195333Y-64119363D01*
X133094347Y-64192734D01*
X133089926Y-64197644D01*
X133089925Y-64197645D01*
X132974185Y-64326188D01*
X132966560Y-64334656D01*
X132963259Y-64340374D01*
X132878113Y-64487851D01*
X132871073Y-64500044D01*
X132812058Y-64681672D01*
X132811368Y-64688233D01*
X132811368Y-64688235D01*
X132796028Y-64834185D01*
X132792096Y-64871600D01*
X131357629Y-64871600D01*
X131322894Y-64846363D01*
X131322893Y-64846362D01*
X131317552Y-64842482D01*
X131311524Y-64839798D01*
X131311522Y-64839797D01*
X131149119Y-64767491D01*
X131149118Y-64767491D01*
X131143088Y-64764806D01*
X131049688Y-64744953D01*
X130962744Y-64726472D01*
X130962739Y-64726472D01*
X130956287Y-64725100D01*
X130765313Y-64725100D01*
X130758861Y-64726472D01*
X130758856Y-64726472D01*
X130671912Y-64744953D01*
X130578512Y-64764806D01*
X130572482Y-64767491D01*
X130572481Y-64767491D01*
X130410078Y-64839797D01*
X130410076Y-64839798D01*
X130404048Y-64842482D01*
X130398707Y-64846362D01*
X130398706Y-64846363D01*
X130363971Y-64871600D01*
X130249547Y-64954734D01*
X130245126Y-64959644D01*
X130245125Y-64959645D01*
X130147737Y-65067806D01*
X130121760Y-65096656D01*
X130083095Y-65163625D01*
X130048819Y-65222994D01*
X130026273Y-65262044D01*
X129967258Y-65443672D01*
X129966568Y-65450233D01*
X129966568Y-65450235D01*
X129955329Y-65557173D01*
X129947296Y-65633600D01*
X86563015Y-65633600D01*
X86563015Y-63774418D01*
X88279922Y-63774418D01*
X88279971Y-63775110D01*
X88285417Y-63783274D01*
X88363068Y-63855812D01*
X88367307Y-63859433D01*
X88700602Y-64119363D01*
X88705159Y-64122602D01*
X89060248Y-64351880D01*
X89065050Y-64354686D01*
X89439116Y-64551491D01*
X89444174Y-64553871D01*
X89834235Y-64716638D01*
X89839490Y-64718561D01*
X90242476Y-64846008D01*
X90247875Y-64847455D01*
X90660596Y-64938575D01*
X90666107Y-64939537D01*
X91085301Y-64993610D01*
X91090864Y-64994077D01*
X91513205Y-65010670D01*
X91518797Y-65010641D01*
X91940925Y-64989626D01*
X91946508Y-64989098D01*
X92365105Y-64930640D01*
X92370592Y-64929623D01*
X92782343Y-64834185D01*
X92787729Y-64832681D01*
X93189367Y-64701018D01*
X93194584Y-64699046D01*
X93582926Y-64532202D01*
X93587969Y-64529764D01*
X93959931Y-64329063D01*
X93964735Y-64326188D01*
X94317363Y-64093231D01*
X94321926Y-64089916D01*
X94652458Y-63826529D01*
X94656673Y-63822852D01*
X94694623Y-63786649D01*
X94702563Y-63772890D01*
X94702513Y-63771843D01*
X94697622Y-63764032D01*
X94297307Y-63363717D01*
X93412010Y-62478419D01*
X92885922Y-61952332D01*
X91503612Y-60570022D01*
X91489668Y-60562408D01*
X91487835Y-60562539D01*
X91481220Y-60566790D01*
X90095679Y-61952331D01*
X89210381Y-62837628D01*
X88684294Y-63363716D01*
X88287536Y-63760474D01*
X88279922Y-63774418D01*
X86563015Y-63774418D01*
X86563015Y-61349059D01*
X86583017Y-61280938D01*
X86636673Y-61234445D01*
X86706947Y-61224341D01*
X86771527Y-61253835D01*
X86809911Y-61313561D01*
X86812594Y-61324477D01*
X86816336Y-61343291D01*
X86817664Y-61348698D01*
X86936652Y-61754289D01*
X86938458Y-61759564D01*
X87093019Y-62152948D01*
X87095301Y-62158072D01*
X87284216Y-62536150D01*
X87286940Y-62541043D01*
X87508717Y-62900833D01*
X87511868Y-62905469D01*
X87764755Y-63244127D01*
X87768288Y-63248444D01*
X87904022Y-63399988D01*
X87917517Y-63408351D01*
X87926928Y-63402662D01*
X88325083Y-63004507D01*
X89210381Y-62119210D01*
X89287025Y-62042566D01*
X89736468Y-61593122D01*
X91130458Y-60199132D01*
X91855208Y-60199132D01*
X91855339Y-60200965D01*
X91859590Y-60207580D01*
X93245131Y-61593121D01*
X93694574Y-62042565D01*
X93771218Y-62119209D01*
X94656516Y-63004506D01*
X95052942Y-63400932D01*
X95066703Y-63408446D01*
X95076063Y-63401989D01*
X95245044Y-63209303D01*
X95248544Y-63204935D01*
X95497873Y-62863645D01*
X95500968Y-62858987D01*
X95718960Y-62496903D01*
X95721641Y-62491964D01*
X95824405Y-62280800D01*
X105182296Y-62280800D01*
X105202258Y-62470728D01*
X105261273Y-62652356D01*
X105264576Y-62658078D01*
X105264577Y-62658079D01*
X105278404Y-62682028D01*
X105356760Y-62817744D01*
X105361178Y-62822651D01*
X105361179Y-62822652D01*
X105478618Y-62953081D01*
X105484547Y-62959666D01*
X105563698Y-63017173D01*
X105628559Y-63064297D01*
X105639048Y-63071918D01*
X105645076Y-63074602D01*
X105645078Y-63074603D01*
X105781189Y-63135203D01*
X105813512Y-63149594D01*
X105906912Y-63169447D01*
X105993856Y-63187928D01*
X105993861Y-63187928D01*
X106000313Y-63189300D01*
X106191287Y-63189300D01*
X106197739Y-63187928D01*
X106197744Y-63187928D01*
X106284688Y-63169447D01*
X106378088Y-63149594D01*
X106410411Y-63135203D01*
X106546522Y-63074603D01*
X106546524Y-63074602D01*
X106552552Y-63071918D01*
X106563042Y-63064297D01*
X106627902Y-63017173D01*
X106707053Y-62959666D01*
X106712982Y-62953081D01*
X106830421Y-62822652D01*
X106830422Y-62822651D01*
X106834840Y-62817744D01*
X106913196Y-62682028D01*
X106927023Y-62658079D01*
X106927024Y-62658078D01*
X106930327Y-62652356D01*
X106989342Y-62470728D01*
X107009304Y-62280800D01*
X107002768Y-62218614D01*
X106990032Y-62097435D01*
X106990032Y-62097433D01*
X106989342Y-62090872D01*
X106964678Y-62014966D01*
X125658257Y-62014966D01*
X125688565Y-62149446D01*
X125691645Y-62159275D01*
X125771770Y-62356603D01*
X125776413Y-62365794D01*
X125887694Y-62547388D01*
X125893777Y-62555699D01*
X126033213Y-62716667D01*
X126040580Y-62723883D01*
X126204434Y-62859916D01*
X126212881Y-62865831D01*
X126396756Y-62973279D01*
X126406042Y-62977729D01*
X126605001Y-63053703D01*
X126614899Y-63056579D01*
X126718250Y-63077606D01*
X126732299Y-63076410D01*
X126736000Y-63066065D01*
X126736000Y-63065517D01*
X127244000Y-63065517D01*
X127248064Y-63079359D01*
X127261478Y-63081393D01*
X127268184Y-63080534D01*
X127278262Y-63078392D01*
X127482255Y-63017191D01*
X127491842Y-63013433D01*
X127683095Y-62919739D01*
X127691945Y-62914464D01*
X127865328Y-62790792D01*
X127873200Y-62784139D01*
X128024052Y-62633812D01*
X128030730Y-62625965D01*
X128158022Y-62448819D01*
X128159279Y-62449722D01*
X128206373Y-62406362D01*
X128276311Y-62394145D01*
X128341751Y-62421678D01*
X128369579Y-62453511D01*
X128429987Y-62552088D01*
X128576250Y-62720938D01*
X128652376Y-62784139D01*
X128737687Y-62854965D01*
X128748126Y-62863632D01*
X128790840Y-62888592D01*
X128866067Y-62932551D01*
X128914791Y-62984190D01*
X128927862Y-63053973D01*
X128901131Y-63119744D01*
X128896133Y-63125649D01*
X128845322Y-63182081D01*
X128790960Y-63242456D01*
X128753485Y-63307364D01*
X128699464Y-63400932D01*
X128695473Y-63407844D01*
X128636458Y-63589472D01*
X128635768Y-63596033D01*
X128635768Y-63596035D01*
X128618485Y-63760474D01*
X128616496Y-63779400D01*
X128617186Y-63785965D01*
X128625033Y-63860621D01*
X128636458Y-63969328D01*
X128695473Y-64150956D01*
X128790960Y-64316344D01*
X128795378Y-64321251D01*
X128795379Y-64321252D01*
X128802412Y-64329063D01*
X128918747Y-64458266D01*
X129073248Y-64570518D01*
X129079276Y-64573202D01*
X129079278Y-64573203D01*
X129241681Y-64645509D01*
X129247712Y-64648194D01*
X129341112Y-64668047D01*
X129428056Y-64686528D01*
X129428061Y-64686528D01*
X129434513Y-64687900D01*
X129625487Y-64687900D01*
X129631939Y-64686528D01*
X129631944Y-64686528D01*
X129718888Y-64668047D01*
X129812288Y-64648194D01*
X129818319Y-64645509D01*
X129980722Y-64573203D01*
X129980724Y-64573202D01*
X129986752Y-64570518D01*
X130141253Y-64458266D01*
X130257588Y-64329063D01*
X130264621Y-64321252D01*
X130264622Y-64321251D01*
X130269040Y-64316344D01*
X130364527Y-64150956D01*
X130423542Y-63969328D01*
X130434968Y-63860621D01*
X130442814Y-63785965D01*
X130443504Y-63779400D01*
X130441515Y-63760474D01*
X130424232Y-63596035D01*
X130424232Y-63596033D01*
X130423542Y-63589472D01*
X130364527Y-63407844D01*
X130360537Y-63400932D01*
X130306515Y-63307364D01*
X130269040Y-63242456D01*
X130165371Y-63127320D01*
X130134654Y-63063313D01*
X130143418Y-62992859D01*
X130188880Y-62938328D01*
X130203571Y-62929861D01*
X130227994Y-62917896D01*
X130409860Y-62788173D01*
X130568096Y-62630489D01*
X130596748Y-62590616D01*
X130698453Y-62449077D01*
X130699776Y-62450028D01*
X130746645Y-62406857D01*
X130816580Y-62394625D01*
X130882026Y-62422144D01*
X130909875Y-62453994D01*
X130969987Y-62552088D01*
X131116250Y-62720938D01*
X131192376Y-62784139D01*
X131277687Y-62854965D01*
X131288126Y-62863632D01*
X131481000Y-62976338D01*
X131689692Y-63056030D01*
X131694760Y-63057061D01*
X131694763Y-63057062D01*
X131789862Y-63076410D01*
X131908597Y-63100567D01*
X131913772Y-63100757D01*
X131913774Y-63100757D01*
X132126673Y-63108564D01*
X132126677Y-63108564D01*
X132131837Y-63108753D01*
X132136957Y-63108097D01*
X132136959Y-63108097D01*
X132348288Y-63081025D01*
X132348289Y-63081025D01*
X132353416Y-63080368D01*
X132358366Y-63078883D01*
X132562429Y-63017661D01*
X132562434Y-63017659D01*
X132567384Y-63016174D01*
X132767994Y-62917896D01*
X132949860Y-62788173D01*
X133058091Y-62680319D01*
X133120462Y-62646404D01*
X133191268Y-62651592D01*
X133248030Y-62694238D01*
X133265012Y-62725341D01*
X133309385Y-62843705D01*
X133396739Y-62960261D01*
X133513295Y-63047615D01*
X133649684Y-63098745D01*
X133711866Y-63105500D01*
X135508134Y-63105500D01*
X135570316Y-63098745D01*
X135706705Y-63047615D01*
X135823261Y-62960261D01*
X135910615Y-62843705D01*
X135961745Y-62707316D01*
X135968500Y-62645134D01*
X135968500Y-60848866D01*
X135961745Y-60786684D01*
X135910615Y-60650295D01*
X135823261Y-60533739D01*
X135706705Y-60446385D01*
X135570316Y-60395255D01*
X135508134Y-60388500D01*
X133711866Y-60388500D01*
X133649684Y-60395255D01*
X133513295Y-60446385D01*
X133396739Y-60533739D01*
X133309385Y-60650295D01*
X133306233Y-60658703D01*
X133264919Y-60768907D01*
X133222277Y-60825671D01*
X133155716Y-60850371D01*
X133086367Y-60835163D01*
X133053743Y-60809476D01*
X133003151Y-60753875D01*
X133003142Y-60753866D01*
X132999670Y-60750051D01*
X132995619Y-60746852D01*
X132995615Y-60746848D01*
X132828414Y-60614800D01*
X132828410Y-60614798D01*
X132824359Y-60611598D01*
X132815525Y-60606721D01*
X132733722Y-60561564D01*
X132628789Y-60503638D01*
X132623920Y-60501914D01*
X132623916Y-60501912D01*
X132423087Y-60430795D01*
X132423083Y-60430794D01*
X132418212Y-60429069D01*
X132413119Y-60428162D01*
X132413116Y-60428161D01*
X132203373Y-60390800D01*
X132203367Y-60390799D01*
X132198284Y-60389894D01*
X132124452Y-60388992D01*
X131980081Y-60387228D01*
X131980079Y-60387228D01*
X131974911Y-60387165D01*
X131754091Y-60420955D01*
X131541756Y-60490357D01*
X131468757Y-60528358D01*
X131403348Y-60562408D01*
X131343607Y-60593507D01*
X131339474Y-60596610D01*
X131339471Y-60596612D01*
X131169100Y-60724530D01*
X131164965Y-60727635D01*
X131139541Y-60754240D01*
X131071280Y-60825671D01*
X131010629Y-60889138D01*
X130903201Y-61046621D01*
X130848293Y-61091621D01*
X130777768Y-61099792D01*
X130714021Y-61068538D01*
X130693324Y-61044054D01*
X130612822Y-60919617D01*
X130612820Y-60919614D01*
X130610014Y-60915277D01*
X130459670Y-60750051D01*
X130455619Y-60746852D01*
X130455615Y-60746848D01*
X130288414Y-60614800D01*
X130288410Y-60614798D01*
X130284359Y-60611598D01*
X130275525Y-60606721D01*
X130193722Y-60561564D01*
X130088789Y-60503638D01*
X130083920Y-60501914D01*
X130083916Y-60501912D01*
X129883087Y-60430795D01*
X129883083Y-60430794D01*
X129878212Y-60429069D01*
X129873119Y-60428162D01*
X129873116Y-60428161D01*
X129663373Y-60390800D01*
X129663367Y-60390799D01*
X129658284Y-60389894D01*
X129584452Y-60388992D01*
X129440081Y-60387228D01*
X129440079Y-60387228D01*
X129434911Y-60387165D01*
X129214091Y-60420955D01*
X129001756Y-60490357D01*
X128928757Y-60528358D01*
X128863348Y-60562408D01*
X128803607Y-60593507D01*
X128799474Y-60596610D01*
X128799471Y-60596612D01*
X128629100Y-60724530D01*
X128624965Y-60727635D01*
X128599541Y-60754240D01*
X128531280Y-60825671D01*
X128470629Y-60889138D01*
X128467720Y-60893403D01*
X128467714Y-60893411D01*
X128455404Y-60911457D01*
X128363204Y-61046618D01*
X128362898Y-61047066D01*
X128307987Y-61092069D01*
X128237462Y-61100240D01*
X128173715Y-61068986D01*
X128153018Y-61044502D01*
X128072426Y-60919926D01*
X128066136Y-60911757D01*
X127922806Y-60754240D01*
X127915273Y-60747215D01*
X127748139Y-60615222D01*
X127739552Y-60609517D01*
X127553117Y-60506599D01*
X127543705Y-60502369D01*
X127342959Y-60431280D01*
X127332988Y-60428646D01*
X127261837Y-60415972D01*
X127248540Y-60417432D01*
X127244000Y-60431989D01*
X127244000Y-63065517D01*
X126736000Y-63065517D01*
X126736000Y-62019115D01*
X126731525Y-62003876D01*
X126730135Y-62002671D01*
X126722452Y-62001000D01*
X125673225Y-62001000D01*
X125659694Y-62004973D01*
X125658257Y-62014966D01*
X106964678Y-62014966D01*
X106930327Y-61909244D01*
X106834840Y-61743856D01*
X106811584Y-61718027D01*
X106711475Y-61606845D01*
X106711474Y-61606844D01*
X106707053Y-61601934D01*
X106552552Y-61489682D01*
X106546524Y-61486998D01*
X106546522Y-61486997D01*
X106384119Y-61414691D01*
X106384118Y-61414691D01*
X106378088Y-61412006D01*
X106284688Y-61392153D01*
X106197744Y-61373672D01*
X106197739Y-61373672D01*
X106191287Y-61372300D01*
X106000313Y-61372300D01*
X105993861Y-61373672D01*
X105993856Y-61373672D01*
X105906912Y-61392153D01*
X105813512Y-61412006D01*
X105807482Y-61414691D01*
X105807481Y-61414691D01*
X105645078Y-61486997D01*
X105645076Y-61486998D01*
X105639048Y-61489682D01*
X105484547Y-61601934D01*
X105480126Y-61606844D01*
X105480125Y-61606845D01*
X105380017Y-61718027D01*
X105356760Y-61743856D01*
X105261273Y-61909244D01*
X105202258Y-62090872D01*
X105201568Y-62097433D01*
X105201568Y-62097435D01*
X105188832Y-62218614D01*
X105182296Y-62280800D01*
X95824405Y-62280800D01*
X95906579Y-62111946D01*
X95908814Y-62106780D01*
X96059242Y-61711815D01*
X96061001Y-61706496D01*
X96175720Y-61299730D01*
X96177004Y-61294259D01*
X96255115Y-60878883D01*
X96255902Y-60873346D01*
X96296835Y-60452102D01*
X96297108Y-60447665D01*
X96303588Y-60200233D01*
X96303546Y-60195762D01*
X96291064Y-59915489D01*
X96599627Y-59915489D01*
X96601496Y-59944000D01*
X96612663Y-60114380D01*
X96614084Y-60119976D01*
X96614085Y-60119981D01*
X96651043Y-60265500D01*
X96661726Y-60307564D01*
X96664143Y-60312807D01*
X96723770Y-60442148D01*
X96745172Y-60488573D01*
X96771874Y-60526355D01*
X96856736Y-60646432D01*
X96860207Y-60651344D01*
X97002978Y-60790425D01*
X97007782Y-60793635D01*
X97018258Y-60800635D01*
X97168704Y-60901160D01*
X97174007Y-60903438D01*
X97174010Y-60903440D01*
X97346528Y-60977559D01*
X97351835Y-60979839D01*
X97399237Y-60990565D01*
X97540601Y-61022553D01*
X97540607Y-61022554D01*
X97546238Y-61023828D01*
X97552009Y-61024055D01*
X97552011Y-61024055D01*
X97612956Y-61026449D01*
X97745401Y-61031653D01*
X97855540Y-61015684D01*
X97936935Y-61003883D01*
X97936940Y-61003882D01*
X97942656Y-61003053D01*
X97948128Y-61001195D01*
X97948130Y-61001195D01*
X97998785Y-60984000D01*
X117121696Y-60984000D01*
X117122386Y-60990565D01*
X117138542Y-61144277D01*
X117141658Y-61173928D01*
X117200673Y-61355556D01*
X117296160Y-61520944D01*
X117300578Y-61525851D01*
X117300579Y-61525852D01*
X117419525Y-61657955D01*
X117423947Y-61662866D01*
X117578448Y-61775118D01*
X117584476Y-61777802D01*
X117584478Y-61777803D01*
X117746881Y-61850109D01*
X117752912Y-61852794D01*
X117846313Y-61872647D01*
X117933256Y-61891128D01*
X117933261Y-61891128D01*
X117939713Y-61892500D01*
X118130687Y-61892500D01*
X118137139Y-61891128D01*
X118137144Y-61891128D01*
X118224087Y-61872647D01*
X118317488Y-61852794D01*
X118323519Y-61850109D01*
X118485922Y-61777803D01*
X118485924Y-61777802D01*
X118491952Y-61775118D01*
X118646453Y-61662866D01*
X118650875Y-61657955D01*
X118769821Y-61525852D01*
X118769822Y-61525851D01*
X118774240Y-61520944D01*
X118797196Y-61481183D01*
X125654389Y-61481183D01*
X125655912Y-61489607D01*
X125668292Y-61493000D01*
X126717885Y-61493000D01*
X126733124Y-61488525D01*
X126734329Y-61487135D01*
X126736000Y-61479452D01*
X126736000Y-60430102D01*
X126732082Y-60416758D01*
X126717806Y-60414771D01*
X126679324Y-60420660D01*
X126669288Y-60423051D01*
X126466868Y-60489212D01*
X126457359Y-60493209D01*
X126268463Y-60591542D01*
X126259738Y-60597036D01*
X126089433Y-60724905D01*
X126081726Y-60731748D01*
X125934590Y-60885717D01*
X125928104Y-60893727D01*
X125808098Y-61069649D01*
X125803000Y-61078623D01*
X125713338Y-61271783D01*
X125709775Y-61281470D01*
X125654389Y-61481183D01*
X118797196Y-61481183D01*
X118869727Y-61355556D01*
X118928742Y-61173928D01*
X118931859Y-61144277D01*
X118948014Y-60990565D01*
X118948704Y-60984000D01*
X118928742Y-60794072D01*
X118869727Y-60612444D01*
X118860587Y-60596612D01*
X118808617Y-60506599D01*
X118774240Y-60447056D01*
X118758045Y-60429069D01*
X118650875Y-60310045D01*
X118650874Y-60310044D01*
X118646453Y-60305134D01*
X118533795Y-60223283D01*
X118497294Y-60196763D01*
X118497293Y-60196762D01*
X118491952Y-60192882D01*
X118485924Y-60190198D01*
X118485922Y-60190197D01*
X118323519Y-60117891D01*
X118323518Y-60117891D01*
X118317488Y-60115206D01*
X118224087Y-60095353D01*
X118137144Y-60076872D01*
X118137139Y-60076872D01*
X118130687Y-60075500D01*
X117939713Y-60075500D01*
X117933261Y-60076872D01*
X117933256Y-60076872D01*
X117846313Y-60095353D01*
X117752912Y-60115206D01*
X117746882Y-60117891D01*
X117746881Y-60117891D01*
X117584478Y-60190197D01*
X117584476Y-60190198D01*
X117578448Y-60192882D01*
X117573107Y-60196762D01*
X117573106Y-60196763D01*
X117536605Y-60223283D01*
X117423947Y-60305134D01*
X117419526Y-60310044D01*
X117419525Y-60310045D01*
X117312356Y-60429069D01*
X117296160Y-60447056D01*
X117261783Y-60506599D01*
X117209814Y-60596612D01*
X117200673Y-60612444D01*
X117141658Y-60794072D01*
X117121696Y-60984000D01*
X97998785Y-60984000D01*
X98125932Y-60940839D01*
X98125934Y-60940838D01*
X98131396Y-60938984D01*
X98305299Y-60841594D01*
X98313032Y-60835163D01*
X98454105Y-60717834D01*
X98458543Y-60714143D01*
X98585994Y-60560899D01*
X98683384Y-60386996D01*
X98689704Y-60368380D01*
X98745595Y-60203730D01*
X98745595Y-60203728D01*
X98747453Y-60198256D01*
X98748282Y-60192540D01*
X98748283Y-60192535D01*
X98774495Y-60011748D01*
X98776053Y-60001001D01*
X98777546Y-59944000D01*
X98763095Y-59786727D01*
X98759837Y-59751273D01*
X98759836Y-59751270D01*
X98759308Y-59745519D01*
X98755861Y-59733294D01*
X98706773Y-59559244D01*
X98706772Y-59559242D01*
X98705205Y-59553685D01*
X98692146Y-59527202D01*
X98619605Y-59380104D01*
X98617050Y-59374923D01*
X98497793Y-59215219D01*
X98351430Y-59079922D01*
X98346547Y-59076841D01*
X98346543Y-59076838D01*
X98187746Y-58976645D01*
X98187741Y-58976643D01*
X98182862Y-58973564D01*
X97997734Y-58899705D01*
X97802247Y-58860820D01*
X97796472Y-58860744D01*
X97796468Y-58860744D01*
X97696988Y-58859442D01*
X97602947Y-58858211D01*
X97597250Y-58859190D01*
X97597249Y-58859190D01*
X97581205Y-58861947D01*
X97406508Y-58891966D01*
X97219511Y-58960953D01*
X97048216Y-59062862D01*
X96898361Y-59194281D01*
X96774965Y-59350809D01*
X96772276Y-59355920D01*
X96772274Y-59355923D01*
X96764712Y-59370296D01*
X96682160Y-59527202D01*
X96650575Y-59628923D01*
X96633223Y-59684806D01*
X96623054Y-59717554D01*
X96599627Y-59915489D01*
X96291064Y-59915489D01*
X96284717Y-59772973D01*
X96284219Y-59767386D01*
X96227955Y-59348499D01*
X96226962Y-59342976D01*
X96133683Y-58930748D01*
X96132210Y-58925361D01*
X96002647Y-58523025D01*
X96000710Y-58517815D01*
X95835898Y-58128599D01*
X95833483Y-58123536D01*
X95634736Y-57750535D01*
X95631885Y-57745713D01*
X95400774Y-57391865D01*
X95397492Y-57387297D01*
X95135830Y-57055380D01*
X95132182Y-57051155D01*
X95078903Y-56994715D01*
X95065189Y-56986705D01*
X95064317Y-56986742D01*
X95056238Y-56991772D01*
X94656517Y-57391493D01*
X93771219Y-58276790D01*
X93245132Y-58802878D01*
X91862822Y-60185188D01*
X91855208Y-60199132D01*
X91130458Y-60199132D01*
X92885921Y-58443669D01*
X93771219Y-57558372D01*
X93850327Y-57479264D01*
X94297306Y-57032284D01*
X94414303Y-56915287D01*
X101426700Y-56915287D01*
X101466406Y-57102088D01*
X101544082Y-57276552D01*
X101656334Y-57431053D01*
X101798256Y-57558840D01*
X101963644Y-57654327D01*
X102145272Y-57713342D01*
X102151833Y-57714032D01*
X102151835Y-57714032D01*
X102205089Y-57719629D01*
X102287590Y-57728300D01*
X102382810Y-57728300D01*
X102465311Y-57719629D01*
X102518565Y-57714032D01*
X102518567Y-57714032D01*
X102525128Y-57713342D01*
X102706756Y-57654327D01*
X102872144Y-57558840D01*
X103014066Y-57431053D01*
X103126318Y-57276552D01*
X103203994Y-57102088D01*
X103243700Y-56915287D01*
X104426700Y-56915287D01*
X104466406Y-57102088D01*
X104544082Y-57276552D01*
X104656334Y-57431053D01*
X104798256Y-57558840D01*
X104963644Y-57654327D01*
X105145272Y-57713342D01*
X105151833Y-57714032D01*
X105151835Y-57714032D01*
X105205089Y-57719629D01*
X105287590Y-57728300D01*
X105382810Y-57728300D01*
X105465311Y-57719629D01*
X105518565Y-57714032D01*
X105518567Y-57714032D01*
X105525128Y-57713342D01*
X105706756Y-57654327D01*
X105872144Y-57558840D01*
X106014066Y-57431053D01*
X106126318Y-57276552D01*
X106203994Y-57102088D01*
X106243700Y-56915287D01*
X113340700Y-56915287D01*
X113380406Y-57102088D01*
X113458082Y-57276552D01*
X113570334Y-57431053D01*
X113712256Y-57558840D01*
X113877644Y-57654327D01*
X114059272Y-57713342D01*
X114065833Y-57714032D01*
X114065835Y-57714032D01*
X114119089Y-57719629D01*
X114201590Y-57728300D01*
X114296810Y-57728300D01*
X114379311Y-57719629D01*
X114432565Y-57714032D01*
X114432567Y-57714032D01*
X114439128Y-57713342D01*
X114620756Y-57654327D01*
X114786144Y-57558840D01*
X114928066Y-57431053D01*
X115040318Y-57276552D01*
X115117994Y-57102088D01*
X115157700Y-56915287D01*
X116340700Y-56915287D01*
X116380406Y-57102088D01*
X116458082Y-57276552D01*
X116570334Y-57431053D01*
X116712256Y-57558840D01*
X116877644Y-57654327D01*
X117059272Y-57713342D01*
X117065833Y-57714032D01*
X117065835Y-57714032D01*
X117119089Y-57719629D01*
X117201590Y-57728300D01*
X117296810Y-57728300D01*
X117379311Y-57719629D01*
X117432565Y-57714032D01*
X117432567Y-57714032D01*
X117439128Y-57713342D01*
X117620756Y-57654327D01*
X117786144Y-57558840D01*
X117928066Y-57431053D01*
X118040318Y-57276552D01*
X118117994Y-57102088D01*
X118157700Y-56915287D01*
X118157700Y-56724313D01*
X118143205Y-56656117D01*
X118137847Y-56630912D01*
X118136050Y-56622456D01*
X176874031Y-56622456D01*
X176880139Y-56632929D01*
X177279493Y-57032283D01*
X177726472Y-57479263D01*
X177805580Y-57558371D01*
X178690878Y-58443668D01*
X180073188Y-59825978D01*
X180087132Y-59833592D01*
X180088965Y-59833461D01*
X180095580Y-59829210D01*
X181481121Y-58443669D01*
X182366419Y-57558372D01*
X182445527Y-57479264D01*
X182892506Y-57032284D01*
X183288754Y-56636036D01*
X183296316Y-56622187D01*
X183289987Y-56612962D01*
X183116928Y-56459582D01*
X183112561Y-56456046D01*
X182772600Y-56204948D01*
X182767947Y-56201821D01*
X182406995Y-55981926D01*
X182402094Y-55979232D01*
X182023027Y-55792297D01*
X182017904Y-55790048D01*
X181623707Y-55637545D01*
X181618417Y-55635765D01*
X181212218Y-55518904D01*
X181206794Y-55517602D01*
X180791822Y-55437316D01*
X180786293Y-55436500D01*
X180365828Y-55393420D01*
X180360247Y-55393098D01*
X179937635Y-55387566D01*
X179932024Y-55387742D01*
X179510593Y-55419800D01*
X179505036Y-55420472D01*
X179088128Y-55489864D01*
X179082631Y-55491032D01*
X178673547Y-55597209D01*
X178668181Y-55598861D01*
X178270153Y-55740983D01*
X178264965Y-55743100D01*
X177881133Y-55920050D01*
X177876164Y-55922614D01*
X177509581Y-56132984D01*
X177504848Y-56135987D01*
X177158420Y-56378109D01*
X177153979Y-56381517D01*
X176882476Y-56609739D01*
X176874031Y-56622456D01*
X118136050Y-56622456D01*
X118117994Y-56537512D01*
X118115309Y-56531481D01*
X118043003Y-56369078D01*
X118043002Y-56369076D01*
X118040318Y-56363048D01*
X117928066Y-56208547D01*
X117786144Y-56080760D01*
X117620756Y-55985273D01*
X117439128Y-55926258D01*
X117432567Y-55925568D01*
X117432565Y-55925568D01*
X117379311Y-55919971D01*
X117296810Y-55911300D01*
X117201590Y-55911300D01*
X117119089Y-55919971D01*
X117065835Y-55925568D01*
X117065833Y-55925568D01*
X117059272Y-55926258D01*
X116877644Y-55985273D01*
X116712256Y-56080760D01*
X116570334Y-56208547D01*
X116458082Y-56363048D01*
X116455398Y-56369076D01*
X116455397Y-56369078D01*
X116383091Y-56531481D01*
X116380406Y-56537512D01*
X116360553Y-56630912D01*
X116355196Y-56656117D01*
X116340700Y-56724313D01*
X116340700Y-56915287D01*
X115157700Y-56915287D01*
X115157700Y-56724313D01*
X115143205Y-56656117D01*
X115137847Y-56630912D01*
X115117994Y-56537512D01*
X115115309Y-56531481D01*
X115043003Y-56369078D01*
X115043002Y-56369076D01*
X115040318Y-56363048D01*
X114928066Y-56208547D01*
X114786144Y-56080760D01*
X114620756Y-55985273D01*
X114439128Y-55926258D01*
X114432567Y-55925568D01*
X114432565Y-55925568D01*
X114379311Y-55919971D01*
X114296810Y-55911300D01*
X114201590Y-55911300D01*
X114119089Y-55919971D01*
X114065835Y-55925568D01*
X114065833Y-55925568D01*
X114059272Y-55926258D01*
X113877644Y-55985273D01*
X113712256Y-56080760D01*
X113570334Y-56208547D01*
X113458082Y-56363048D01*
X113455398Y-56369076D01*
X113455397Y-56369078D01*
X113383091Y-56531481D01*
X113380406Y-56537512D01*
X113360553Y-56630912D01*
X113355196Y-56656117D01*
X113340700Y-56724313D01*
X113340700Y-56915287D01*
X106243700Y-56915287D01*
X106243700Y-56724313D01*
X106229205Y-56656117D01*
X106223847Y-56630912D01*
X106203994Y-56537512D01*
X106201309Y-56531481D01*
X106129003Y-56369078D01*
X106129002Y-56369076D01*
X106126318Y-56363048D01*
X106014066Y-56208547D01*
X105872144Y-56080760D01*
X105706756Y-55985273D01*
X105525128Y-55926258D01*
X105518567Y-55925568D01*
X105518565Y-55925568D01*
X105465311Y-55919971D01*
X105382810Y-55911300D01*
X105287590Y-55911300D01*
X105205089Y-55919971D01*
X105151835Y-55925568D01*
X105151833Y-55925568D01*
X105145272Y-55926258D01*
X104963644Y-55985273D01*
X104798256Y-56080760D01*
X104656334Y-56208547D01*
X104544082Y-56363048D01*
X104541398Y-56369076D01*
X104541397Y-56369078D01*
X104469091Y-56531481D01*
X104466406Y-56537512D01*
X104446553Y-56630912D01*
X104441196Y-56656117D01*
X104426700Y-56724313D01*
X104426700Y-56915287D01*
X103243700Y-56915287D01*
X103243700Y-56724313D01*
X103229205Y-56656117D01*
X103223847Y-56630912D01*
X103203994Y-56537512D01*
X103201309Y-56531481D01*
X103129003Y-56369078D01*
X103129002Y-56369076D01*
X103126318Y-56363048D01*
X103014066Y-56208547D01*
X102872144Y-56080760D01*
X102706756Y-55985273D01*
X102525128Y-55926258D01*
X102518567Y-55925568D01*
X102518565Y-55925568D01*
X102465311Y-55919971D01*
X102382810Y-55911300D01*
X102287590Y-55911300D01*
X102205089Y-55919971D01*
X102151835Y-55925568D01*
X102151833Y-55925568D01*
X102145272Y-55926258D01*
X101963644Y-55985273D01*
X101798256Y-56080760D01*
X101656334Y-56208547D01*
X101544082Y-56363048D01*
X101541398Y-56369076D01*
X101541397Y-56369078D01*
X101469091Y-56531481D01*
X101466406Y-56537512D01*
X101446553Y-56630912D01*
X101441196Y-56656117D01*
X101426700Y-56724313D01*
X101426700Y-56915287D01*
X94414303Y-56915287D01*
X94693554Y-56636036D01*
X94701116Y-56622187D01*
X94694787Y-56612962D01*
X94521728Y-56459582D01*
X94517361Y-56456046D01*
X94177400Y-56204948D01*
X94172747Y-56201821D01*
X93811795Y-55981926D01*
X93806894Y-55979232D01*
X93427827Y-55792297D01*
X93422704Y-55790048D01*
X93028507Y-55637545D01*
X93023217Y-55635765D01*
X92617018Y-55518904D01*
X92611594Y-55517602D01*
X92196622Y-55437316D01*
X92191093Y-55436500D01*
X91770628Y-55393420D01*
X91765047Y-55393098D01*
X91342435Y-55387566D01*
X91336824Y-55387742D01*
X90924465Y-55419109D01*
X90855023Y-55404331D01*
X90804595Y-55354357D01*
X90789190Y-55285052D01*
X90813699Y-55218420D01*
X90870342Y-55175617D01*
X90895193Y-55169024D01*
X91016124Y-55149870D01*
X91026912Y-55148635D01*
X91410741Y-55121395D01*
X91435588Y-55122090D01*
X91439063Y-55122533D01*
X91439064Y-55122533D01*
X91447971Y-55123668D01*
X91470620Y-55120065D01*
X91490415Y-55118500D01*
X180036633Y-55118500D01*
X180056018Y-55120000D01*
G37*
%TD.AperFunction*%
%TA.AperFunction,Conductor*%
G36*
X181884365Y-121952857D02*
G01*
X181929428Y-121981817D01*
X182366419Y-122418809D01*
X183162622Y-123215011D01*
X183196647Y-123277323D01*
X183191582Y-123348139D01*
X183162622Y-123393201D01*
X183072112Y-123483712D01*
X183072111Y-123483713D01*
X182981601Y-123574222D01*
X182919289Y-123608247D01*
X182848473Y-123603181D01*
X182803410Y-123574221D01*
X182007209Y-122778019D01*
X181570216Y-122341027D01*
X181536191Y-122278715D01*
X181541256Y-122207899D01*
X181570216Y-122162837D01*
X181660726Y-122072326D01*
X181660727Y-122072325D01*
X181751237Y-121981816D01*
X181813549Y-121947791D01*
X181884365Y-121952857D01*
G37*
%TD.AperFunction*%
%TA.AperFunction,Conductor*%
G36*
X89780501Y-121952856D02*
G01*
X89825563Y-121981816D01*
X89916074Y-122072326D01*
X89916075Y-122072327D01*
X90006584Y-122162837D01*
X90040609Y-122225149D01*
X90035543Y-122295965D01*
X90006583Y-122341028D01*
X89210381Y-123137229D01*
X88773389Y-123574222D01*
X88711077Y-123608247D01*
X88640261Y-123603182D01*
X88595199Y-123574222D01*
X88504688Y-123483712D01*
X88504687Y-123483711D01*
X88414178Y-123393201D01*
X88380153Y-123330889D01*
X88385219Y-123260073D01*
X88414179Y-123215010D01*
X89210381Y-122418809D01*
X89647373Y-121981816D01*
X89709685Y-121947791D01*
X89780501Y-121952856D01*
G37*
%TD.AperFunction*%
%TA.AperFunction,Conductor*%
G36*
X88728327Y-57092419D02*
G01*
X88773390Y-57121379D01*
X89210381Y-57558371D01*
X90006584Y-58354573D01*
X90040609Y-58416885D01*
X90035544Y-58487701D01*
X90006584Y-58532763D01*
X89916074Y-58623274D01*
X89916073Y-58623275D01*
X89825563Y-58713784D01*
X89763251Y-58747809D01*
X89692435Y-58742743D01*
X89647372Y-58713783D01*
X88851171Y-57917581D01*
X88414178Y-57480589D01*
X88380153Y-57418277D01*
X88385218Y-57347461D01*
X88414178Y-57302399D01*
X88504688Y-57211888D01*
X88504689Y-57211887D01*
X88595199Y-57121378D01*
X88657511Y-57087353D01*
X88728327Y-57092419D01*
G37*
%TD.AperFunction*%
%TD*%
M02*
