M48
; DRILL file {KiCad (6.0.9)} date Fri Dec  2 11:09:31 2022
; FORMAT={-:-/ absolute / metric / decimal}
; #@! TF.CreationDate,2022-12-02T11:09:31-06:00
; #@! TF.GenerationSoftware,Kicad,Pcbnew,(6.0.9)
; #@! TF.FileFunction,Plated,1,4,PTH
FMAT,2
METRIC
; #@! TA.AperFunction,Plated,PTH,ViaDrill
T1C0.400
; #@! TA.AperFunction,Plated,PTH,ComponentDrill
T2C0.600
; #@! TA.AperFunction,Plated,PTH,ComponentDrill
T3C1.000
; #@! TA.AperFunction,Plated,PTH,ComponentDrill
T4C1.300
; #@! TA.AperFunction,Plated,PTH,ComponentDrill
T5C4.300
%
G90
G05
T1
X95.86Y-71.882
X95.86Y-77.216
X101.524Y-62.128
X105.588Y-88.515
X105.588Y-100.072
X106.096Y-62.281
X106.299Y-77.724
X106.858Y-100.961
X106.985Y-89.531
X107.874Y-104.771
X108.128Y-93.214
X110.859Y-84.062
X113.538Y-61.011
X113.69Y-80.162
X115.316Y-82.804
X116.053Y-73.127
X116.281Y-75.438
X117.704Y-77.521
X118.035Y-60.984
X118.11Y-81.788
X118.11Y-83.312
X119.507Y-85.344
X120.396Y-79.883
X120.396Y-84.455
X120.904Y-75.692
X121.666Y-70.739
X121.666Y-74.041
X121.666Y-79.883
X123.19Y-70.739
X125.07Y-97.892
X125.222Y-70.968
X125.73Y-83.501
X125.933Y-88.138
X125.984Y-80.752
X127.0Y-63.602
X127.04Y-70.866
X127.127Y-83.566
X127.635Y-87.376
X128.905Y-83.501
X129.159Y-86.868
X129.53Y-63.779
X130.556Y-68.326
X130.861Y-65.634
X131.318Y-79.501
X131.826Y-80.645
X132.842Y-81.026
X133.096Y-68.326
X133.235Y-78.752
X133.706Y-64.872
X134.366Y-89.027
X134.569Y-95.148
X134.874Y-86.868
X135.255Y-88.138
X135.382Y-74.422
X136.144Y-72.644
X136.652Y-86.106
X137.287Y-73.914
X138.811Y-74.676
X140.005Y-112.801
X140.005Y-113.97
X142.494Y-82.55
X142.558Y-81.216
X143.916Y-112.878
X143.916Y-113.97
X144.272Y-83.693
X145.034Y-84.709
X146.177Y-116.586
X146.177Y-119.888
X146.939Y-79.756
X148.082Y-116.586
X148.082Y-119.888
X148.438Y-80.543
X150.012Y-76.657
X150.241Y-105.791
X150.329Y-104.687
X150.52Y-91.338
X151.028Y-115.519
X151.028Y-117.196
X151.028Y-119.126
X151.028Y-120.752
X152.654Y-113.233
X152.654Y-114.148
X154.127Y-106.172
X154.813Y-115.951
X155.143Y-60.554
X155.702Y-116.713
X156.159Y-106.172
X156.261Y-76.708
X156.972Y-60.147
X157.988Y-67.056
X158.75Y-109.347
X159.512Y-60.147
X159.639Y-110.236
X161.036Y-113.411
X161.925Y-114.173
X162.56Y-108.407
X163.271Y-107.848
X164.592Y-60.147
X171.704Y-93.421
X172.669Y-78.232
X175.514Y-93.472
X180.2Y-76.073
X180.248Y-77.216
T2
X88.266Y-60.198
X88.266Y-120.498
X89.21Y-57.918
X89.21Y-62.478
X89.21Y-118.217
X89.21Y-122.778
X91.491Y-56.973
X91.491Y-63.423
X91.491Y-117.273
X91.491Y-123.723
X93.771Y-57.918
X93.771Y-62.478
X93.771Y-118.217
X93.771Y-122.778
X94.716Y-60.198
X94.716Y-120.498
X176.861Y-60.198
X176.861Y-120.498
X177.806Y-57.918
X177.806Y-62.478
X177.806Y-118.217
X177.806Y-122.778
X180.086Y-56.973
X180.086Y-63.423
X180.086Y-117.273
X180.086Y-123.723
X182.366Y-57.918
X182.366Y-62.478
X182.366Y-118.217
X182.366Y-122.778
X183.311Y-60.198
X183.311Y-120.498
T3
X126.99Y-61.747
X127.0Y-97.028
X129.53Y-61.747
X129.54Y-97.028
X132.07Y-61.747
X132.08Y-97.028
X134.61Y-61.747
X134.62Y-97.028
X151.872Y-76.688
X151.872Y-79.228
X151.872Y-81.768
X151.872Y-84.308
X151.872Y-86.848
X151.872Y-89.388
X151.872Y-91.928
X154.412Y-76.688
X154.412Y-79.228
X154.412Y-81.768
X154.412Y-84.308
X154.412Y-86.848
X154.412Y-89.388
X154.412Y-91.928
X154.432Y-61.976
X154.432Y-64.516
X156.972Y-61.976
X156.972Y-64.516
X159.512Y-61.976
X159.512Y-64.516
X162.052Y-61.976
X162.052Y-64.516
X164.592Y-61.976
X164.592Y-64.516
T4
X171.204Y-103.418
X171.204Y-108.418
T5
X91.491Y-60.198
X91.491Y-120.498
X180.086Y-60.198
X180.086Y-120.498
T0
M30
