%TF.GenerationSoftware,KiCad,Pcbnew,(6.0.9)*%
%TF.CreationDate,2022-12-02T11:09:33-06:00*%
%TF.ProjectId,First_stm32,46697273-745f-4737-946d-33322e6b6963,rev?*%
%TF.SameCoordinates,Original*%
%TF.FileFunction,Legend,Bot*%
%TF.FilePolarity,Positive*%
%FSLAX46Y46*%
G04 Gerber Fmt 4.6, Leading zero omitted, Abs format (unit mm)*
G04 Created by KiCad (PCBNEW (6.0.9)) date 2022-12-02 11:09:33*
%MOMM*%
%LPD*%
G01*
G04 APERTURE LIST*
%ADD10C,0.200000*%
G04 APERTURE END LIST*
D10*
X173974933Y-57243600D02*
X174041600Y-57310266D01*
X174241600Y-57376933D01*
X174374933Y-57376933D01*
X174574933Y-57310266D01*
X174708266Y-57176933D01*
X174774933Y-57043600D01*
X174841600Y-56776933D01*
X174841600Y-56576933D01*
X174774933Y-56310266D01*
X174708266Y-56176933D01*
X174574933Y-56043600D01*
X174374933Y-55976933D01*
X174241600Y-55976933D01*
X174041600Y-56043600D01*
X173974933Y-56110266D01*
X173374933Y-57376933D02*
X173374933Y-55976933D01*
X172774933Y-57376933D02*
X172774933Y-56643600D01*
X172841600Y-56510266D01*
X172974933Y-56443600D01*
X173174933Y-56443600D01*
X173308266Y-56510266D01*
X173374933Y-56576933D01*
X172108266Y-57376933D02*
X172108266Y-56443600D01*
X172108266Y-55976933D02*
X172174933Y-56043600D01*
X172108266Y-56110266D01*
X172041600Y-56043600D01*
X172108266Y-55976933D01*
X172108266Y-56110266D01*
X170841600Y-57310266D02*
X170974933Y-57376933D01*
X171241600Y-57376933D01*
X171374933Y-57310266D01*
X171441600Y-57243600D01*
X171508266Y-57110266D01*
X171508266Y-56710266D01*
X171441600Y-56576933D01*
X171374933Y-56510266D01*
X171241600Y-56443600D01*
X170974933Y-56443600D01*
X170841600Y-56510266D01*
X169641600Y-57376933D02*
X169641600Y-56643600D01*
X169708266Y-56510266D01*
X169841600Y-56443600D01*
X170108266Y-56443600D01*
X170241600Y-56510266D01*
X169641600Y-57310266D02*
X169774933Y-57376933D01*
X170108266Y-57376933D01*
X170241600Y-57310266D01*
X170308266Y-57176933D01*
X170308266Y-57043600D01*
X170241600Y-56910266D01*
X170108266Y-56843600D01*
X169774933Y-56843600D01*
X169641600Y-56776933D01*
X168374933Y-56443600D02*
X168374933Y-57576933D01*
X168441600Y-57710266D01*
X168508266Y-57776933D01*
X168641600Y-57843600D01*
X168841600Y-57843600D01*
X168974933Y-57776933D01*
X168374933Y-57310266D02*
X168508266Y-57376933D01*
X168774933Y-57376933D01*
X168908266Y-57310266D01*
X168974933Y-57243600D01*
X169041600Y-57110266D01*
X169041600Y-56710266D01*
X168974933Y-56576933D01*
X168908266Y-56510266D01*
X168774933Y-56443600D01*
X168508266Y-56443600D01*
X168374933Y-56510266D01*
X167508266Y-57376933D02*
X167641600Y-57310266D01*
X167708266Y-57243600D01*
X167774933Y-57110266D01*
X167774933Y-56710266D01*
X167708266Y-56576933D01*
X167641600Y-56510266D01*
X167508266Y-56443600D01*
X167308266Y-56443600D01*
X167174933Y-56510266D01*
X167108266Y-56576933D01*
X167041600Y-56710266D01*
X167041600Y-57110266D01*
X167108266Y-57243600D01*
X167174933Y-57310266D01*
X167308266Y-57376933D01*
X167508266Y-57376933D01*
X165441600Y-56110266D02*
X165374933Y-56043600D01*
X165241600Y-55976933D01*
X164908266Y-55976933D01*
X164774933Y-56043600D01*
X164708266Y-56110266D01*
X164641600Y-56243600D01*
X164641600Y-56376933D01*
X164708266Y-56576933D01*
X165508266Y-57376933D01*
X164641600Y-57376933D01*
X163774933Y-55976933D02*
X163641600Y-55976933D01*
X163508266Y-56043600D01*
X163441600Y-56110266D01*
X163374933Y-56243600D01*
X163308266Y-56510266D01*
X163308266Y-56843600D01*
X163374933Y-57110266D01*
X163441600Y-57243600D01*
X163508266Y-57310266D01*
X163641600Y-57376933D01*
X163774933Y-57376933D01*
X163908266Y-57310266D01*
X163974933Y-57243600D01*
X164041600Y-57110266D01*
X164108266Y-56843600D01*
X164108266Y-56510266D01*
X164041600Y-56243600D01*
X163974933Y-56110266D01*
X163908266Y-56043600D01*
X163774933Y-55976933D01*
X162774933Y-56110266D02*
X162708266Y-56043600D01*
X162574933Y-55976933D01*
X162241600Y-55976933D01*
X162108266Y-56043600D01*
X162041600Y-56110266D01*
X161974933Y-56243600D01*
X161974933Y-56376933D01*
X162041600Y-56576933D01*
X162841600Y-57376933D01*
X161974933Y-57376933D01*
X161441600Y-56110266D02*
X161374933Y-56043600D01*
X161241600Y-55976933D01*
X160908266Y-55976933D01*
X160774933Y-56043600D01*
X160708266Y-56110266D01*
X160641600Y-56243600D01*
X160641600Y-56376933D01*
X160708266Y-56576933D01*
X161508266Y-57376933D01*
X160641600Y-57376933D01*
M02*
