%TF.GenerationSoftware,KiCad,Pcbnew,(6.0.9)*%
%TF.CreationDate,2022-12-02T11:09:33-06:00*%
%TF.ProjectId,First_stm32,46697273-745f-4737-946d-33322e6b6963,rev?*%
%TF.SameCoordinates,Original*%
%TF.FileFunction,Soldermask,Top*%
%TF.FilePolarity,Negative*%
%FSLAX46Y46*%
G04 Gerber Fmt 4.6, Leading zero omitted, Abs format (unit mm)*
G04 Created by KiCad (PCBNEW (6.0.9)) date 2022-12-02 11:09:33*
%MOMM*%
%LPD*%
G01*
G04 APERTURE LIST*
G04 Aperture macros list*
%AMRoundRect*
0 Rectangle with rounded corners*
0 $1 Rounding radius*
0 $2 $3 $4 $5 $6 $7 $8 $9 X,Y pos of 4 corners*
0 Add a 4 corners polygon primitive as box body*
4,1,4,$2,$3,$4,$5,$6,$7,$8,$9,$2,$3,0*
0 Add four circle primitives for the rounded corners*
1,1,$1+$1,$2,$3*
1,1,$1+$1,$4,$5*
1,1,$1+$1,$6,$7*
1,1,$1+$1,$8,$9*
0 Add four rect primitives between the rounded corners*
20,1,$1+$1,$2,$3,$4,$5,0*
20,1,$1+$1,$4,$5,$6,$7,0*
20,1,$1+$1,$6,$7,$8,$9,0*
20,1,$1+$1,$8,$9,$2,$3,0*%
G04 Aperture macros list end*
%ADD10R,1.800000X1.100000*%
%ADD11R,1.700000X1.700000*%
%ADD12O,1.700000X1.700000*%
%ADD13R,0.900000X1.200000*%
%ADD14RoundRect,0.140000X-0.140000X-0.170000X0.140000X-0.170000X0.140000X0.170000X-0.140000X0.170000X0*%
%ADD15C,0.800000*%
%ADD16R,0.900000X1.250000*%
%ADD17R,0.800000X0.930000*%
%ADD18RoundRect,0.200000X-0.275000X0.200000X-0.275000X-0.200000X0.275000X-0.200000X0.275000X0.200000X0*%
%ADD19RoundRect,0.225000X0.225000X0.250000X-0.225000X0.250000X-0.225000X-0.250000X0.225000X-0.250000X0*%
%ADD20RoundRect,0.250000X0.625000X-0.375000X0.625000X0.375000X-0.625000X0.375000X-0.625000X-0.375000X0*%
%ADD21RoundRect,0.140000X0.170000X-0.140000X0.170000X0.140000X-0.170000X0.140000X-0.170000X-0.140000X0*%
%ADD22RoundRect,0.218750X0.256250X-0.218750X0.256250X0.218750X-0.256250X0.218750X-0.256250X-0.218750X0*%
%ADD23C,0.900000*%
%ADD24C,8.600000*%
%ADD25RoundRect,0.225000X0.250000X-0.225000X0.250000X0.225000X-0.250000X0.225000X-0.250000X-0.225000X0*%
%ADD26RoundRect,0.218750X-0.218750X-0.256250X0.218750X-0.256250X0.218750X0.256250X-0.218750X0.256250X0*%
%ADD27RoundRect,0.218750X-0.256250X0.218750X-0.256250X-0.218750X0.256250X-0.218750X0.256250X0.218750X0*%
%ADD28R,3.048000X2.540000*%
%ADD29RoundRect,0.150000X-0.150000X0.587500X-0.150000X-0.587500X0.150000X-0.587500X0.150000X0.587500X0*%
%ADD30RoundRect,0.140000X0.140000X0.170000X-0.140000X0.170000X-0.140000X-0.170000X0.140000X-0.170000X0*%
%ADD31RoundRect,0.135000X0.185000X-0.135000X0.185000X0.135000X-0.185000X0.135000X-0.185000X-0.135000X0*%
%ADD32R,1.200000X0.900000*%
%ADD33RoundRect,0.200000X0.275000X-0.200000X0.275000X0.200000X-0.275000X0.200000X-0.275000X-0.200000X0*%
%ADD34RoundRect,0.135000X0.135000X0.185000X-0.135000X0.185000X-0.135000X-0.185000X0.135000X-0.185000X0*%
%ADD35RoundRect,0.250000X-0.325000X-0.650000X0.325000X-0.650000X0.325000X0.650000X-0.325000X0.650000X0*%
%ADD36RoundRect,0.218750X-0.381250X0.218750X-0.381250X-0.218750X0.381250X-0.218750X0.381250X0.218750X0*%
%ADD37R,2.600000X2.600000*%
%ADD38C,2.600000*%
%ADD39RoundRect,0.200000X0.200000X0.275000X-0.200000X0.275000X-0.200000X-0.275000X0.200000X-0.275000X0*%
%ADD40RoundRect,0.225000X-0.225000X-0.250000X0.225000X-0.250000X0.225000X0.250000X-0.225000X0.250000X0*%
%ADD41RoundRect,0.075000X-0.700000X-0.075000X0.700000X-0.075000X0.700000X0.075000X-0.700000X0.075000X0*%
%ADD42RoundRect,0.075000X-0.075000X-0.700000X0.075000X-0.700000X0.075000X0.700000X-0.075000X0.700000X0*%
%ADD43R,1.380000X0.450000*%
%ADD44R,1.900000X1.000000*%
%ADD45R,1.550000X1.425000*%
%ADD46R,1.300000X1.650000*%
%ADD47R,1.900000X1.800000*%
%ADD48RoundRect,0.150000X0.150000X-0.512500X0.150000X0.512500X-0.150000X0.512500X-0.150000X-0.512500X0*%
%ADD49RoundRect,0.150000X0.512500X0.150000X-0.512500X0.150000X-0.512500X-0.150000X0.512500X-0.150000X0*%
%ADD50RoundRect,0.147500X-0.147500X-0.172500X0.147500X-0.172500X0.147500X0.172500X-0.147500X0.172500X0*%
%ADD51R,1.200000X1.400000*%
G04 APERTURE END LIST*
D10*
%TO.C,SW3*%
X105512800Y-101015800D03*
X99312800Y-101015800D03*
X99312800Y-104715800D03*
X105512800Y-104715800D03*
%TD*%
D11*
%TO.C,J2*%
X154432000Y-61976000D03*
D12*
X154432000Y-64516000D03*
X156972000Y-61976000D03*
X156972000Y-64516000D03*
X159512000Y-61976000D03*
X159512000Y-64516000D03*
X162052000Y-61976000D03*
X162052000Y-64516000D03*
X164592000Y-61976000D03*
X164592000Y-64516000D03*
%TD*%
D13*
%TO.C,D2*%
X146178000Y-104902000D03*
X149478000Y-104902000D03*
%TD*%
D14*
%TO.C,C15*%
X115344000Y-76200000D03*
X116304000Y-76200000D03*
%TD*%
D15*
%TO.C,SW1*%
X114249200Y-56819800D03*
X117249200Y-56819800D03*
D16*
X117999200Y-58894800D03*
X114999200Y-58894800D03*
X113499200Y-58894800D03*
D17*
X112149200Y-57954800D03*
X112149200Y-55684800D03*
X119349200Y-55684800D03*
X119349200Y-57954800D03*
%TD*%
D18*
%TO.C,R1*%
X156718000Y-110173000D03*
X156718000Y-111823000D03*
%TD*%
D19*
%TO.C,C5*%
X123203000Y-71628000D03*
X121653000Y-71628000D03*
%TD*%
D20*
%TO.C,F1*%
X154686000Y-102492000D03*
X154686000Y-99692000D03*
%TD*%
D21*
%TO.C,C9*%
X136144000Y-74366000D03*
X136144000Y-73406000D03*
%TD*%
D22*
%TO.C,D4*%
X122428000Y-86893500D03*
X122428000Y-85318500D03*
%TD*%
D23*
%TO.C,H1*%
X177805581Y-62478419D03*
X176861000Y-60198000D03*
X182366419Y-62478419D03*
X182366419Y-57917581D03*
X180086000Y-63423000D03*
X183311000Y-60198000D03*
X180086000Y-56973000D03*
X177805581Y-57917581D03*
D24*
X180086000Y-60198000D03*
%TD*%
D10*
%TO.C,SW4*%
X105512800Y-89458800D03*
X99312800Y-89458800D03*
X99312800Y-93158800D03*
X105512800Y-93158800D03*
%TD*%
D25*
%TO.C,C14*%
X137922000Y-76213000D03*
X137922000Y-74663000D03*
%TD*%
D26*
%TO.C,D5*%
X102311000Y-77216000D03*
X103886000Y-77216000D03*
%TD*%
D27*
%TO.C,D3*%
X175514000Y-90932000D03*
X175514000Y-92507000D03*
%TD*%
D28*
%TO.C,L1*%
X141960600Y-107467400D03*
X141960600Y-114071400D03*
%TD*%
D21*
%TO.C,C12*%
X120396000Y-81534000D03*
X120396000Y-80574000D03*
%TD*%
D29*
%TO.C,Q1*%
X163256000Y-109044500D03*
X161356000Y-109044500D03*
X162306000Y-110919500D03*
%TD*%
D14*
%TO.C,C8*%
X134902000Y-86106000D03*
X135862000Y-86106000D03*
%TD*%
D11*
%TO.C,J6*%
X151872000Y-91928000D03*
D12*
X154412000Y-91928000D03*
X151872000Y-89388000D03*
X154412000Y-89388000D03*
X151872000Y-86848000D03*
X154412000Y-86848000D03*
X151872000Y-84308000D03*
X154412000Y-84308000D03*
X151872000Y-81768000D03*
X154412000Y-81768000D03*
X151872000Y-79228000D03*
X154412000Y-79228000D03*
X151872000Y-76688000D03*
X154412000Y-76688000D03*
%TD*%
D30*
%TO.C,C16*%
X116304000Y-82042000D03*
X115344000Y-82042000D03*
%TD*%
D31*
%TO.C,R14*%
X114147600Y-73103200D03*
X114147600Y-72083200D03*
%TD*%
D23*
%TO.C,H4*%
X93771219Y-122778019D03*
X94715800Y-120497600D03*
X88265800Y-120497600D03*
X89210381Y-118217181D03*
D24*
X91490800Y-120497600D03*
D23*
X93771219Y-118217181D03*
X91490800Y-123722600D03*
X91490800Y-117272600D03*
X89210381Y-122778019D03*
%TD*%
D21*
%TO.C,C11*%
X121666000Y-81534000D03*
X121666000Y-80574000D03*
%TD*%
D32*
%TO.C,D1*%
X159512000Y-102742000D03*
X159512000Y-99442000D03*
%TD*%
D33*
%TO.C,R3*%
X155702000Y-115887000D03*
X155702000Y-114237000D03*
%TD*%
D34*
%TO.C,R7*%
X123700000Y-67056000D03*
X122680000Y-67056000D03*
%TD*%
D23*
%TO.C,H3*%
X180086000Y-123722600D03*
X180086000Y-117272600D03*
X183311000Y-120497600D03*
X177805581Y-122778019D03*
D24*
X180086000Y-120497600D03*
D23*
X177805581Y-118217181D03*
X176861000Y-120497600D03*
X182366419Y-122778019D03*
X182366419Y-118217181D03*
%TD*%
D35*
%TO.C,C1*%
X152195000Y-106172000D03*
X155145000Y-106172000D03*
%TD*%
D34*
%TO.C,R10*%
X133098000Y-69088000D03*
X132078000Y-69088000D03*
%TD*%
D18*
%TO.C,R9*%
X120396000Y-85281000D03*
X120396000Y-86931000D03*
%TD*%
D36*
%TO.C,FB1*%
X149098000Y-99775500D03*
X149098000Y-101900500D03*
%TD*%
D37*
%TO.C,J1*%
X171204000Y-108418000D03*
D38*
X171204000Y-103418000D03*
%TD*%
D39*
%TO.C,R13*%
X98335500Y-71882000D03*
X96685500Y-71882000D03*
%TD*%
D11*
%TO.C,J4*%
X127000000Y-97028000D03*
D12*
X129540000Y-97028000D03*
X132080000Y-97028000D03*
X134620000Y-97028000D03*
%TD*%
D40*
%TO.C,C13*%
X132829000Y-88138000D03*
X134379000Y-88138000D03*
%TD*%
D41*
%TO.C,U2*%
X123865000Y-75752000D03*
X123865000Y-76252000D03*
X123865000Y-76752000D03*
X123865000Y-77252000D03*
X123865000Y-77752000D03*
X123865000Y-78252000D03*
X123865000Y-78752000D03*
X123865000Y-79252000D03*
X123865000Y-79752000D03*
X123865000Y-80252000D03*
X123865000Y-80752000D03*
X123865000Y-81252000D03*
X123865000Y-81752000D03*
X123865000Y-82252000D03*
X123865000Y-82752000D03*
X123865000Y-83252000D03*
D42*
X125790000Y-85177000D03*
X126290000Y-85177000D03*
X126790000Y-85177000D03*
X127290000Y-85177000D03*
X127790000Y-85177000D03*
X128290000Y-85177000D03*
X128790000Y-85177000D03*
X129290000Y-85177000D03*
X129790000Y-85177000D03*
X130290000Y-85177000D03*
X130790000Y-85177000D03*
X131290000Y-85177000D03*
X131790000Y-85177000D03*
X132290000Y-85177000D03*
X132790000Y-85177000D03*
X133290000Y-85177000D03*
D41*
X135215000Y-83252000D03*
X135215000Y-82752000D03*
X135215000Y-82252000D03*
X135215000Y-81752000D03*
X135215000Y-81252000D03*
X135215000Y-80752000D03*
X135215000Y-80252000D03*
X135215000Y-79752000D03*
X135215000Y-79252000D03*
X135215000Y-78752000D03*
X135215000Y-78252000D03*
X135215000Y-77752000D03*
X135215000Y-77252000D03*
X135215000Y-76752000D03*
X135215000Y-76252000D03*
X135215000Y-75752000D03*
D42*
X133290000Y-73827000D03*
X132790000Y-73827000D03*
X132290000Y-73827000D03*
X131790000Y-73827000D03*
X131290000Y-73827000D03*
X130790000Y-73827000D03*
X130290000Y-73827000D03*
X129790000Y-73827000D03*
X129290000Y-73827000D03*
X128790000Y-73827000D03*
X128290000Y-73827000D03*
X127790000Y-73827000D03*
X127290000Y-73827000D03*
X126790000Y-73827000D03*
X126290000Y-73827000D03*
X125790000Y-73827000D03*
%TD*%
D43*
%TO.C,J5*%
X181490000Y-79786000D03*
X181490000Y-79136000D03*
X181490000Y-78486000D03*
X181490000Y-77836000D03*
X181490000Y-77186000D03*
D44*
X184150000Y-76936000D03*
D45*
X181575000Y-80973500D03*
D46*
X184150000Y-81861000D03*
X184150000Y-75111000D03*
D47*
X184150000Y-79636000D03*
D45*
X181575000Y-75998500D03*
%TD*%
D35*
%TO.C,C3*%
X147115000Y-119888000D03*
X150065000Y-119888000D03*
%TD*%
D39*
%TO.C,R12*%
X98335500Y-77216000D03*
X96685500Y-77216000D03*
%TD*%
D48*
%TO.C,U1*%
X151704000Y-112135500D03*
X152654000Y-112135500D03*
X153604000Y-112135500D03*
X153604000Y-109860500D03*
X152654000Y-109860500D03*
X151704000Y-109860500D03*
%TD*%
D14*
%TO.C,C10*%
X125758000Y-71628000D03*
X126718000Y-71628000D03*
%TD*%
D15*
%TO.C,SW2*%
X105335200Y-56819800D03*
X102335200Y-56819800D03*
D16*
X106085200Y-58894800D03*
X103085200Y-58894800D03*
X101585200Y-58894800D03*
D17*
X100235200Y-57954800D03*
X100235200Y-55684800D03*
X107435200Y-55684800D03*
X107435200Y-57954800D03*
%TD*%
D26*
%TO.C,D6*%
X102336500Y-71882000D03*
X103911500Y-71882000D03*
%TD*%
D30*
%TO.C,C7*%
X126944000Y-87376000D03*
X125984000Y-87376000D03*
%TD*%
D11*
%TO.C,J3*%
X134610000Y-61747000D03*
D12*
X132070000Y-61747000D03*
X129530000Y-61747000D03*
X126990000Y-61747000D03*
%TD*%
D49*
%TO.C,U3*%
X171571500Y-79182000D03*
X171571500Y-78232000D03*
X171571500Y-77282000D03*
X169296500Y-77282000D03*
X169296500Y-78232000D03*
X169296500Y-79182000D03*
%TD*%
D50*
%TO.C,L2*%
X118133000Y-82550000D03*
X119103000Y-82550000D03*
%TD*%
D25*
%TO.C,C4*%
X148844000Y-110757000D03*
X148844000Y-109207000D03*
%TD*%
D21*
%TO.C,C6*%
X121666000Y-75692000D03*
X121666000Y-74732000D03*
%TD*%
D34*
%TO.C,R8*%
X119382000Y-80010000D03*
X118362000Y-80010000D03*
%TD*%
D23*
%TO.C,H2*%
X94715800Y-60198000D03*
X93771219Y-57917581D03*
X91490800Y-56973000D03*
X89210381Y-57917581D03*
X89210381Y-62478419D03*
D24*
X91490800Y-60198000D03*
D23*
X91490800Y-63423000D03*
X93771219Y-62478419D03*
X88265800Y-60198000D03*
%TD*%
D33*
%TO.C,R6*%
X171704000Y-92582000D03*
X171704000Y-90932000D03*
%TD*%
D34*
%TO.C,R11*%
X130558000Y-69088000D03*
X129538000Y-69088000D03*
%TD*%
D33*
%TO.C,R5*%
X161036000Y-115887000D03*
X161036000Y-114237000D03*
%TD*%
D51*
%TO.C,Y1*%
X114974000Y-77894000D03*
X114974000Y-80094000D03*
X116674000Y-80094000D03*
X116674000Y-77894000D03*
%TD*%
D33*
%TO.C,R2*%
X158750000Y-111823000D03*
X158750000Y-110173000D03*
%TD*%
D35*
%TO.C,C2*%
X147115000Y-116332000D03*
X150065000Y-116332000D03*
%TD*%
D18*
%TO.C,R4*%
X158496000Y-114237000D03*
X158496000Y-115887000D03*
%TD*%
M02*
